<?xml version="1.0" encoding="UTF-8"?>
<!DOCTYPE svg PUBLIC "-//W3C//DTD SVG 1.1//EN" "http://www.w3.org/Graphics/SVG/1.1/DTD/svg11.dtd">
<svg version="1.1" xmlns="http://www.w3.org/2000/svg" xmlns:xlink="http://www.w3.org/1999/xlink" x="0" y="0" width="487.52" height="347.108" viewBox="0, 0, 487.52, 347.108">
  <g id="Layer_1">
    <path d="M34.087,49.622 C34.087,53.173 31.209,56.051 27.659,56.051 C24.108,56.051 21.23,53.173 21.23,49.622 C21.23,46.072 24.108,43.194 27.659,43.194 C31.209,43.194 34.087,46.072 34.087,49.622 z" fill="#000000" id="path3023-7"/>
    <path d="M34.087,197.479 C34.087,201.03 31.209,203.908 27.659,203.908 C24.108,203.908 21.23,201.03 21.23,197.479 C21.23,193.929 24.108,191.051 27.659,191.051 C31.209,191.051 34.087,193.929 34.087,197.479 z" fill="#000000" id="path3023-7-1"/>
    <path d="M451.944,195.765 C451.944,199.316 449.066,202.194 445.516,202.194 C441.965,202.194 439.087,199.316 439.087,195.765 C439.087,192.215 441.965,189.337 445.516,189.337 C449.066,189.337 451.944,192.215 451.944,195.765 z" fill="#000000" id="path3023-7-1-0"/>
    <path d="M278.516,46.908 C278.516,50.458 275.638,53.337 272.087,53.337 C268.537,53.337 265.659,50.458 265.659,46.908 C265.659,43.358 268.537,40.479 272.087,40.479 C275.638,40.479 278.516,43.358 278.516,46.908 z" fill="#000000" id="path3023-7-1-0-5"/>
    <path d="M274.087,44.622 L26.944,195.337" fill-opacity="0" stroke="#000000" stroke-width="1" id="path5970"/>
    <path d="M27.659,47.479 L27.659,194.622" fill-opacity="0" stroke="#000000" stroke-width="1" id="path7029"/>
    <path d="M269.801,46.765 L25.516,46.765" fill-opacity="0" stroke="#000000" stroke-width="1" id="path7035"/>
    <path d="M25.608,196.765 L446.322,196.765" fill-opacity="0" stroke="#000000" stroke-width="1" id="path9509"/>
    <path d="M272.75,46.051 L444.179,195.337" fill-opacity="0" stroke="#000000" stroke-width="1" id="path9511"/>
    <path d="M29.179,49.622 L445.608,196.051" fill-opacity="0" stroke="#000000" stroke-width="1" id="path9513"/>
    <path d="M28.204,25.784 L28.204,25.755 L28.204,25.727 L28.204,25.698 L28.204,25.67 L28.204,25.641 L28.204,25.627 L28.204,25.599 L28.204,25.57 L28.204,25.556 L28.204,25.542 L28.189,25.513 L28.189,25.499 L28.189,25.485 L28.175,25.47 L28.175,25.456 L28.161,25.442 L28.161,25.428 L28.147,25.413 L28.132,25.399 L28.118,25.385 L28.104,25.371 L28.09,25.371 L28.075,25.356 L28.075,25.356 L28.061,25.356 L28.047,25.356 L28.047,25.342 L28.033,25.342 L28.018,25.342 L28.018,25.342 L28.004,25.342 L27.99,25.342 L27.976,25.328 L27.961,25.328 L27.947,25.328 L27.933,25.328 L27.919,25.328 L27.904,25.328 L27.89,25.328 L27.876,25.328 L27.862,25.328 L27.847,25.328 C27.691,25.328 27.662,25.328 27.534,25.428 C26.437,26.225 24.984,26.225 24.685,26.225 L24.4,26.225 L24.4,26.895 L24.685,26.895 C24.913,26.895 25.682,26.881 26.523,26.61 L26.523,33.932 L24.557,33.932 L24.557,34.602 C25.169,34.545 26.679,34.545 27.377,34.545 C28.061,34.545 29.571,34.545 30.198,34.602 L30.198,33.932 L28.204,33.932 z" fill="#000000" id="path10081"/>
    <path d="M275.116,33.133 L274.447,33.133 C274.404,33.418 274.276,34.316 274.077,34.415 C273.92,34.501 272.851,34.501 272.638,34.501 L270.544,34.501 C271.213,33.96 271.954,33.347 272.581,32.877 C274.205,31.695 275.116,31.025 275.116,29.686 C275.116,28.048 273.635,27.008 271.641,27.008 C269.917,27.008 268.592,27.877 268.592,29.159 C268.592,29.985 269.276,30.199 269.603,30.199 C270.059,30.199 270.629,29.885 270.629,29.187 C270.629,28.447 270.031,28.219 269.831,28.162 C270.23,27.834 270.772,27.663 271.284,27.663 C272.495,27.663 273.151,28.632 273.151,29.7 C273.151,30.669 272.609,31.638 271.626,32.635 L268.777,35.541 C268.592,35.712 268.592,35.74 268.592,36.025 L268.592,36.282 L274.675,36.282 z" fill="#000000" id="path10359"/>
    <path d="M446.877,211.432 L446.977,211.404 L447.062,211.361 L447.162,211.332 L447.248,211.29 L447.347,211.247 L447.433,211.204 L447.518,211.162 L447.604,211.119 L447.703,211.062 L447.789,211.005 L447.874,210.948 L447.946,210.891 L448.031,210.82 L448.102,210.748 L448.188,210.691 L448.259,210.62 L448.33,210.535 L448.387,210.464 L448.458,210.378 L448.515,210.293 L448.572,210.221 L448.629,210.122 L448.672,210.036 L448.715,209.936 L448.758,209.851 L448.8,209.751 L448.829,209.652 L448.843,209.552 L448.872,209.438 L448.886,209.338 L448.886,209.224 L448.9,209.11 C448.9,208.013 447.817,207.144 445.823,207.144 C444.128,207.144 443.031,208.042 443.031,209.181 C443.031,209.794 443.473,210.164 444,210.164 C444.641,210.164 444.997,209.723 444.997,209.196 C444.997,208.369 444.228,208.213 444.171,208.198 C444.669,207.8 445.296,207.7 445.738,207.7 C446.906,207.7 446.948,208.597 446.948,209.067 C446.948,209.253 446.934,211.105 445.467,211.19 C444.883,211.219 444.854,211.233 444.783,211.247 C444.641,211.261 444.612,211.404 444.612,211.489 C444.612,211.746 444.755,211.746 445.011,211.746 L445.638,211.746 C447.176,211.746 447.176,213.127 447.176,213.854 C447.176,214.509 447.176,215.962 445.709,215.962 C445.339,215.962 444.598,215.905 443.914,215.478 C444.384,215.35 444.74,214.994 444.74,214.409 C444.74,213.783 444.285,213.341 443.672,213.341 C443.074,213.341 442.575,213.726 442.575,214.438 C442.575,215.72 443.957,216.561 445.78,216.561 C448.316,216.561 449.342,215.15 449.342,213.868 C449.342,213.085 448.943,211.874 446.877,211.432 z" fill="#000000" id="path10637"/>
    <path d="M20.423,121.916 L20.522,121.874 L20.636,121.831 L20.736,121.788 L20.836,121.745 L20.936,121.688 L21.035,121.631 L21.121,121.574 L21.22,121.517 L21.306,121.46 L21.391,121.389 L21.477,121.318 L21.562,121.247 L21.634,121.176 L21.705,121.104 L21.776,121.019 L21.847,120.948 L21.904,120.862 L21.975,120.777 L22.032,120.691 L22.075,120.606 L22.132,120.506 L22.175,120.421 L22.218,120.321 L22.26,120.235 L22.289,120.136 L22.317,120.036 L22.346,119.936 L22.36,119.836 L22.389,119.737 L22.389,119.637 L22.403,119.523 L22.403,119.423 C22.403,118.269 21.163,117.472 19.796,117.472 C18.371,117.472 17.289,118.312 17.289,119.395 C17.289,119.865 17.602,120.136 18.015,120.136 C18.443,120.136 18.728,119.822 18.728,119.409 C18.728,118.697 18.072,118.697 17.859,118.697 C18.286,118.013 19.226,117.828 19.739,117.828 C20.323,117.828 21.092,118.141 21.092,119.409 C21.092,119.58 21.064,120.406 20.708,121.019 C20.28,121.703 19.796,121.745 19.44,121.76 C19.326,121.774 18.984,121.802 18.884,121.802 C18.77,121.817 18.671,121.831 18.671,121.973 C18.671,122.13 18.77,122.13 19.012,122.13 L19.639,122.13 C20.807,122.13 21.32,123.084 21.32,124.48 C21.32,126.404 20.351,126.817 19.725,126.817 C19.112,126.817 18.058,126.575 17.559,125.734 C18.058,125.805 18.485,125.492 18.485,124.951 C18.485,124.452 18.115,124.167 17.702,124.167 C17.36,124.167 16.904,124.366 16.904,124.979 C16.904,126.275 18.215,127.201 19.767,127.201 C21.491,127.201 22.787,125.919 22.787,124.48 C22.787,123.312 21.89,122.215 20.423,121.916 z" fill="#000000" id="path10915"/>
    <path d="M114.816,132.767 L114.816,132.611 L114.802,132.454 L114.788,132.297 L114.759,132.155 L114.731,131.998 L114.702,131.856 L114.66,131.713 L114.603,131.571 L114.56,131.428 L114.503,131.3 L114.432,131.172 L114.36,131.044 L114.289,130.915 L114.218,130.802 L114.133,130.688 L114.047,130.588 L113.947,130.474 L113.848,130.388 L113.748,130.289 L113.648,130.203 L113.534,130.118 L113.42,130.047 L113.306,129.975 L113.192,129.918 L113.064,129.861 L112.936,129.804 L112.808,129.762 L112.68,129.733 L112.537,129.705 L112.409,129.676 L112.266,129.676 L112.124,129.662 C111.44,129.662 110.828,129.89 110.315,130.388 L110.315,127.625 C110.6,127.71 111.07,127.81 111.526,127.81 C113.278,127.81 114.261,126.528 114.261,126.343 C114.261,126.257 114.218,126.186 114.118,126.186 C114.104,126.186 114.076,126.186 114.004,126.229 C113.719,126.357 113.036,126.642 112.081,126.642 C111.511,126.642 110.856,126.542 110.201,126.243 C110.087,126.2 110.058,126.2 110.03,126.2 C109.887,126.2 109.887,126.314 109.887,126.542 L109.887,130.73 C109.887,130.987 109.887,131.101 110.087,131.101 C110.187,131.101 110.215,131.058 110.272,130.972 C110.429,130.745 110.942,129.975 112.095,129.975 C112.836,129.975 113.192,130.631 113.306,130.887 C113.52,131.414 113.549,131.955 113.549,132.668 C113.549,133.166 113.549,134.007 113.207,134.605 C112.879,135.161 112.352,135.531 111.697,135.531 C110.657,135.531 109.859,134.776 109.617,133.936 C109.66,133.95 109.702,133.964 109.859,133.964 C110.315,133.964 110.557,133.608 110.557,133.28 C110.557,132.938 110.315,132.582 109.859,132.582 C109.66,132.582 109.161,132.682 109.161,133.337 C109.161,134.548 110.144,135.916 111.725,135.916 C113.363,135.916 114.816,134.562 114.816,132.767 z" fill="#000000" id="path11193"/>
    <path d="M223.551,186.138 L223.636,186.081 L223.736,186.038 L223.821,185.981 L223.907,185.924 L223.992,185.881 L224.078,185.824 L224.163,185.767 L224.249,185.71 L224.32,185.639 L224.391,185.582 L224.462,185.525 L224.533,185.454 L224.605,185.397 L224.662,185.326 L224.733,185.255 L224.79,185.198 L224.847,185.126 L224.89,185.055 L224.947,184.984 L224.989,184.913 L225.032,184.841 L225.075,184.756 L225.103,184.685 L225.132,184.599 L225.16,184.528 L225.189,184.443 L225.217,184.371 L225.231,184.286 L225.246,184.2 L225.246,184.115 L225.26,184.03 L225.26,183.944 C225.26,182.648 223.992,181.836 222.71,181.836 L222.696,182.192 C223.736,182.192 224.633,182.918 224.633,183.944 C224.633,184.756 224.078,185.426 223.237,185.924 L221.471,184.785 C220.83,184.371 220.773,183.887 220.773,183.645 C220.773,182.79 221.684,182.192 222.696,182.192 L222.71,181.836 C221.286,181.836 220.146,182.876 220.146,184.2 C220.146,184.457 220.174,185.084 220.773,185.753 C220.929,185.924 221.442,186.28 221.798,186.522 L222.126,186.736 L223.878,187.833 C224.263,188.104 224.932,188.531 224.932,189.386 C224.932,190.44 223.878,191.181 222.71,191.181 C221.485,191.181 220.474,190.297 220.474,189.129 C220.474,188.303 220.929,187.391 222.126,186.736 L222.126,186.736 L221.798,186.522 C220.986,186.921 219.761,187.719 219.761,189.129 C219.761,190.625 221.214,191.565 222.696,191.565 C224.291,191.565 225.645,190.397 225.645,188.887 C225.645,188.374 225.488,187.733 224.947,187.135 C224.676,186.85 224.448,186.708 223.551,186.138 z" fill="#000000" id="path11471"/>
    <path d="M243.077,115.401 L243.077,115.842 C243.077,119.161 241.61,119.817 240.783,119.817 C240.541,119.817 239.772,119.788 239.401,119.304 C240.014,119.304 240.128,118.891 240.128,118.649 C240.128,118.207 239.786,117.993 239.487,117.993 C239.259,117.993 238.832,118.121 238.832,118.677 C238.832,119.632 239.601,120.201 240.798,120.201 C242.621,120.201 244.359,118.278 244.359,115.244 C244.359,111.44 242.735,110.472 241.467,110.472 C240.684,110.472 239.986,110.728 239.387,111.369 C238.803,111.996 238.476,112.594 238.476,113.648 C238.476,115.429 239.729,116.811 241.31,116.811 L241.325,116.483 C241.097,116.483 240.441,116.483 240,115.586 C239.743,115.073 239.743,114.361 239.743,113.663 C239.743,112.908 239.743,112.238 240.043,111.711 C240.427,111.013 240.968,110.828 241.467,110.828 C242.122,110.828 242.592,111.298 242.82,111.939 C242.991,112.395 243.048,113.292 243.048,113.933 C243.048,115.116 242.578,116.483 241.325,116.483 L241.325,116.483 L241.31,116.811 C242.179,116.811 242.749,116.213 243.077,115.401 z" fill="#000000" id="path11748"/>
    <path d="M362.959,110.482 L362.959,110.325 L362.945,110.168 L362.931,110.011 L362.902,109.869 L362.874,109.712 L362.845,109.57 L362.802,109.427 L362.746,109.285 L362.703,109.143 L362.646,109.014 L362.575,108.886 L362.503,108.758 L362.432,108.63 L362.361,108.516 L362.275,108.402 L362.19,108.302 L362.09,108.188 L361.991,108.103 L361.891,108.003 L361.791,107.917 L361.677,107.832 L361.563,107.761 L361.449,107.689 L361.335,107.633 L361.207,107.576 L361.079,107.519 L360.951,107.476 L360.822,107.447 L360.68,107.419 L360.552,107.39 L360.409,107.39 L360.267,107.376 C359.583,107.376 358.97,107.604 358.458,108.103 L358.458,105.339 C358.743,105.424 359.213,105.524 359.669,105.524 C361.421,105.524 362.404,104.242 362.404,104.057 C362.404,103.971 362.361,103.9 362.261,103.9 C362.247,103.9 362.218,103.9 362.147,103.943 C361.862,104.071 361.179,104.356 360.224,104.356 C359.654,104.356 358.999,104.256 358.344,103.957 C358.23,103.914 358.201,103.914 358.173,103.914 C358.03,103.914 358.03,104.028 358.03,104.256 L358.03,108.444 C358.03,108.701 358.03,108.815 358.23,108.815 C358.329,108.815 358.358,108.772 358.415,108.687 C358.572,108.459 359.084,107.689 360.238,107.689 C360.979,107.689 361.335,108.345 361.449,108.601 C361.663,109.128 361.691,109.67 361.691,110.382 C361.691,110.88 361.691,111.721 361.349,112.319 C361.022,112.875 360.495,113.245 359.839,113.245 C358.8,113.245 358.002,112.49 357.76,111.65 C357.802,111.664 357.845,111.678 358.002,111.678 C358.458,111.678 358.7,111.322 358.7,110.994 C358.7,110.653 358.458,110.296 358.002,110.296 C357.802,110.296 357.304,110.396 357.304,111.051 C357.304,112.262 358.287,113.63 359.868,113.63 C361.506,113.63 362.959,112.277 362.959,110.482 z" fill="#000000" id="path12024"/>
    <path d="M150.858,36.837 L150.858,38.062 C150.858,38.575 150.829,38.731 149.775,38.731 L149.476,38.731 L149.476,39.173 C150.06,39.116 150.801,39.116 151.399,39.116 C151.983,39.116 152.738,39.116 153.322,39.173 L153.322,38.731 L153.023,38.731 C151.969,38.731 151.941,38.575 151.941,38.062 L151.941,36.837 L153.365,36.837 L153.365,36.395 L151.941,36.395 L151.941,29.956 C151.941,29.671 151.941,29.586 151.713,29.586 C151.584,29.586 151.556,29.586 151.428,29.757 L147.083,36.395 L147.482,36.395 L150.943,31.11 L150.943,36.395 L147.482,36.395 L147.083,36.395 L147.083,36.837 z" fill="#000000" id="path12300"/>
    <g id="g12543">
      <path d="M32.899,286.961 L29.234,278.878 C29.065,278.493 28.896,278.493 28.557,278.493 L25.154,278.493 L25.154,279.217 L26.802,279.217 L26.802,287.824 C26.802,288.162 26.802,288.178 26.371,288.224 C26.001,288.27 25.97,288.27 25.539,288.27 L25.154,288.27 L25.154,288.994 C25.739,288.932 26.601,288.932 27.202,288.932 C27.849,288.932 28.649,288.932 29.28,288.994 L29.28,288.27 L28.896,288.27 C28.618,288.27 28.357,288.255 28.08,288.224 C27.633,288.178 27.618,288.162 27.618,287.824 L27.618,279.417 L27.633,279.417 L31.805,288.609 C31.944,288.917 32.129,288.994 32.298,288.994 C32.591,288.994 32.714,288.763 32.791,288.624 L37.056,279.217 L37.071,279.217 L37.071,288.27 L35.424,288.27 L35.424,288.994 C35.963,288.932 37.394,288.932 38.026,288.932 C38.657,288.932 40.089,288.932 40.643,288.994 L40.643,288.27 L38.98,288.27 L38.98,279.217 L40.643,279.217 L40.643,278.493 L37.256,278.493 C36.917,278.493 36.748,278.493 36.578,278.878 z" fill="#000000" id="path12545"/>
      <path d="M47.017,287.808 L47.017,287.9 L47.017,287.993 L47.017,288.039 L47.033,288.085 L47.033,288.147 L47.048,288.193 L47.048,288.239 L47.063,288.285 L47.079,288.347 L47.094,288.393 L47.125,288.439 L47.156,288.486 L47.187,288.532 L47.217,288.578 L47.248,288.624 L47.294,288.655 L47.356,288.701 L47.371,288.716 L47.402,288.732 L47.433,288.763 L47.464,288.778 L47.494,288.793 L47.541,288.809 L47.571,288.824 L47.602,288.84 L47.648,288.855 L47.695,288.87 L47.725,288.886 L47.772,288.901 L47.818,288.901 L47.864,288.917 L47.926,288.932 L47.972,288.932 L48.033,288.947 L48.08,288.947 L48.141,288.963 L48.203,288.963 L48.264,288.978 L48.326,288.978 L48.403,288.978 L48.464,288.978 L48.541,288.978 L48.603,288.994 L49.342,288.994 C49.65,288.994 49.835,288.994 49.835,288.624 C49.835,288.27 49.635,288.27 49.434,288.27 C48.495,288.255 48.495,288.054 48.495,287.7 L48.495,284.405 C48.495,283.051 47.417,282.065 45.123,282.065 C44.261,282.065 42.383,282.111 42.383,283.466 C42.383,284.144 42.922,284.421 43.337,284.421 C43.815,284.421 44.307,284.113 44.307,283.466 C44.307,283.004 44.015,282.743 43.969,282.712 C44.4,282.62 44.892,282.604 45.077,282.604 C46.217,282.604 46.755,283.251 46.755,284.405 L46.755,284.929 L46.755,285.406 L46.755,286.854 C46.755,288.332 45.354,288.532 44.969,288.532 C44.184,288.532 43.568,287.993 43.568,287.315 C43.568,285.668 45.986,285.452 46.755,285.406 L46.755,285.406 L46.755,284.929 C45.662,284.975 41.782,285.114 41.782,287.331 C41.782,288.809 43.676,289.086 44.738,289.086 C45.955,289.086 46.678,288.455 47.017,287.808 z" fill="#000000" id="path12547"/>
      <path d="M55.162,285.221 L56.948,283.235 C57.148,283.02 57.24,282.912 58.518,282.912 L58.518,282.188 C57.979,282.219 57.179,282.235 57.102,282.235 C56.717,282.235 55.963,282.204 55.531,282.188 L55.531,282.912 C55.747,282.912 55.932,282.943 56.116,283.051 C56.055,283.143 56.055,283.174 55.993,283.235 L54.7,284.667 L53.207,282.912 L53.807,282.912 L53.807,282.188 C53.407,282.204 52.452,282.235 51.959,282.235 C51.467,282.235 50.774,282.204 50.281,282.188 L50.281,282.912 L51.359,282.912 L53.745,285.73 L51.744,287.977 C51.482,288.27 50.928,288.27 50.204,288.27 L50.204,288.994 C50.728,288.947 51.528,288.932 51.605,288.932 C51.99,288.932 52.883,288.978 53.191,288.994 L53.191,288.27 C52.914,288.27 52.621,288.193 52.621,288.101 C52.621,288.085 52.621,288.07 52.729,287.947 L54.207,286.284 L55.901,288.27 L55.3,288.27 L55.3,288.994 C55.701,288.978 56.625,288.932 57.133,288.932 C57.625,288.932 58.318,288.978 58.826,288.994 L58.826,288.27 L57.733,288.27 z" fill="#000000" id="path12549"/>
      <path d="M62.598,282.096 L59.935,282.219 L59.935,282.943 C60.843,282.943 60.951,282.943 60.951,283.543 L60.951,288.27 L59.889,288.27 L59.889,288.994 C60.366,288.978 61.12,288.932 61.752,288.932 C62.213,288.932 62.999,288.978 63.553,288.994 L63.553,288.27 L62.598,288.27 z" fill="#000000" id="path12551"/>
      <path d="M62.752,279.556 L62.752,279.494 L62.752,279.432 L62.737,279.371 L62.737,279.309 L62.722,279.248 L62.706,279.186 L62.675,279.14 L62.66,279.078 L62.629,279.032 L62.614,278.971 L62.583,278.924 L62.552,278.878 L62.506,278.832 L62.475,278.786 L62.444,278.74 L62.398,278.693 L62.352,278.663 L62.306,278.632 L62.275,278.586 L62.213,278.555 L62.167,278.524 L62.121,278.493 L62.075,278.478 L62.013,278.447 L61.967,278.432 L61.906,278.416 L61.859,278.385 L61.798,278.385 L61.736,278.37 L61.675,278.355 L61.613,278.355 L61.567,278.355 C60.905,278.355 60.366,278.894 60.366,279.556 C60.366,280.202 60.905,280.741 61.567,280.741 C62.198,280.741 62.752,280.218 62.752,279.556 z" fill="#000000" id="path12553"/>
      <path d="M65.816,283.543 L65.816,288.27 L64.754,288.27 L64.754,288.994 C65.185,288.978 66.109,288.932 66.694,288.932 C67.294,288.932 68.187,288.978 68.618,288.994 L68.618,288.27 L67.556,288.27 L67.556,285.068 C67.556,283.405 68.896,282.65 69.85,282.65 C70.374,282.65 70.697,282.958 70.697,284.144 L70.697,288.27 L69.65,288.27 L69.65,288.994 C70.081,288.978 70.989,288.932 71.575,288.932 C72.175,288.932 73.083,288.978 73.499,288.994 L73.499,288.27 L72.452,288.27 L72.452,285.068 C72.452,283.405 73.776,282.65 74.731,282.65 C75.254,282.65 75.593,282.958 75.593,284.144 L75.593,288.27 L74.531,288.27 L74.531,288.994 C74.962,288.978 75.886,288.932 76.455,288.932 C77.056,288.932 77.964,288.978 78.395,288.994 L78.395,288.27 L77.333,288.27 L77.333,284.298 C77.333,282.727 76.548,282.096 74.977,282.096 C73.576,282.096 72.791,282.866 72.391,283.574 C72.083,282.158 70.666,282.096 70.096,282.096 C68.757,282.096 67.879,282.789 67.387,283.759 L67.387,282.096 L64.754,282.219 L64.754,282.943 C65.708,282.943 65.816,282.943 65.816,283.543 z" fill="#000000" id="path12555"/>
      <path d="M84.492,287.808 L84.492,287.9 L84.508,287.993 L84.508,288.039 L84.508,288.085 L84.508,288.147 L84.523,288.193 L84.538,288.239 L84.554,288.285 L84.569,288.347 L84.585,288.393 L84.6,288.439 L84.631,288.486 L84.662,288.532 L84.692,288.578 L84.739,288.624 L84.785,288.655 L84.831,288.701 L84.862,288.716 L84.892,288.732 L84.923,288.763 L84.954,288.778 L84.985,288.793 L85.016,288.809 L85.046,288.824 L85.093,288.84 L85.123,288.855 L85.17,288.87 L85.216,288.886 L85.262,288.901 L85.308,288.901 L85.354,288.917 L85.401,288.932 L85.462,288.932 L85.508,288.947 L85.57,288.947 L85.616,288.963 L85.678,288.963 L85.739,288.978 L85.816,288.978 L85.878,288.978 L85.939,288.978 L86.016,288.978 L86.093,288.994 L86.832,288.994 C87.125,288.994 87.31,288.994 87.31,288.624 C87.31,288.27 87.125,288.27 86.925,288.27 C85.986,288.255 85.986,288.054 85.986,287.7 L85.986,284.405 C85.986,283.051 84.892,282.065 82.614,282.065 C81.736,282.065 79.873,282.111 79.873,283.466 C79.873,284.144 80.412,284.421 80.828,284.421 C81.29,284.421 81.782,284.113 81.782,283.466 C81.782,283.004 81.49,282.743 81.444,282.712 C81.875,282.62 82.367,282.604 82.552,282.604 C83.707,282.604 84.23,283.251 84.23,284.405 L84.23,284.929 L84.23,285.406 L84.23,286.854 C84.23,288.332 82.829,288.532 82.444,288.532 C81.659,288.532 81.059,287.993 81.059,287.315 C81.059,285.668 83.476,285.452 84.23,285.406 L84.23,285.406 L84.23,284.929 C83.153,284.975 79.257,285.114 79.257,287.331 C79.257,288.809 81.151,289.086 82.213,289.086 C83.445,289.086 84.153,288.455 84.492,287.808 z" fill="#000000" id="path12557"/>
      <path d="M90.774,278.37 L88.064,278.493 L88.064,279.217 C89.019,279.217 89.127,279.217 89.127,279.802 L89.127,288.27 L88.064,288.27 L88.064,288.994 C88.557,288.978 89.28,288.932 89.943,288.932 C90.605,288.932 91.313,288.978 91.836,288.994 L91.836,288.27 L90.774,288.27 z" fill="#000000" id="path12559"/>
      <path d="M109.866,278.755 L109.866,278.724 L109.866,278.693 L109.866,278.678 L109.866,278.647 L109.866,278.632 L109.866,278.601 L109.866,278.586 L109.866,278.57 L109.866,278.539 L109.866,278.524 L109.85,278.509 L109.85,278.493 L109.85,278.478 L109.85,278.462 L109.835,278.447 L109.835,278.432 L109.819,278.416 L109.819,278.401 L109.804,278.401 L109.804,278.385 L109.789,278.37 L109.773,278.37 L109.758,278.355 L109.758,278.355 L109.742,278.339 L109.727,278.339 L109.712,278.339 L109.712,278.339 L109.696,278.339 L109.696,278.339 L109.681,278.339 L109.665,278.324 L109.665,278.324 L109.65,278.324 L109.635,278.324 L109.635,278.324 L109.619,278.324 L109.604,278.324 L109.588,278.324 C109.45,278.324 109.419,278.355 109.296,278.462 L108.295,279.371 C107.341,278.601 106.309,278.324 105.277,278.324 C101.459,278.324 99.119,280.603 99.119,283.743 C99.119,286.869 101.459,289.148 105.277,289.148 C108.141,289.148 109.866,287.269 109.866,285.514 C109.866,285.206 109.758,285.191 109.496,285.191 C109.296,285.191 109.157,285.191 109.142,285.452 C109.034,287.5 107.187,288.439 105.647,288.439 C104.446,288.439 103.153,288.07 102.367,287.131 C101.644,286.268 101.459,285.114 101.459,283.743 C101.459,282.881 101.505,281.234 102.475,280.218 C103.461,279.217 104.8,279.048 105.601,279.048 C107.248,279.048 108.695,280.202 109.034,282.158 C109.08,282.435 109.096,282.466 109.45,282.466 C109.85,282.466 109.866,282.435 109.866,282.05 z" fill="#000000" id="path12561"/>
      <path d="M116.594,287.808 L116.594,287.9 L116.594,287.993 L116.594,288.039 L116.594,288.085 L116.609,288.147 L116.609,288.193 L116.625,288.239 L116.64,288.285 L116.655,288.347 L116.671,288.393 L116.702,288.439 L116.717,288.486 L116.748,288.532 L116.794,288.578 L116.825,288.624 L116.871,288.655 L116.917,288.701 L116.948,288.716 L116.979,288.732 L117.01,288.763 L117.04,288.778 L117.071,288.793 L117.102,288.809 L117.148,288.824 L117.179,288.84 L117.225,288.855 L117.256,288.87 L117.302,288.886 L117.348,288.901 L117.394,288.901 L117.441,288.917 L117.487,288.932 L117.548,288.932 L117.595,288.947 L117.656,288.947 L117.718,288.963 L117.779,288.963 L117.841,288.978 L117.902,288.978 L117.964,288.978 L118.041,288.978 L118.103,288.978 L118.18,288.994 L118.919,288.994 C119.227,288.994 119.411,288.994 119.411,288.624 C119.411,288.27 119.211,288.27 119.011,288.27 C118.072,288.255 118.072,288.054 118.072,287.7 L118.072,284.405 C118.072,283.051 116.979,282.065 114.7,282.065 C113.822,282.065 111.959,282.111 111.959,283.466 C111.959,284.144 112.498,284.421 112.914,284.421 C113.391,284.421 113.869,284.113 113.869,283.466 C113.869,283.004 113.591,282.743 113.545,282.712 C113.961,282.62 114.454,282.604 114.638,282.604 C115.793,282.604 116.332,283.251 116.332,284.405 L116.332,284.929 L116.332,285.406 L116.332,286.854 C116.332,288.332 114.916,288.532 114.531,288.532 C113.761,288.532 113.145,287.993 113.145,287.315 C113.145,285.668 115.562,285.452 116.332,285.406 L116.332,285.406 L116.332,284.929 C115.239,284.975 111.344,285.114 111.344,287.331 C111.344,288.809 113.253,289.086 114.3,289.086 C115.531,289.086 116.255,288.455 116.594,287.808 z" fill="#000000" id="path12563"/>
      <path d="M122.799,288.393 L122.86,288.439 L122.922,288.486 L122.983,288.532 L123.045,288.578 L123.107,288.609 L123.168,288.655 L123.23,288.686 L123.291,288.716 L123.353,288.763 L123.414,288.793 L123.491,288.809 L123.553,288.84 L123.615,288.87 L123.676,288.886 L123.738,288.917 L123.799,288.932 L123.861,288.947 L123.923,288.978 L124.046,289.009 L124.169,289.024 L124.292,289.04 L124.4,289.055 L124.523,289.071 L124.646,289.071 L124.769,289.086 L124.6,288.532 C124.384,288.532 123.661,288.532 122.968,287.7 C122.799,287.5 122.799,287.485 122.799,287.192 L122.799,283.959 C122.799,283.666 122.814,283.651 123.03,283.436 C123.645,282.804 124.446,282.712 124.785,282.712 C125.801,282.712 126.663,283.651 126.663,285.576 C126.663,287.731 125.585,288.532 124.6,288.532 L124.769,289.086 C127.063,289.086 128.618,287.7 128.618,285.576 C128.618,283.543 127.233,282.096 125.031,282.096 C123.876,282.096 123.06,282.573 122.706,282.85 L122.706,282.096 L119.996,282.219 L119.996,282.943 C120.951,282.943 121.059,282.943 121.059,283.528 L121.059,291.226 L119.996,291.226 L119.996,291.95 C120.428,291.934 121.351,291.904 121.921,291.904 C122.521,291.904 123.43,291.934 123.861,291.95 L123.861,291.226 L122.799,291.226 z" fill="#000000" id="path12565"/>
      <path d="M134.962,287.808 L134.962,287.9 L134.962,287.993 L134.962,288.039 L134.977,288.085 L134.977,288.147 L134.993,288.193 L134.993,288.239 L135.008,288.285 L135.023,288.347 L135.039,288.393 L135.07,288.439 L135.1,288.486 L135.131,288.532 L135.162,288.578 L135.208,288.624 L135.239,288.655 L135.301,288.701 L135.316,288.716 L135.347,288.732 L135.377,288.763 L135.408,288.778 L135.439,288.793 L135.485,288.809 L135.516,288.824 L135.547,288.84 L135.593,288.855 L135.639,288.87 L135.67,288.886 L135.716,288.901 L135.762,288.901 L135.809,288.917 L135.87,288.932 L135.916,288.932 L135.978,288.947 L136.024,288.947 L136.086,288.963 L136.147,288.963 L136.209,288.978 L136.27,288.978 L136.347,288.978 L136.409,288.978 L136.486,288.978 L136.548,288.994 L137.287,288.994 C137.595,288.994 137.779,288.994 137.779,288.624 C137.779,288.27 137.579,288.27 137.379,288.27 C136.44,288.255 136.44,288.054 136.44,287.7 L136.44,284.405 C136.44,283.051 135.362,282.065 133.083,282.065 C132.206,282.065 130.327,282.111 130.327,283.466 C130.327,284.144 130.866,284.421 131.282,284.421 C131.759,284.421 132.252,284.113 132.252,283.466 C132.252,283.004 131.959,282.743 131.913,282.712 C132.344,282.62 132.837,282.604 133.022,282.604 C134.161,282.604 134.7,283.251 134.7,284.405 L134.7,284.929 L134.7,285.406 L134.7,286.854 C134.7,288.332 133.299,288.532 132.914,288.532 C132.129,288.532 131.513,287.993 131.513,287.315 C131.513,285.668 133.93,285.452 134.7,285.406 L134.7,285.406 L134.7,284.929 C133.607,284.975 129.727,285.114 129.727,287.331 C129.727,288.809 131.621,289.086 132.683,289.086 C133.899,289.086 134.623,288.455 134.962,287.808 z" fill="#000000" id="path12567"/>
      <path d="M143.337,282.758 L143.307,282.789 L143.291,282.804 L143.26,282.835 L143.245,282.85 L143.23,282.881 L143.199,282.912 L143.184,282.927 L143.168,282.958 L143.153,282.974 L143.137,283.004 L143.137,283.035 L143.122,283.051 L143.107,283.081 L143.091,283.097 L143.091,283.128 L143.076,283.158 L143.076,283.174 L143.06,283.205 L143.06,283.22 L143.06,283.251 L143.045,283.266 L143.045,283.297 L143.045,283.312 L143.045,283.328 L143.03,283.343 L143.03,283.374 L143.03,283.389 L143.03,283.405 L143.03,283.42 L143.03,283.436 L143.03,283.451 L143.03,283.466 C143.03,284.144 143.568,284.421 143.984,284.421 C144.461,284.421 144.939,284.113 144.939,283.466 C144.939,282.158 143.168,282.065 142.275,282.065 C139.535,282.065 138.411,283.82 138.411,285.591 C138.411,287.623 139.842,289.086 142.198,289.086 C144.677,289.086 145.139,287.3 145.139,287.192 C145.139,286.977 144.923,286.977 144.769,286.977 C144.508,286.977 144.492,287.008 144.415,287.208 C144.015,288.178 143.276,288.47 142.491,288.47 C140.366,288.47 140.366,286.222 140.366,285.514 C140.366,284.652 140.366,282.666 142.337,282.666 C142.876,282.666 143.137,282.712 143.337,282.758 z" fill="#000000" id="path12569"/>
      <path d="M149.096,282.096 L146.432,282.219 L146.432,282.943 C147.325,282.943 147.433,282.943 147.433,283.543 L147.433,288.27 L146.386,288.27 L146.386,288.994 C146.863,288.978 147.602,288.932 148.249,288.932 C148.711,288.932 149.496,288.978 150.05,288.994 L150.05,288.27 L149.096,288.27 z" fill="#000000" id="path12571"/>
      <path d="M149.25,279.556 L149.25,279.494 L149.234,279.432 L149.234,279.371 L149.219,279.309 L149.204,279.248 L149.188,279.186 L149.173,279.14 L149.157,279.078 L149.127,279.032 L149.096,278.971 L149.065,278.924 L149.034,278.878 L149.003,278.832 L148.973,278.786 L148.926,278.74 L148.896,278.693 L148.849,278.663 L148.803,278.632 L148.757,278.586 L148.711,278.555 L148.665,278.524 L148.618,278.493 L148.557,278.478 L148.511,278.447 L148.449,278.432 L148.403,278.416 L148.341,278.385 L148.295,278.385 L148.234,278.37 L148.172,278.355 L148.11,278.355 L148.049,278.355 C147.387,278.355 146.863,278.894 146.863,279.556 C146.863,280.202 147.387,280.741 148.049,280.741 C148.695,280.741 149.25,280.218 149.25,279.556 z" fill="#000000" id="path12573"/>
      <path d="M152.144,282.912 L152.144,287.1 C152.144,288.747 153.468,289.086 154.561,289.086 C155.716,289.086 156.409,288.208 156.409,287.084 L156.409,286.284 L155.685,286.284 L155.685,287.054 C155.685,288.101 155.208,288.47 154.777,288.47 C153.884,288.47 153.884,287.485 153.884,287.131 L153.884,282.912 L156.117,282.912 L156.117,282.188 L153.884,282.188 L153.884,279.278 L153.16,279.278 C153.145,280.803 152.406,282.312 150.882,282.358 L150.882,282.912 z" fill="#000000" id="path12575"/>
      <path d="M164.677,283.235 L164.692,283.189 L164.723,283.158 L164.723,283.143 L164.739,283.128 L164.754,283.112 L164.769,283.097 L164.785,283.081 L164.8,283.066 L164.816,283.051 L164.831,283.035 L164.846,283.02 L164.877,283.02 L164.893,283.004 L164.923,282.989 L164.954,282.989 L164.985,282.974 L165.016,282.974 L165.046,282.958 L165.093,282.958 L165.123,282.943 L165.139,282.943 L165.17,282.943 L165.185,282.943 L165.216,282.943 L165.231,282.927 L165.262,282.927 L165.293,282.927 L165.324,282.927 L165.354,282.927 L165.385,282.927 L165.416,282.927 L165.447,282.927 L165.493,282.912 L165.524,282.912 L165.57,282.912 L165.601,282.912 L165.647,282.912 L165.678,282.912 L165.724,282.912 L165.77,282.912 L165.816,282.912 L165.816,282.188 C165.447,282.219 164.985,282.235 164.6,282.235 C164.215,282.235 163.538,282.204 163.214,282.188 L163.214,282.912 C163.245,282.912 163.923,282.912 163.923,283.097 C163.923,283.112 163.861,283.266 163.861,283.282 L162.09,287.038 L160.15,282.912 L160.982,282.912 L160.982,282.188 C160.474,282.219 159.088,282.235 159.073,282.235 C158.642,282.235 157.949,282.204 157.333,282.188 L157.333,282.912 L158.303,282.912 L161.167,288.994 L160.828,289.717 C160.489,290.456 159.996,291.488 158.903,291.488 C158.688,291.488 158.657,291.472 158.534,291.426 C158.672,291.38 159.026,291.165 159.026,290.626 C159.026,290.118 158.657,289.748 158.133,289.748 C157.702,289.748 157.271,290.041 157.271,290.641 C157.271,291.411 157.995,292.042 158.903,292.042 C160.089,292.042 160.982,291.103 161.382,290.225 z" fill="#000000" id="path12577"/>
      <path d="M169.866,283.389 L169.866,283.328 L169.866,283.266 L169.85,283.205 L169.85,283.143 L169.835,283.097 L169.819,283.035 L169.789,282.974 L169.773,282.927 L169.758,282.866 L169.727,282.82 L169.696,282.773 L169.665,282.727 L169.635,282.681 L169.588,282.635 L169.558,282.589 L169.511,282.543 L169.481,282.512 L169.434,282.466 L169.388,282.435 L169.342,282.404 L169.296,282.373 L169.25,282.342 L169.188,282.312 L169.142,282.296 L169.08,282.265 L169.034,282.25 L168.973,282.235 L168.911,282.219 L168.849,282.204 L168.803,282.204 L168.742,282.204 L168.68,282.188 C168.018,282.188 167.479,282.727 167.479,283.389 C167.479,284.051 168.018,284.575 168.68,284.575 C169.327,284.575 169.866,284.051 169.866,283.389 z" fill="#000000" id="path12579"/>
      <path d="M169.866,287.793 L169.866,287.731 L169.866,287.67 L169.85,287.608 L169.85,287.546 L169.835,287.5 L169.819,287.439 L169.789,287.377 L169.773,287.331 L169.758,287.269 L169.727,287.223 L169.696,287.177 L169.665,287.131 L169.635,287.084 L169.588,287.038 L169.558,286.992 L169.511,286.946 L169.481,286.915 L169.434,286.869 L169.388,286.838 L169.342,286.807 L169.296,286.777 L169.25,286.746 L169.188,286.715 L169.142,286.7 L169.08,286.669 L169.034,286.653 L168.973,286.638 L168.911,286.623 L168.849,286.607 L168.803,286.607 L168.742,286.607 L168.68,286.607 C168.018,286.607 167.479,287.131 167.479,287.793 C167.479,288.455 168.018,288.994 168.68,288.994 C169.327,288.994 169.866,288.455 169.866,287.793 z" fill="#000000" id="path12581"/>
      <path d="M185,283.328 L185.093,283.282 L185.185,283.22 L185.277,283.174 L185.37,283.112 L185.462,283.066 L185.539,283.004 L185.616,282.943 L185.693,282.897 L185.755,282.835 L185.832,282.773 L185.893,282.712 L185.955,282.65 L186.016,282.589 L186.078,282.527 L186.124,282.466 L186.17,282.404 L186.217,282.327 L186.263,282.265 L186.294,282.204 L186.34,282.127 L186.371,282.065 L186.401,281.988 L186.432,281.911 L186.448,281.85 L186.478,281.773 L186.494,281.696 L186.509,281.619 L186.525,281.542 L186.525,281.465 L186.54,281.388 L186.54,281.295 L186.54,281.218 C186.54,279.663 185.154,278.971 183.399,278.971 L183.337,279.571 C184.631,279.571 185.401,280.187 185.401,281.234 C185.401,281.988 185,282.496 184.323,282.943 L182.029,281.665 C181.782,281.526 181.351,281.265 181.351,280.741 C181.351,279.679 182.722,279.571 183.337,279.571 L183.399,278.971 C181.274,278.971 180.197,280.171 180.197,281.65 C180.197,282.312 180.474,283.282 181.675,283.959 C180.381,284.513 179.704,285.391 179.704,286.53 C179.704,288.378 181.367,289.148 183.337,289.148 L183.399,288.501 C181.906,288.501 181.028,287.716 181.028,286.53 C181.028,285.329 181.844,284.667 182.383,284.375 L182.383,284.375 C182.906,284.636 183.63,285.052 184.477,285.529 C185.154,285.914 185.709,286.238 185.709,286.961 C185.709,288.255 184.277,288.501 183.399,288.501 L183.337,289.148 C185.801,289.148 187.033,287.808 187.033,286.13 C187.033,284.482 185.755,283.759 185,283.328 z" fill="#000000" id="path12583"/>
      <path d="M195.901,284.113 L195.901,283.959 L195.901,283.805 L195.901,283.636 L195.886,283.466 L195.886,283.282 L195.87,283.081 L195.855,282.881 L195.839,282.681 L195.809,282.466 L195.778,282.265 L195.747,282.05 L195.701,281.834 L195.639,281.619 L195.578,281.403 L195.516,281.188 L195.424,280.987 L195.331,280.772 L195.239,280.572 L195.116,280.387 L194.993,280.202 L194.839,280.033 L194.685,279.864 L194.608,279.787 L194.515,279.71 L194.423,279.633 L194.331,279.556 L194.223,279.494 L194.13,279.432 L194.023,279.371 L193.899,279.309 L193.792,279.263 L193.669,279.217 L193.545,279.171 L193.407,279.124 L193.284,279.094 L193.13,279.063 L192.991,279.032 L192.837,279.001 L192.683,278.986 L192.529,278.971 L192.36,278.971 L192.19,278.971 C188.495,278.971 188.48,282.604 188.48,284.113 C188.48,285.622 188.495,289.148 192.19,289.148 L192.19,288.609 C191.636,288.609 190.789,288.27 190.589,287.146 C190.451,286.361 190.451,284.76 190.451,283.928 C190.451,282.82 190.451,281.834 190.574,281.034 C190.759,279.679 191.821,279.525 192.19,279.525 C192.76,279.525 193.391,279.802 193.684,280.479 C193.93,281.049 193.93,282.666 193.93,283.928 C193.93,284.775 193.93,286.176 193.838,286.961 C193.622,288.393 192.652,288.609 192.19,288.609 L192.19,288.609 L192.19,289.148 C195.87,289.148 195.901,285.637 195.901,284.113 z" fill="#000000" id="path12585"/>
    </g>
    <g id="Layer_1">
      <path d="M301.428,30.518 C301.488,30.252 301.609,29.805 301.609,29.733 C301.609,29.515 301.44,29.407 301.258,29.407 C301.113,29.407 300.896,29.503 300.812,29.745 C300.776,29.83 300.208,32.136 300.124,32.45 C300.039,32.812 300.015,33.029 300.015,33.247 C300.015,33.38 300.015,33.403 300.027,33.464 C299.749,34.104 299.387,34.478 298.916,34.478 C297.95,34.478 297.95,33.585 297.95,33.38 C297.95,32.993 298.01,32.522 298.578,31.037 C298.711,30.675 298.783,30.506 298.783,30.264 C298.783,29.721 298.385,29.274 297.793,29.274 C296.646,29.274 296.2,31.025 296.2,31.133 C296.2,31.254 296.32,31.254 296.344,31.254 C296.465,31.254 296.477,31.23 296.537,31.037 C296.864,29.914 297.334,29.54 297.757,29.54 C297.866,29.54 298.059,29.552 298.059,29.938 C298.059,30.24 297.926,30.578 297.842,30.784 C297.31,32.208 297.165,32.763 297.165,33.223 C297.165,34.321 297.974,34.744 298.88,34.744 C299.085,34.744 299.652,34.744 300.136,33.899 C300.449,34.671 301.283,34.744 301.645,34.744 C302.551,34.744 303.082,33.983 303.396,33.259 C303.806,32.317 304.193,30.699 304.193,30.12 C304.193,29.455 303.867,29.274 303.661,29.274 C303.36,29.274 303.058,29.588 303.058,29.854 C303.058,30.011 303.13,30.083 303.239,30.179 C303.372,30.312 303.673,30.626 303.673,31.206 C303.673,31.617 303.323,32.8 303.009,33.415 C302.696,34.056 302.273,34.478 301.681,34.478 C301.113,34.478 300.788,34.116 300.788,33.427 C300.788,33.09 300.872,32.715 300.921,32.547 L301.428,30.518" fill="#000000"/>
      <path d="M307.313,31.067 C307.313,30.84 307.296,30.831 307.06,30.831 C306.521,31.362 305.754,31.371 305.408,31.371 L305.408,31.674 C305.61,31.674 306.167,31.674 306.63,31.438 L306.63,35.736 C306.63,36.014 306.63,36.123 305.787,36.123 L305.467,36.123 L305.467,36.427 C305.619,36.418 306.655,36.393 306.967,36.393 C307.228,36.393 308.29,36.418 308.475,36.427 L308.475,36.123 L308.155,36.123 C307.313,36.123 307.313,36.014 307.313,35.736 L307.313,31.067" fill="#000000"/>
      <path d="M321.526,30.663 C321.708,30.663 321.937,30.663 321.937,30.421 C321.937,30.179 321.708,30.179 321.539,30.179 L314.306,30.179 C314.137,30.179 313.907,30.179 313.907,30.421 C313.907,30.663 314.137,30.663 314.318,30.663 L321.526,30.663 z M321.539,33.005 C321.708,33.005 321.937,33.005 321.937,32.763 C321.937,32.522 321.708,32.522 321.526,32.522 L314.318,32.522 C314.137,32.522 313.907,32.522 313.907,32.763 C313.907,33.005 314.137,33.005 314.306,33.005 L321.539,33.005" fill="#000000"/>
      <path d="M329.475,30.361 C330.465,30.035 331.166,29.19 331.166,28.236 C331.166,27.245 330.103,26.569 328.943,26.569 C327.724,26.569 326.806,27.294 326.806,28.212 C326.806,28.61 327.072,28.839 327.422,28.839 C327.797,28.839 328.038,28.573 328.038,28.224 C328.038,27.62 327.47,27.62 327.289,27.62 C327.664,27.028 328.461,26.871 328.895,26.871 C329.391,26.871 330.054,27.137 330.054,28.224 C330.054,28.369 330.03,29.069 329.716,29.6 C329.354,30.179 328.943,30.216 328.642,30.228 C328.545,30.24 328.255,30.264 328.171,30.264 C328.074,30.276 327.99,30.288 327.99,30.409 C327.99,30.542 328.074,30.542 328.279,30.542 L328.811,30.542 C329.801,30.542 330.248,31.363 330.248,32.547 C330.248,34.189 329.415,34.539 328.883,34.539 C328.364,34.539 327.458,34.333 327.036,33.621 C327.458,33.681 327.833,33.415 327.833,32.957 C327.833,32.522 327.507,32.281 327.157,32.281 C326.867,32.281 326.48,32.45 326.48,32.981 C326.48,34.08 327.603,34.877 328.919,34.877 C330.393,34.877 331.491,33.778 331.491,32.547 C331.491,31.556 330.731,30.614 329.475,30.361" fill="#000000"/>
      <path d="M337.546,30.747 C337.546,29.781 337.485,28.815 337.063,27.922 C336.507,26.763 335.517,26.569 335.01,26.569 C334.285,26.569 333.404,26.884 332.909,28.006 C332.523,28.839 332.462,29.781 332.462,30.747 C332.462,31.653 332.51,32.739 333.006,33.657 C333.525,34.635 334.406,34.877 334.998,34.877 C335.65,34.877 336.567,34.623 337.099,33.476 C337.485,32.643 337.546,31.701 337.546,30.747 z M334.998,34.611 C334.527,34.611 333.815,34.309 333.597,33.15 C333.464,32.426 333.464,31.315 333.464,30.602 C333.464,29.83 333.464,29.033 333.561,28.381 C333.791,26.943 334.696,26.835 334.998,26.835 C335.396,26.835 336.193,27.052 336.423,28.248 C336.543,28.924 336.543,29.842 336.543,30.602 C336.543,31.508 336.543,32.329 336.411,33.102 C336.23,34.249 335.541,34.611 334.998,34.611" fill="#000000"/>
      <path d="M302.198,44.452 C302.198,44.44 302.198,44.319 302.041,44.319 C301.763,44.319 300.882,44.416 300.568,44.44 C300.471,44.452 300.339,44.464 300.339,44.681 C300.339,44.826 300.447,44.826 300.628,44.826 C301.208,44.826 301.232,44.911 301.232,45.031 C301.232,45.116 301.123,45.527 301.063,45.78 L300.073,49.717 C299.928,50.32 299.879,50.514 299.879,50.936 C299.879,52.083 300.52,52.832 301.413,52.832 C302.838,52.832 304.323,51.033 304.323,49.294 C304.323,48.195 303.683,47.362 302.717,47.362 C302.161,47.362 301.667,47.712 301.305,48.087 L302.198,44.452 z M301.063,49.016 C301.135,48.751 301.135,48.726 301.244,48.594 C301.836,47.809 302.379,47.627 302.693,47.627 C303.128,47.627 303.454,47.99 303.454,48.763 C303.454,49.475 303.055,50.863 302.838,51.323 C302.439,52.132 301.884,52.566 301.413,52.566 C301.003,52.566 300.604,52.24 300.604,51.347 C300.604,51.117 300.604,50.888 300.797,50.127 L301.063,49.016" fill="#000000"/>
      <path d="M307.313,49.155 C307.313,48.928 307.296,48.919 307.06,48.919 C306.521,49.45 305.754,49.459 305.408,49.459 L305.408,49.762 C305.61,49.762 306.167,49.762 306.63,49.526 L306.63,53.824 C306.63,54.102 306.63,54.211 305.787,54.211 L305.467,54.211 L305.467,54.514 C305.619,54.506 306.655,54.481 306.967,54.481 C307.228,54.481 308.29,54.506 308.475,54.514 L308.475,54.211 L308.155,54.211 C307.313,54.211 307.313,54.102 307.313,53.824 L307.313,49.155" fill="#000000"/>
      <path d="M321.526,48.751 C321.708,48.751 321.937,48.751 321.937,48.509 C321.937,48.267 321.708,48.267 321.539,48.267 L314.306,48.267 C314.137,48.267 313.907,48.267 313.907,48.509 C313.907,48.751 314.137,48.751 314.318,48.751 L321.526,48.751 z M321.539,51.093 C321.708,51.093 321.937,51.093 321.937,50.851 C321.937,50.61 321.708,50.61 321.526,50.61 L314.318,50.61 C314.137,50.61 313.907,50.61 313.907,50.851 C313.907,51.093 314.137,51.093 314.306,51.093 L321.539,51.093" fill="#000000"/>
      <path d="M329.475,48.449 C330.465,48.123 331.166,47.278 331.166,46.324 C331.166,45.333 330.103,44.657 328.943,44.657 C327.724,44.657 326.806,45.382 326.806,46.299 C326.806,46.698 327.072,46.927 327.422,46.927 C327.797,46.927 328.038,46.661 328.038,46.312 C328.038,45.708 327.47,45.708 327.289,45.708 C327.664,45.116 328.461,44.959 328.895,44.959 C329.391,44.959 330.054,45.225 330.054,46.312 C330.054,46.457 330.03,47.157 329.716,47.688 C329.354,48.267 328.943,48.304 328.642,48.316 C328.545,48.328 328.255,48.352 328.171,48.352 C328.074,48.364 327.99,48.376 327.99,48.497 C327.99,48.63 328.074,48.63 328.279,48.63 L328.811,48.63 C329.801,48.63 330.248,49.451 330.248,50.634 C330.248,52.277 329.415,52.626 328.883,52.626 C328.364,52.626 327.458,52.421 327.036,51.709 C327.458,51.769 327.833,51.503 327.833,51.045 C327.833,50.61 327.507,50.369 327.157,50.369 C326.867,50.369 326.48,50.538 326.48,51.069 C326.48,52.168 327.603,52.965 328.919,52.965 C330.393,52.965 331.491,51.866 331.491,50.634 C331.491,49.644 330.731,48.702 329.475,48.449" fill="#000000"/>
      <path d="M335.541,50.706 L335.541,51.757 C335.541,52.192 335.517,52.324 334.624,52.324 L334.37,52.324 L334.37,52.699 C334.865,52.663 335.493,52.663 336,52.663 C336.507,52.663 337.147,52.663 337.642,52.699 L337.642,52.324 L337.388,52.324 C336.495,52.324 336.471,52.192 336.471,51.757 L336.471,50.706 L337.679,50.706 L337.679,50.332 L336.471,50.332 L336.471,44.839 C336.471,44.597 336.471,44.524 336.278,44.524 C336.169,44.524 336.133,44.524 336.036,44.669 L332.33,50.332 L332.33,50.706 L335.541,50.706 z M335.614,50.332 L332.667,50.332 L335.614,45.828 L335.614,50.332 z" fill="#000000"/>
    </g>
    <g id="Layer_1">
      <path d="M432.52,151.904 C432.58,151.639 432.701,151.192 432.701,151.12 C432.701,150.902 432.532,150.793 432.351,150.793 C432.206,150.793 431.989,150.89 431.904,151.132 C431.868,151.216 431.3,153.522 431.216,153.837 C431.131,154.198 431.107,154.416 431.107,154.633 C431.107,154.766 431.107,154.79 431.119,154.85 C430.841,155.491 430.479,155.865 430.008,155.865 C429.042,155.865 429.042,154.971 429.042,154.766 C429.042,154.38 429.103,153.909 429.67,152.423 C429.803,152.061 429.875,151.892 429.875,151.651 C429.875,151.108 429.477,150.661 428.886,150.661 C427.738,150.661 427.292,152.411 427.292,152.52 C427.292,152.641 427.412,152.641 427.436,152.641 C427.557,152.641 427.569,152.617 427.629,152.423 C427.956,151.301 428.426,150.926 428.849,150.926 C428.958,150.926 429.151,150.938 429.151,151.325 C429.151,151.627 429.018,151.965 428.934,152.17 C428.402,153.595 428.257,154.15 428.257,154.609 C428.257,155.708 429.066,156.131 429.972,156.131 C430.177,156.131 430.745,156.131 431.228,155.285 C431.542,156.058 432.375,156.131 432.737,156.131 C433.643,156.131 434.174,155.37 434.488,154.646 C434.898,153.704 435.285,152.086 435.285,151.506 C435.285,150.842 434.959,150.661 434.753,150.661 C434.452,150.661 434.15,150.975 434.15,151.24 C434.15,151.397 434.222,151.47 434.331,151.566 C434.464,151.699 434.765,152.013 434.765,152.593 C434.765,153.003 434.416,154.186 434.101,154.802 C433.788,155.442 433.365,155.865 432.773,155.865 C432.206,155.865 431.88,155.503 431.88,154.814 C431.88,154.476 431.964,154.102 432.013,153.933 L432.52,151.904" fill="#000000"/>
      <path d="M439.837,156.28 L439.551,156.28 C439.525,156.465 439.441,156.962 439.332,157.046 C439.264,157.097 438.616,157.097 438.497,157.097 L436.947,157.097 C437.832,156.313 438.126,156.078 438.632,155.682 C439.256,155.184 439.837,154.662 439.837,153.861 C439.837,152.842 438.944,152.218 437.865,152.218 C436.821,152.218 436.113,152.951 436.113,153.726 C436.113,154.156 436.475,154.199 436.559,154.199 C436.762,154.199 437.006,154.055 437.006,153.751 C437.006,153.6 436.947,153.305 436.509,153.305 C436.77,152.707 437.343,152.521 437.739,152.521 C438.581,152.521 439.02,153.179 439.02,153.861 C439.02,154.594 438.497,155.176 438.228,155.479 L436.197,157.484 C436.113,157.561 436.113,157.577 436.113,157.813 L439.584,157.813 L439.837,156.28" fill="#000000"/>
      <path d="M452.619,152.049 C452.8,152.049 453.029,152.049 453.029,151.808 C453.029,151.566 452.8,151.566 452.631,151.566 L445.398,151.566 C445.229,151.566 444.999,151.566 444.999,151.808 C444.999,152.049 445.229,152.049 445.41,152.049 L452.619,152.049 z M452.631,154.392 C452.8,154.392 453.029,154.392 453.029,154.15 C453.029,153.909 452.8,153.909 452.619,153.909 L445.41,153.909 C445.229,153.909 444.999,153.909 444.999,154.15 C444.999,154.392 445.229,154.392 445.398,154.392 L452.631,154.392" fill="#000000"/>
      <path d="M460.616,154.005 L460.616,155.056 C460.616,155.491 460.591,155.623 459.698,155.623 L459.444,155.623 L459.444,155.998 C459.939,155.961 460.567,155.961 461.074,155.961 C461.581,155.961 462.221,155.961 462.716,155.998 L462.716,155.623 L462.463,155.623 C461.569,155.623 461.545,155.491 461.545,155.056 L461.545,154.005 L462.753,154.005 L462.753,153.631 L461.545,153.631 L461.545,148.137 C461.545,147.896 461.545,147.823 461.352,147.823 C461.243,147.823 461.207,147.823 461.11,147.968 L457.404,153.631 L457.404,154.005 L460.616,154.005 z M460.688,153.631 L457.742,153.631 L460.688,149.127 L460.688,153.631 z" fill="#000000"/>
      <path d="M468.638,152.134 C468.638,151.168 468.577,150.202 468.155,149.308 C467.599,148.149 466.61,147.956 466.102,147.956 C465.377,147.956 464.496,148.27 464.001,149.393 C463.615,150.226 463.554,151.168 463.554,152.134 C463.554,153.04 463.603,154.126 464.098,155.044 C464.617,156.022 465.499,156.264 466.09,156.264 C466.742,156.264 467.66,156.01 468.191,154.863 C468.577,154.029 468.638,153.088 468.638,152.134 z M466.09,155.998 C465.619,155.998 464.907,155.696 464.69,154.537 C464.556,153.812 464.556,152.701 464.556,151.989 C464.556,151.216 464.556,150.419 464.653,149.767 C464.883,148.33 465.788,148.222 466.09,148.222 C466.489,148.222 467.285,148.439 467.515,149.635 C467.635,150.311 467.635,151.228 467.635,151.989 C467.635,152.895 467.635,153.716 467.503,154.488 C467.322,155.635 466.634,155.998 466.09,155.998" fill="#000000"/>
      <path d="M433.29,165.839 C433.29,165.827 433.29,165.706 433.133,165.706 C432.855,165.706 431.974,165.802 431.66,165.827 C431.564,165.839 431.431,165.851 431.431,166.068 C431.431,166.213 431.54,166.213 431.72,166.213 C432.3,166.213 432.324,166.298 432.324,166.418 C432.324,166.503 432.216,166.913 432.155,167.167 L431.165,171.103 C431.02,171.707 430.972,171.9 430.972,172.323 C430.972,173.47 431.612,174.219 432.505,174.219 C433.93,174.219 435.415,172.419 435.415,170.681 C435.415,169.582 434.775,168.749 433.809,168.749 C433.254,168.749 432.759,169.099 432.397,169.473 L433.29,165.839 z M432.155,170.403 C432.228,170.137 432.228,170.113 432.336,169.98 C432.928,169.195 433.471,169.014 433.785,169.014 C434.22,169.014 434.546,169.377 434.546,170.149 C434.546,170.862 434.147,172.25 433.93,172.709 C433.532,173.518 432.976,173.953 432.505,173.953 C432.095,173.953 431.696,173.627 431.696,172.733 C431.696,172.504 431.696,172.274 431.889,171.514 L432.155,170.403" fill="#000000"/>
      <path d="M439.837,174.368 L439.551,174.368 C439.525,174.553 439.441,175.05 439.332,175.134 C439.264,175.185 438.616,175.185 438.497,175.185 L436.947,175.185 C437.832,174.401 438.126,174.165 438.632,173.769 C439.256,173.272 439.837,172.75 439.837,171.949 C439.837,170.93 438.944,170.306 437.865,170.306 C436.821,170.306 436.113,171.039 436.113,171.814 C436.113,172.244 436.475,172.286 436.559,172.286 C436.762,172.286 437.006,172.143 437.006,171.839 C437.006,171.688 436.947,171.393 436.509,171.393 C436.77,170.794 437.343,170.609 437.739,170.609 C438.581,170.609 439.02,171.267 439.02,171.949 C439.02,172.682 438.497,173.264 438.228,173.567 L436.197,175.572 C436.113,175.648 436.113,175.665 436.113,175.901 L439.584,175.901 L439.837,174.368" fill="#000000"/>
      <path d="M452.619,170.137 C452.8,170.137 453.029,170.137 453.029,169.896 C453.029,169.654 452.8,169.654 452.631,169.654 L445.398,169.654 C445.229,169.654 444.999,169.654 444.999,169.896 C444.999,170.137 445.229,170.137 445.41,170.137 L452.619,170.137 z M452.631,172.48 C452.8,172.48 453.029,172.48 453.029,172.238 C453.029,171.997 452.8,171.997 452.619,171.997 L445.41,171.997 C445.229,171.997 444.999,171.997 444.999,172.238 C444.999,172.48 445.229,172.48 445.398,172.48 L452.631,172.48" fill="#000000"/>
      <path d="M460.616,172.093 L460.616,173.144 C460.616,173.579 460.591,173.711 459.698,173.711 L459.444,173.711 L459.444,174.086 C459.939,174.049 460.567,174.049 461.074,174.049 C461.581,174.049 462.221,174.049 462.716,174.086 L462.716,173.711 L462.463,173.711 C461.569,173.711 461.545,173.579 461.545,173.144 L461.545,172.093 L462.753,172.093 L462.753,171.719 L461.545,171.719 L461.545,166.225 C461.545,165.984 461.545,165.911 461.352,165.911 C461.243,165.911 461.207,165.911 461.11,166.056 L457.404,171.719 L457.404,172.093 L460.616,172.093 z M460.688,171.719 L457.742,171.719 L460.688,167.215 L460.688,171.719 z" fill="#000000"/>
      <path d="M468.638,170.222 C468.638,169.256 468.577,168.29 468.155,167.396 C467.599,166.237 466.61,166.044 466.102,166.044 C465.377,166.044 464.496,166.358 464.001,167.481 C463.615,168.314 463.554,169.256 463.554,170.222 C463.554,171.128 463.603,172.214 464.098,173.132 C464.617,174.11 465.499,174.351 466.09,174.351 C466.742,174.351 467.66,174.098 468.191,172.95 C468.577,172.117 468.638,171.176 468.638,170.222 z M466.09,174.086 C465.619,174.086 464.907,173.784 464.69,172.625 C464.556,171.9 464.556,170.789 464.556,170.077 C464.556,169.304 464.556,168.507 464.653,167.855 C464.883,166.418 465.788,166.31 466.09,166.31 C466.489,166.31 467.285,166.527 467.515,167.722 C467.635,168.399 467.635,169.316 467.635,170.077 C467.635,170.983 467.635,171.804 467.503,172.576 C467.322,173.723 466.634,174.086 466.09,174.086" fill="#000000"/>
    </g>
    <g id="Layer_1">
      <path d="M46.619,215.696 C46.679,215.431 46.8,214.984 46.8,214.912 C46.8,214.694 46.631,214.585 46.45,214.585 C46.305,214.585 46.088,214.682 46.003,214.924 C45.967,215.008 45.4,217.314 45.315,217.629 C45.231,217.991 45.206,218.208 45.206,218.426 C45.206,218.558 45.206,218.582 45.219,218.643 C44.941,219.283 44.579,219.657 44.107,219.657 C43.141,219.657 43.141,218.763 43.141,218.558 C43.141,218.172 43.202,217.701 43.77,216.215 C43.902,215.854 43.975,215.684 43.975,215.443 C43.975,214.9 43.576,214.453 42.985,214.453 C41.838,214.453 41.391,216.203 41.391,216.312 C41.391,216.433 41.511,216.433 41.535,216.433 C41.656,216.433 41.668,216.409 41.729,216.215 C42.055,215.093 42.526,214.718 42.949,214.718 C43.057,214.718 43.25,214.73 43.25,215.117 C43.25,215.419 43.117,215.757 43.033,215.962 C42.502,217.387 42.357,217.942 42.357,218.401 C42.357,219.5 43.166,219.923 44.071,219.923 C44.277,219.923 44.844,219.923 45.327,219.077 C45.641,219.85 46.474,219.923 46.837,219.923 C47.742,219.923 48.273,219.162 48.587,218.438 C48.998,217.496 49.384,215.878 49.384,215.298 C49.384,214.634 49.058,214.453 48.853,214.453 C48.551,214.453 48.249,214.767 48.249,215.032 C48.249,215.19 48.322,215.262 48.43,215.358 C48.563,215.491 48.865,215.805 48.865,216.385 C48.865,216.795 48.515,217.979 48.201,218.594 C47.887,219.235 47.464,219.657 46.873,219.657 C46.305,219.657 45.979,219.295 45.979,218.606 C45.979,218.268 46.064,217.894 46.112,217.725 L46.619,215.696" fill="#000000"/>
      <path d="M51.982,218.791 C52.639,218.791 53.111,219.246 53.111,220.148 C53.111,221.192 52.504,221.504 52.015,221.504 C51.678,221.504 50.937,221.411 50.583,220.915 C50.979,220.898 51.072,220.619 51.072,220.442 C51.072,220.173 50.869,219.979 50.608,219.979 C50.372,219.979 50.136,220.122 50.136,220.468 C50.136,221.26 51.012,221.774 52.032,221.774 C53.203,221.774 54.012,220.99 54.012,220.148 C54.012,219.49 53.473,218.833 52.546,218.639 C53.431,218.319 53.751,217.687 53.751,217.173 C53.751,216.507 52.984,216.01 52.049,216.01 C51.114,216.01 50.397,216.465 50.397,217.139 C50.397,217.426 50.583,217.586 50.836,217.586 C51.097,217.586 51.265,217.392 51.265,217.156 C51.265,216.912 51.097,216.735 50.836,216.718 C51.13,216.347 51.712,216.254 52.024,216.254 C52.403,216.254 52.934,216.44 52.934,217.173 C52.934,217.527 52.816,217.914 52.597,218.175 C52.319,218.496 52.083,218.513 51.662,218.538 C51.451,218.555 51.434,218.555 51.392,218.563 C51.375,218.563 51.308,218.58 51.308,218.673 C51.308,218.791 51.383,218.791 51.527,218.791 L51.982,218.791" fill="#000000"/>
      <path d="M66.718,215.841 C66.899,215.841 67.128,215.841 67.128,215.6 C67.128,215.358 66.899,215.358 66.73,215.358 L59.497,215.358 C59.328,215.358 59.099,215.358 59.099,215.6 C59.099,215.841 59.328,215.841 59.509,215.841 L66.718,215.841 z M66.73,218.184 C66.899,218.184 67.128,218.184 67.128,217.942 C67.128,217.701 66.899,217.701 66.718,217.701 L59.509,217.701 C59.328,217.701 59.099,217.701 59.099,217.942 C59.099,218.184 59.328,218.184 59.497,218.184 L66.73,218.184" fill="#000000"/>
      <path d="M72.698,218.86 L73.978,217.617 C75.861,215.95 76.586,215.298 76.586,214.091 C76.586,212.714 75.5,211.748 74.026,211.748 C72.662,211.748 71.768,212.859 71.768,213.934 C71.768,214.61 72.372,214.61 72.408,214.61 C72.614,214.61 73.036,214.465 73.036,213.97 C73.036,213.656 72.819,213.342 72.396,213.342 C72.3,213.342 72.276,213.342 72.24,213.354 C72.517,212.569 73.169,212.122 73.87,212.122 C74.968,212.122 75.488,213.1 75.488,214.091 C75.488,215.057 74.883,216.011 74.219,216.759 L71.901,219.343 C71.768,219.476 71.768,219.5 71.768,219.79 L76.248,219.79 L76.586,217.689 L76.284,217.689 C76.224,218.051 76.14,218.582 76.019,218.763 C75.934,218.86 75.137,218.86 74.871,218.86 L72.698,218.86" fill="#000000"/>
      <path d="M80.733,212.062 C80.733,211.772 80.733,211.748 80.455,211.748 C79.706,212.521 78.644,212.521 78.258,212.521 L78.258,212.895 C78.499,212.895 79.211,212.895 79.839,212.581 L79.839,218.836 C79.839,219.271 79.803,219.415 78.716,219.415 L78.33,219.415 L78.33,219.79 C78.753,219.754 79.803,219.754 80.286,219.754 C80.769,219.754 81.819,219.754 82.242,219.79 L82.242,219.415 L81.855,219.415 C80.769,219.415 80.733,219.283 80.733,218.836 L80.733,212.062" fill="#000000"/>
      <path d="M47.389,229.631 C47.389,229.619 47.389,229.498 47.233,229.498 C46.955,229.498 46.073,229.594 45.759,229.619 C45.663,229.631 45.53,229.643 45.53,229.86 C45.53,230.005 45.639,230.005 45.819,230.005 C46.399,230.005 46.424,230.09 46.424,230.21 C46.424,230.295 46.315,230.705 46.254,230.959 L45.264,234.895 C45.119,235.499 45.071,235.692 45.071,236.115 C45.071,237.262 45.711,238.011 46.604,238.011 C48.029,238.011 49.515,236.211 49.515,234.473 C49.515,233.374 48.875,232.541 47.909,232.541 C47.353,232.541 46.858,232.891 46.496,233.265 L47.389,229.631 z M46.254,234.195 C46.327,233.929 46.327,233.905 46.436,233.772 C47.027,232.987 47.57,232.806 47.885,232.806 C48.319,232.806 48.645,233.169 48.645,233.941 C48.645,234.654 48.246,236.042 48.029,236.501 C47.631,237.31 47.076,237.745 46.604,237.745 C46.194,237.745 45.795,237.419 45.795,236.526 C45.795,236.296 45.795,236.066 45.989,235.306 L46.254,234.195" fill="#000000"/>
      <path d="M51.982,236.879 C52.639,236.879 53.111,237.334 53.111,238.235 C53.111,239.28 52.504,239.592 52.015,239.592 C51.678,239.592 50.937,239.499 50.583,239.002 C50.979,238.986 51.072,238.707 51.072,238.53 C51.072,238.261 50.869,238.067 50.608,238.067 C50.372,238.067 50.136,238.21 50.136,238.556 C50.136,239.348 51.012,239.862 52.032,239.862 C53.203,239.862 54.012,239.078 54.012,238.235 C54.012,237.578 53.473,236.921 52.546,236.727 C53.431,236.407 53.751,235.775 53.751,235.261 C53.751,234.595 52.984,234.098 52.049,234.098 C51.114,234.098 50.397,234.553 50.397,235.227 C50.397,235.514 50.583,235.674 50.836,235.674 C51.097,235.674 51.265,235.48 51.265,235.244 C51.265,234.999 51.097,234.823 50.836,234.806 C51.13,234.435 51.712,234.342 52.024,234.342 C52.403,234.342 52.934,234.528 52.934,235.261 C52.934,235.615 52.816,236.002 52.597,236.263 C52.319,236.584 52.083,236.601 51.662,236.626 C51.451,236.643 51.434,236.643 51.392,236.651 C51.375,236.651 51.308,236.668 51.308,236.761 C51.308,236.879 51.383,236.879 51.527,236.879 L51.982,236.879" fill="#000000"/>
      <path d="M66.718,233.929 C66.899,233.929 67.128,233.929 67.128,233.688 C67.128,233.446 66.899,233.446 66.73,233.446 L59.497,233.446 C59.328,233.446 59.099,233.446 59.099,233.688 C59.099,233.929 59.328,233.929 59.509,233.929 L66.718,233.929 z M66.73,236.272 C66.899,236.272 67.128,236.272 67.128,236.03 C67.128,235.789 66.899,235.789 66.718,235.789 L59.509,235.789 C59.328,235.789 59.099,235.789 59.099,236.03 C59.099,236.272 59.328,236.272 59.497,236.272 L66.73,236.272" fill="#000000"/>
      <path d="M72.698,236.948 L73.978,235.704 C75.861,234.038 76.586,233.386 76.586,232.178 C76.586,230.802 75.5,229.836 74.026,229.836 C72.662,229.836 71.768,230.947 71.768,232.021 C71.768,232.698 72.372,232.698 72.408,232.698 C72.614,232.698 73.036,232.553 73.036,232.058 C73.036,231.744 72.819,231.43 72.396,231.43 C72.3,231.43 72.276,231.43 72.24,231.442 C72.517,230.657 73.169,230.21 73.87,230.21 C74.968,230.21 75.488,231.188 75.488,232.178 C75.488,233.145 74.883,234.099 74.219,234.847 L71.901,237.431 C71.768,237.564 71.768,237.588 71.768,237.878 L76.248,237.878 L76.586,235.777 L76.284,235.777 C76.224,236.139 76.14,236.67 76.019,236.851 C75.934,236.948 75.137,236.948 74.871,236.948 L72.698,236.948" fill="#000000"/>
      <path d="M82.604,235.451 C82.604,234.014 81.614,232.806 80.31,232.806 C79.731,232.806 79.211,233 78.777,233.422 L78.777,231.067 C79.018,231.14 79.417,231.224 79.803,231.224 C81.288,231.224 82.133,230.126 82.133,229.969 C82.133,229.896 82.097,229.836 82.013,229.836 C82.001,229.836 81.976,229.836 81.916,229.872 C81.674,229.981 81.083,230.222 80.274,230.222 C79.791,230.222 79.235,230.138 78.668,229.884 C78.571,229.848 78.547,229.848 78.523,229.848 C78.402,229.848 78.402,229.945 78.402,230.138 L78.402,233.712 C78.402,233.929 78.402,234.026 78.571,234.026 C78.656,234.026 78.68,233.99 78.728,233.917 C78.861,233.724 79.308,233.072 80.286,233.072 C80.914,233.072 81.216,233.627 81.312,233.845 C81.506,234.291 81.53,234.763 81.53,235.366 C81.53,235.789 81.53,236.513 81.24,237.02 C80.95,237.491 80.504,237.805 79.948,237.805 C79.067,237.805 78.378,237.165 78.173,236.453 C78.209,236.465 78.246,236.477 78.378,236.477 C78.777,236.477 78.982,236.175 78.982,235.885 C78.982,235.596 78.777,235.294 78.378,235.294 C78.209,235.294 77.786,235.378 77.786,235.934 C77.786,236.972 78.619,238.144 79.972,238.144 C81.373,238.144 82.604,236.984 82.604,235.451" fill="#000000"/>
    </g>
    <path d="M28.355,214.441 L29.673,214.441 L29.673,213.802 L28.355,213.802 L28.355,208.083 C28.355,207.716 28.328,207.648 27.948,207.648 C27.663,207.648 27.649,207.662 27.486,207.866 L22.745,213.802 L22.745,214.441 L26.657,214.441 L26.657,215.922 L25.136,215.922 L25.136,216.56 C25.652,216.519 26.888,216.519 27.472,216.519 C28.016,216.519 29.198,216.519 29.673,216.56 L29.673,215.922 L28.355,215.922 L28.355,214.441 z M26.807,213.802 L23.452,213.802 L26.807,209.591 L26.807,213.802 z" fill="#000000" id="Layer_1"/>
  </g>
</svg>
