<?xml version="1.0" encoding="UTF-8" standalone="no"?>
<!-- Created with Inkscape (http://www.inkscape.org/) -->

<svg
   xmlns:ns0="http://www.iki.fi/pav/software/textext/"
   xmlns:dc="http://purl.org/dc/elements/1.1/"
   xmlns:cc="http://creativecommons.org/ns#"
   xmlns:rdf="http://www.w3.org/1999/02/22-rdf-syntax-ns#"
   xmlns:svg="http://www.w3.org/2000/svg"
   xmlns="http://www.w3.org/2000/svg"
   xmlns:sodipodi="http://sodipodi.sourceforge.net/DTD/sodipodi-0.dtd"
   xmlns:inkscape="http://www.inkscape.org/namespaces/inkscape"
   width="487.51993"
   height="347.10834"
   id="svg2"
   version="1.1"
   inkscape:version="0.48.4 r9939"
   sodipodi:docname="scenario.pdf">
  <sodipodi:namedview
     id="base"
     pagecolor="#ffffff"
     bordercolor="#666666"
     borderopacity="1.0"
     inkscape:pageopacity="0.0"
     inkscape:pageshadow="2"
     inkscape:zoom="1.4"
     inkscape:cx="56.638984"
     inkscape:cy="134.61088"
     inkscape:document-units="px"
     inkscape:current-layer="layer1"
     showgrid="false"
     inkscape:window-width="1855"
     inkscape:window-height="1056"
     inkscape:window-x="65"
     inkscape:window-y="24"
     inkscape:window-maximized="1"
     fit-margin-top="0"
     fit-margin-left="0"
     fit-margin-right="0"
     fit-margin-bottom="0" />
  <defs
     id="defs4" />
  <metadata
     id="metadata7">
    <rdf:RDF>
      <cc:Work
         rdf:about="">
        <dc:format>image/svg+xml</dc:format>
        <dc:type
           rdf:resource="http://purl.org/dc/dcmitype/StillImage" />
        <dc:title></dc:title>
      </cc:Work>
    </rdf:RDF>
  </metadata>
  <g
     transform="translate(-128.05572,-27.025631)"
     id="layer1"
     inkscape:groupmode="layer"
     inkscape:label="Layer 1">
    <path
       d="m 99.999998,118.07647 c 0,3.5504 -2.87817,6.42857 -6.428572,6.42857 -3.550401,0 -6.428571,-2.87817 -6.428571,-6.42857 0,-3.5504 2.87817,-6.42857 6.428571,-6.42857 3.550402,0 6.428572,2.87817 6.428572,6.42857 z"
       sodipodi:ry="6.4285712"
       sodipodi:rx="6.4285712"
       sodipodi:cy="118.07647"
       sodipodi:cx="93.571426"
       id="path3023-7"
       style="fill:#000000;fill-opacity:1"
       sodipodi:type="arc"
       transform="translate(62.142864,-41.428573)" />
    <path
       d="m 99.999998,118.07647 c 0,3.5504 -2.87817,6.42857 -6.428572,6.42857 -3.550401,0 -6.428571,-2.87817 -6.428571,-6.42857 0,-3.5504 2.87817,-6.42857 6.428571,-6.42857 3.550402,0 6.428572,2.87817 6.428572,6.42857 z"
       sodipodi:ry="6.4285712"
       sodipodi:rx="6.4285712"
       sodipodi:cy="118.07647"
       sodipodi:cx="93.571426"
       id="path3023-7-1"
       style="fill:#000000;fill-opacity:1"
       sodipodi:type="arc"
       transform="translate(62.142862,106.42857)" />
    <path
       d="m 99.999998,118.07647 c 0,3.5504 -2.87817,6.42857 -6.428572,6.42857 -3.550401,0 -6.428571,-2.87817 -6.428571,-6.42857 0,-3.5504 2.87817,-6.42857 6.428571,-6.42857 3.550402,0 6.428572,2.87817 6.428572,6.42857 z"
       sodipodi:ry="6.4285712"
       sodipodi:rx="6.4285712"
       sodipodi:cy="118.07647"
       sodipodi:cx="93.571426"
       id="path3023-7-1-0"
       style="fill:#000000;fill-opacity:1"
       sodipodi:type="arc"
       transform="translate(480.00001,104.71428)" />
    <path
       d="m 99.999998,118.07647 c 0,3.5504 -2.87817,6.42857 -6.428572,6.42857 -3.550401,0 -6.428571,-2.87817 -6.428571,-6.42857 0,-3.5504 2.87817,-6.42857 6.428571,-6.42857 3.550402,0 6.428572,2.87817 6.428572,6.42857 z"
       sodipodi:ry="6.4285712"
       sodipodi:rx="6.4285712"
       sodipodi:cy="118.07647"
       sodipodi:cx="93.571426"
       id="path3023-7-1-0-5"
       style="fill:#000000;fill-opacity:1"
       sodipodi:type="arc"
       transform="translate(306.57142,-44.142859)" />
    <path
       inkscape:connector-curvature="0"
       id="path5970"
       d="M 402.14286,71.647896 155,222.36218"
       style="fill:none;stroke:#000000;stroke-width:1px;stroke-linecap:butt;stroke-linejoin:miter;stroke-opacity:1" />
    <path
       inkscape:connector-curvature="0"
       id="path7029"
       d="m 155.71429,74.505039 0,147.142861"
       style="fill:none;stroke:#000000;stroke-width:1px;stroke-linecap:butt;stroke-linejoin:miter;stroke-opacity:1" />
    <path
       inkscape:connector-curvature="0"
       id="path7035"
       d="m 397.85714,73.790753 -244.28571,0"
       style="fill:none;stroke:#000000;stroke-width:1px;stroke-linecap:butt;stroke-linejoin:miter;stroke-opacity:1" />
    <path
       transform="translate(130.09181,6.3113314)"
       inkscape:connector-curvature="0"
       id="path9509"
       d="m 23.571429,217.4796 420.714281,0"
       style="fill:none;stroke:#000000;stroke-width:1px;stroke-linecap:butt;stroke-linejoin:miter;stroke-opacity:1" />
    <path
       transform="translate(130.09181,6.3113314)"
       inkscape:connector-curvature="0"
       id="path9511"
       d="M 270.71429,66.765311 442.14286,216.05103"
       style="fill:none;stroke:#000000;stroke-width:1px;stroke-linecap:butt;stroke-linejoin:miter;stroke-opacity:1" />
    <path
       transform="translate(130.09181,6.3113314)"
       inkscape:connector-curvature="0"
       id="path9513"
       d="M 27.142857,70.336739 443.57143,216.76531"
       style="fill:none;stroke:#000000;stroke-width:1px;stroke-linecap:butt;stroke-linejoin:miter;stroke-opacity:1" />
    <g
       id="g11387"
       transform="matrix(1.5396467,0,0,-1.5396467,26.803938,1050.398)"
       xml:space="preserve"
       stroke-miterlimit="10.433"
       font-style="normal"
       font-variant="normal"
       font-weight="normal"
       font-stretch="normal"
       font-size-adjust="none"
       letter-spacing="normal"
       word-spacing="normal"
       ns0:text="$I_1$ (30/34) \\\\\n"
       ns0:preamble=""
       style="font-style:normal;font-variant:normal;font-weight:normal;font-stretch:normal;letter-spacing:normal;word-spacing:normal;text-anchor:start;fill:none;stroke:#000000;stroke-linecap:butt;stroke-linejoin:miter;stroke-miterlimit:10.43299961;stroke-opacity:1;stroke-dasharray:none;stroke-dashoffset:0"><path
         style="fill:#000000;stroke-width:0"
         inkscape:connector-curvature="0"
         d="m 227.15,663.26 0.01,0.03 0.01,0.03 0.01,0.03 0.01,0.03 0,0.02 0.01,0.03 0.01,0.02 0.01,0.03 0.01,0.02 0.01,0.02 0.02,0.02 0.01,0.02 0.02,0.01 0.01,0.02 0.02,0.01 0.02,0.02 0.03,0.01 0.02,0.01 0.03,0.01 0.03,0.01 0.03,0.01 0.02,0 0.02,0.01 0.02,0 0.02,0 0.02,0.01 0.02,0 0.02,0 0.02,0.01 0.03,0 0.02,0 0.03,0 0.02,0 0.03,0.01 0.03,0 0.03,0 0.03,0 0.03,0 0.03,0 0.03,0 0.04,0 0.03,0 0.04,0 c 0.24,0 0.32,0 0.32,0.19 0,0.12 -0.11,0.12 -0.15,0.12 -0.29,0 -1.03,-0.03 -1.32,-0.03 -0.29,0 -1.02,0.03 -1.32,0.03 -0.07,0 -0.2,0 -0.2,-0.2 0,-0.11 0.09,-0.11 0.28,-0.11 0.42,0 0.69,0 0.69,-0.19 0,-0.05 0,-0.07 -0.02,-0.16 l -1.35,-5.35 c -0.09,-0.37 -0.11,-0.47 -0.9,-0.47 -0.23,0 -0.32,0 -0.32,-0.2 0,-0.11 0.12,-0.11 0.15,-0.11 0.29,0 1.01,0.04 1.3,0.04 0.3,0 1.04,-0.04 1.34,-0.04 0.08,0 0.2,0 0.2,0.19 0,0.12 -0.08,0.12 -0.3,0.12 -0.18,0 -0.23,0 -0.43,0.02 -0.21,0.02 -0.25,0.06 -0.25,0.17 0,0.08 0.02,0.16 0.04,0.23 z"
         id="path11389" /><path
         style="fill:#000000;stroke-width:0"
         inkscape:connector-curvature="0"
         d="m 230.15,660.16 -0.01,0.01 0,0.01 0,0.01 0,0.01 0,0 0,0.01 0,0.01 0,0.01 0,0 0,0.01 0,0.01 0,0 0,0.01 0,0 0,0.01 0,0 0,0.01 0,0 0,0.01 -0.01,0.01 0,0.01 0,0 -0.01,0.01 0,0.01 -0.01,0 0,0.01 -0.01,0 0,0 -0.01,0.01 -0.01,0 -0.01,0 -0.01,0 0,0 -0.01,0 0,0 -0.01,0.01 -0.01,0 0,0 -0.01,0 -0.01,0 0,0 -0.01,0 -0.01,0 0,0 -0.01,0 -0.01,0 -0.01,0 -0.01,0 0,0 -0.01,0 c -0.45,-0.44 -1.08,-0.45 -1.37,-0.45 v -0.25 c 0.17,0 0.63,0 1.01,0.2 v -3.55 c 0,-0.23 0,-0.32 -0.7,-0.32 h -0.26 v -0.25 c 0.12,0.01 0.98,0.03 1.24,0.03 0.21,0 1.09,-0.02 1.25,-0.03 v 0.25 h -0.27 c -0.69,0 -0.69,0.09 -0.69,0.32 z"
         id="path11391" /><path
         style="fill:#000000;stroke-width:0"
         inkscape:connector-curvature="0"
         d="m 238.9,654.85 -0.01,0.01 0,0 0,0 0,0.01 0,0 0,0 0,0.01 0,0 0,0 0,0.01 -0.01,0 0,0.01 0,0 -0.01,0.01 0,0 -0.01,0.01 0,0.01 -0.01,0 0,0.01 0,0 -0.01,0.01 0,0 0,0 -0.01,0.01 0,0 -0.01,0.01 0,0 -0.01,0.01 0,0 -0.01,0.01 0,0 -0.01,0.01 0,0.01 -0.01,0 0,0.01 -0.01,0.01 -0.01,0 0,0.01 -0.01,0.01 -0.01,0 -0.01,0.01 0,0.01 c -1.25,1.25 -1.57,3.13 -1.57,4.65 0,1.73 0.38,3.45 1.61,4.7 0.13,0.12 0.13,0.14 0.13,0.17 0,0.07 -0.05,0.09 -0.1,0.09 -0.1,0 -1,-0.67 -1.59,-1.93 -0.5,-1.09 -0.62,-2.2 -0.62,-3.03 0,-0.78 0.11,-1.98 0.65,-3.1 0.6,-1.22 1.46,-1.87 1.56,-1.87 0.05,0 0.1,0.03 0.1,0.1 z"
         id="path11393" /><path
         style="fill:#000000;stroke-width:0"
         inkscape:connector-curvature="0"
         d="m 242.36,660.73 0.08,0.03 0.07,0.03 0.07,0.03 0.08,0.03 0.07,0.04 0.06,0.04 0.07,0.04 0.06,0.04 0.07,0.04 0.06,0.05 0.06,0.05 0.05,0.05 0.06,0.05 0.05,0.05 0.05,0.06 0.04,0.05 0.05,0.06 0.04,0.06 0.04,0.06 0.04,0.06 0.03,0.07 0.04,0.06 0.03,0.07 0.02,0.06 0.03,0.07 0.02,0.07 0.01,0.07 0.02,0.07 0.01,0.07 0.01,0.07 0,0.08 0.01,0.07 c 0,0.81 -0.88,1.37 -1.84,1.37 -1,0 -1.76,-0.59 -1.76,-1.35 0,-0.33 0.22,-0.52 0.51,-0.52 0.31,0 0.51,0.22 0.51,0.51 0,0.5 -0.47,0.5 -0.62,0.5 0.31,0.48 0.97,0.61 1.32,0.61 0.41,0 0.96,-0.22 0.96,-1.11 0,-0.12 -0.02,-0.7 -0.28,-1.13 -0.3,-0.48 -0.64,-0.51 -0.88,-0.52 -0.08,-0.01 -0.32,-0.03 -0.39,-0.03 -0.08,-0.01 -0.15,-0.02 -0.15,-0.12 0,-0.11 0.07,-0.11 0.24,-0.11 h 0.43 c 0.82,0 1.19,-0.67 1.19,-1.65 0,-1.35 -0.69,-1.64 -1.13,-1.64 -0.42,0 -1.17,0.17 -1.52,0.76 0.35,-0.05 0.66,0.17 0.66,0.55 0,0.35 -0.27,0.55 -0.56,0.55 -0.24,0 -0.56,-0.14 -0.56,-0.57 0,-0.91 0.93,-1.56 2.01,-1.56 1.22,0 2.12,0.9 2.12,1.91 0,0.82 -0.62,1.59 -1.66,1.8 z"
         id="path11395" /><path
         style="fill:#000000;stroke-width:0"
         inkscape:connector-curvature="0"
         d="m 249.03,660.41 0,0.15 0,0.15 0,0.15 -0.01,0.15 -0.01,0.15 -0.01,0.14 -0.02,0.15 -0.01,0.15 -0.03,0.14 -0.02,0.15 -0.04,0.14 -0.03,0.15 -0.05,0.14 -0.05,0.14 -0.05,0.14 -0.03,0.07 -0.03,0.07 c -0.46,0.95 -1.28,1.11 -1.69,1.11 -0.6,0 -1.33,-0.26 -1.74,-1.18 -0.31,-0.69 -0.36,-1.46 -0.36,-2.26 0,-0.74 0.04,-1.63 0.44,-2.39 0.43,-0.8 1.16,-1 1.64,-1 v 0.21 c -0.38,0 -0.97,0.25 -1.15,1.21 -0.11,0.59 -0.11,1.51 -0.11,2.09 0,0.64 0,1.29 0.08,1.83 0.19,1.18 0.94,1.27 1.18,1.27 0.33,0 0.99,-0.18 1.18,-1.16 0.1,-0.56 0.1,-1.31 0.1,-1.94 0,-0.74 0,-1.42 -0.11,-2.05 -0.15,-0.95 -0.72,-1.25 -1.17,-1.25 h 0 v -0.21 c 0.54,0 1.3,0.2 1.74,1.15 0.32,0.68 0.36,1.46 0.36,2.24 z"
         id="path11397" /><path
         style="fill:#000000;stroke-width:0"
         inkscape:connector-curvature="0"
         d="m 253.8,664.31 0,0 0,0.01 0,0.01 0.01,0 0,0.01 0,0 0,0.01 0,0 0.01,0.01 0,0 0,0.01 0,0.01 0.01,0.01 0,0.01 0,0 0,0.01 0,0.01 0.01,0 0,0.01 0,0 0,0.01 0,0 0,0.01 0,0 0,0.01 0,0 0.01,0 0,0.01 0,0 0,0 0,0 0,0.01 0,0 0,0 0,0.01 c 0,0.11 -0.09,0.19 -0.2,0.19 -0.14,0 -0.18,-0.09 -0.21,-0.19 l -3.39,-9.36 C 250,655 250,654.97 250,654.95 c 0,-0.11 0.09,-0.2 0.2,-0.2 0.13,0 0.17,0.1 0.2,0.2 z"
         id="path11399" /><path
         style="fill:#000000;stroke-width:0"
         inkscape:connector-curvature="0"
         d="m 257.31,660.73 0.07,0.03 0.08,0.03 0.07,0.03 0.07,0.03 0.07,0.04 0.07,0.04 0.06,0.04 0.07,0.04 0.06,0.04 0.06,0.05 0.06,0.05 0.05,0.05 0.06,0.05 0.05,0.05 0.05,0.06 0.05,0.05 0.04,0.06 0.05,0.06 0.04,0.06 0.03,0.06 0.04,0.07 0.03,0.06 0.03,0.07 0.03,0.06 0.02,0.07 0.02,0.07 0.02,0.07 0.01,0.07 0.01,0.07 0.01,0.07 0.01,0.08 0,0.07 c 0,0.81 -0.88,1.37 -1.83,1.37 -1.01,0 -1.76,-0.59 -1.76,-1.35 0,-0.33 0.22,-0.52 0.5,-0.52 0.31,0 0.51,0.22 0.51,0.51 0,0.5 -0.47,0.5 -0.61,0.5 0.3,0.48 0.96,0.61 1.32,0.61 0.41,0 0.95,-0.22 0.95,-1.11 0,-0.12 -0.02,-0.7 -0.27,-1.13 -0.3,-0.48 -0.64,-0.51 -0.89,-0.52 -0.08,-0.01 -0.32,-0.03 -0.39,-0.03 -0.08,-0.01 -0.15,-0.02 -0.15,-0.12 0,-0.11 0.07,-0.11 0.24,-0.11 h 0.44 c 0.81,0 1.18,-0.67 1.18,-1.65 0,-1.35 -0.68,-1.64 -1.12,-1.64 -0.43,0 -1.18,0.17 -1.52,0.76 0.34,-0.05 0.65,0.17 0.65,0.55 0,0.35 -0.27,0.55 -0.55,0.55 -0.24,0 -0.56,-0.14 -0.56,-0.57 0,-0.91 0.92,-1.56 2.01,-1.56 1.21,0 2.12,0.9 2.12,1.91 0,0.82 -0.63,1.59 -1.66,1.8 z"
         id="path11401" /><path
         style="fill:#000000;stroke-width:0"
         inkscape:connector-curvature="0"
         d="m 262.33,658.87 v -0.86 c 0,-0.36 -0.02,-0.47 -0.76,-0.47 h -0.21 v -0.31 c 0.41,0.04 0.93,0.04 1.34,0.04 0.42,0 0.95,0 1.36,-0.04 v 0.31 h -0.21 c -0.74,0 -0.76,0.11 -0.76,0.47 v 0.86 h 1 v 0.31 h -1 v 4.52 c 0,0.2 0,0.26 -0.16,0.26 -0.09,0 -0.12,0 -0.2,-0.12 l -3.05,-4.66 h 0.28 l 2.43,3.71 v -3.71 h -2.43 -0.28 v -0.31 z"
         id="path11403" /><path
         style="fill:#000000;stroke-width:0"
         inkscape:connector-curvature="0"
         d="m 267.26,659.72 0,0.07 0,0.08 -0.01,0.08 0,0.08 -0.01,0.17 -0.01,0.17 -0.01,0.18 -0.03,0.19 -0.02,0.2 -0.03,0.2 -0.04,0.2 -0.05,0.21 -0.05,0.21 -0.06,0.21 -0.07,0.21 -0.08,0.21 -0.05,0.11 -0.04,0.11 -0.05,0.1 -0.05,0.11 c -0.59,1.22 -1.45,1.86 -1.55,1.86 -0.06,0 -0.1,-0.03 -0.1,-0.09 0,-0.03 0,-0.05 0.19,-0.23 0.97,-0.99 1.54,-2.57 1.54,-4.64 0,-1.7 -0.37,-3.45 -1.6,-4.7 -0.13,-0.12 -0.13,-0.14 -0.13,-0.17 0,-0.06 0.04,-0.1 0.1,-0.1 0.1,0 0.99,0.68 1.58,1.94 0.51,1.09 0.63,2.19 0.63,3.03 z"
         id="path11405" /></g>    <g
       style="font-style:normal;font-variant:normal;font-weight:normal;font-stretch:normal;letter-spacing:normal;word-spacing:normal;text-anchor:start;fill:none;stroke:#000000;stroke-linecap:butt;stroke-linejoin:miter;stroke-miterlimit:10.43299961;stroke-opacity:1;stroke-dasharray:none;stroke-dashoffset:0"
       ns0:preamble=""
       ns0:text="$I_3$ (21/25) \\\\\n"
       word-spacing="normal"
       letter-spacing="normal"
       font-size-adjust="none"
       font-stretch="normal"
       font-weight="normal"
       font-variant="normal"
       font-style="normal"
       stroke-miterlimit="10.433"
       xml:space="preserve"
       transform="matrix(1.5396467,0,0,-1.5396467,-208.72065,1280.5408)"
       id="g11547"><path
         style="fill:#000000;stroke-width:0"
         inkscape:connector-curvature="0"
         id="path11549"
         d="m 227.15,663.26 0.01,0.03 0.01,0.03 0.01,0.03 0.01,0.03 0,0.02 0.01,0.03 0.01,0.02 0.01,0.03 0.01,0.02 0.01,0.02 0.02,0.02 0.01,0.02 0.02,0.01 0.01,0.02 0.02,0.01 0.02,0.02 0.03,0.01 0.02,0.01 0.03,0.01 0.03,0.01 0.03,0.01 0.02,0 0.02,0.01 0.02,0 0.02,0 0.02,0.01 0.02,0 0.02,0 0.02,0.01 0.03,0 0.02,0 0.03,0 0.02,0 0.03,0.01 0.03,0 0.03,0 0.03,0 0.03,0 0.03,0 0.03,0 0.04,0 0.03,0 0.04,0 c 0.24,0 0.32,0 0.32,0.19 0,0.12 -0.11,0.12 -0.15,0.12 -0.29,0 -1.03,-0.03 -1.32,-0.03 -0.29,0 -1.02,0.03 -1.32,0.03 -0.07,0 -0.2,0 -0.2,-0.2 0,-0.11 0.09,-0.11 0.28,-0.11 0.42,0 0.69,0 0.69,-0.19 0,-0.05 0,-0.07 -0.02,-0.16 l -1.35,-5.35 c -0.09,-0.37 -0.11,-0.47 -0.9,-0.47 -0.23,0 -0.32,0 -0.32,-0.2 0,-0.11 0.12,-0.11 0.15,-0.11 0.29,0 1.01,0.04 1.3,0.04 0.3,0 1.04,-0.04 1.34,-0.04 0.08,0 0.2,0 0.2,0.19 0,0.12 -0.08,0.12 -0.3,0.12 -0.18,0 -0.23,0 -0.43,0.02 -0.21,0.02 -0.25,0.06 -0.25,0.17 0,0.08 0.02,0.16 0.04,0.23 z" /><path
         style="fill:#000000;stroke-width:0"
         inkscape:connector-curvature="0"
         id="path11551"
         d="m 229.71,658.06 0.05,0 0.05,0 0.05,-0.01 0.05,0 0.05,-0.01 0.04,-0.02 0.05,-0.01 0.04,-0.02 0.04,-0.02 0.04,-0.02 0.04,-0.02 0.04,-0.02 0.03,-0.03 0.04,-0.03 0.03,-0.03 0.03,-0.04 0.03,-0.03 0.03,-0.04 0.03,-0.04 0.02,-0.05 0.03,-0.04 0.02,-0.05 0.02,-0.05 0.02,-0.05 0.01,-0.05 0.02,-0.06 0.01,-0.05 0.01,-0.06 0.01,-0.07 0,-0.06 0.01,-0.07 0,-0.07 c 0,-0.86 -0.5,-1.12 -0.91,-1.12 -0.28,0 -0.89,0.08 -1.18,0.49 0.32,0.02 0.4,0.24 0.4,0.39 0,0.22 -0.17,0.38 -0.38,0.38 -0.2,0 -0.39,-0.11 -0.39,-0.4 0,-0.65 0.72,-1.08 1.57,-1.08 0.96,0 1.63,0.65 1.63,1.34 0,0.55 -0.44,1.09 -1.21,1.25 0.73,0.26 1,0.78 1,1.21 0,0.55 -0.64,0.96 -1.41,0.96 -0.77,0 -1.37,-0.38 -1.37,-0.93 0,-0.24 0.16,-0.37 0.37,-0.37 0.21,0 0.35,0.16 0.35,0.35 0,0.2 -0.14,0.35 -0.35,0.36 0.24,0.31 0.72,0.39 0.98,0.39 0.31,0 0.75,-0.16 0.75,-0.76 0,-0.29 -0.1,-0.61 -0.28,-0.83 -0.23,-0.26 -0.42,-0.28 -0.77,-0.3 -0.18,-0.01 -0.19,-0.01 -0.22,-0.02 -0.02,0 -0.07,-0.01 -0.07,-0.09 0,-0.1 0.06,-0.1 0.18,-0.1 z" /><path
         style="fill:#000000;stroke-width:0"
         inkscape:connector-curvature="0"
         id="path11553"
         d="m 238.9,654.85 -0.01,0.01 0,0 0,0 0,0.01 0,0 0,0 0,0.01 0,0 0,0 0,0.01 -0.01,0 0,0.01 0,0 -0.01,0.01 0,0 -0.01,0.01 0,0.01 -0.01,0 0,0.01 0,0 -0.01,0.01 0,0 0,0 -0.01,0.01 0,0 -0.01,0.01 0,0 -0.01,0.01 0,0 -0.01,0.01 0,0 -0.01,0.01 0,0.01 -0.01,0 0,0.01 -0.01,0.01 -0.01,0 0,0.01 -0.01,0.01 -0.01,0 -0.01,0.01 0,0.01 c -1.25,1.25 -1.57,3.13 -1.57,4.65 0,1.73 0.38,3.45 1.61,4.7 0.13,0.12 0.13,0.14 0.13,0.17 0,0.07 -0.05,0.09 -0.1,0.09 -0.1,0 -1,-0.67 -1.59,-1.93 -0.5,-1.09 -0.62,-2.2 -0.62,-3.03 0,-0.78 0.11,-1.98 0.65,-3.1 0.6,-1.22 1.46,-1.87 1.56,-1.87 0.05,0 0.1,0.03 0.1,0.1 z" /><path
         style="fill:#000000;stroke-width:0"
         inkscape:connector-curvature="0"
         id="path11555"
         d="m 240.74,658 1.05,1.02 c 1.56,1.37 2.15,1.91 2.15,2.9 0,1.14 -0.89,1.93 -2.11,1.93 -1.12,0 -1.86,-0.91 -1.86,-1.8 0,-0.55 0.5,-0.55 0.53,-0.55 0.17,0 0.52,0.12 0.52,0.52 0,0.26 -0.18,0.52 -0.53,0.52 -0.08,0 -0.1,0 -0.13,-0.01 0.23,0.64 0.77,1.01 1.35,1.01 0.9,0 1.33,-0.8 1.33,-1.62 0,-0.79 -0.5,-1.58 -1.05,-2.19 l -1.91,-2.13 c -0.11,-0.11 -0.11,-0.13 -0.11,-0.37 h 3.69 l 0.28,1.73 h -0.24 c -0.05,-0.3 -0.12,-0.73 -0.22,-0.88 C 243.41,658 242.75,658 242.53,658 z" /><path
         style="fill:#000000;stroke-width:0"
         inkscape:connector-curvature="0"
         id="path11557"
         d="m 247.38,663.59 0,0.01 0,0.01 0,0.02 0,0.01 0,0 0,0.01 0,0.01 0,0.01 0,0.01 0,0.01 0,0.01 0,0.01 0,0 0,0.01 0,0.01 0,0 0,0.01 0,0.01 0,0.01 -0.01,0.01 0,0.01 0,0.01 -0.01,0.01 0,0 -0.01,0.01 0,0.01 -0.01,0 0,0.01 -0.01,0 -0.01,0.01 -0.01,0 0,0 -0.01,0 0,0 -0.01,0 0,0 -0.01,0.01 -0.01,0 0,0 -0.01,0 -0.01,0 0,0 -0.01,0 -0.01,0 -0.01,0 -0.01,0 -0.01,0 -0.01,0 -0.01,0 -0.01,0 -0.01,0 -0.01,0 c -0.61,-0.63 -1.49,-0.63 -1.81,-0.63 v -0.31 c 0.2,0 0.79,0 1.31,0.25 v -5.14 c 0,-0.36 -0.03,-0.48 -0.93,-0.48 h -0.32 v -0.31 c 0.35,0.04 1.22,0.04 1.61,0.04 0.4,0 1.27,0 1.62,-0.04 v 0.31 h -0.32 c -0.9,0 -0.93,0.11 -0.93,0.48 z" /><path
         style="fill:#000000;stroke-width:0"
         inkscape:connector-curvature="0"
         id="path11559"
         d="m 253.8,664.31 0,0 0,0.01 0,0.01 0.01,0 0,0.01 0,0 0,0.01 0,0 0.01,0.01 0,0 0,0.01 0,0.01 0.01,0.01 0,0.01 0,0 0,0.01 0,0.01 0.01,0 0,0.01 0,0 0,0.01 0,0 0,0.01 0,0 0,0.01 0,0 0.01,0 0,0.01 0,0 0,0 0,0 0,0.01 0,0 0,0 0,0.01 c 0,0.11 -0.09,0.19 -0.2,0.19 -0.14,0 -0.18,-0.09 -0.21,-0.19 l -3.39,-9.36 C 250,655 250,654.97 250,654.95 c 0,-0.11 0.09,-0.2 0.2,-0.2 0.13,0 0.17,0.1 0.2,0.2 z" /><path
         style="fill:#000000;stroke-width:0"
         inkscape:connector-curvature="0"
         id="path11561"
         d="m 255.68,658 1.06,1.02 c 1.55,1.37 2.15,1.91 2.15,2.9 0,1.14 -0.9,1.93 -2.11,1.93 -1.13,0 -1.86,-0.91 -1.86,-1.8 0,-0.55 0.49,-0.55 0.53,-0.55 0.16,0 0.51,0.12 0.51,0.52 0,0.26 -0.18,0.52 -0.53,0.52 -0.07,0 -0.09,0 -0.12,-0.01 0.23,0.64 0.76,1.01 1.34,1.01 0.9,0 1.33,-0.8 1.33,-1.62 0,-0.79 -0.5,-1.58 -1.04,-2.19 l -1.91,-2.13 c -0.11,-0.11 -0.11,-0.13 -0.11,-0.37 h 3.69 l 0.28,1.73 h -0.25 c -0.05,-0.3 -0.12,-0.73 -0.22,-0.88 C 258.35,658 257.69,658 257.48,658 z" /><path
         style="fill:#000000;stroke-width:0"
         inkscape:connector-curvature="0"
         id="path11563"
         d="m 263.87,659.23 0,0.11 -0.01,0.11 -0.01,0.11 -0.02,0.1 -0.02,0.11 -0.02,0.1 -0.03,0.1 -0.04,0.1 -0.03,0.1 -0.04,0.09 -0.05,0.09 -0.05,0.09 -0.05,0.09 -0.05,0.08 -0.06,0.08 -0.06,0.07 -0.07,0.08 -0.07,0.06 -0.07,0.07 -0.07,0.06 -0.08,0.06 -0.08,0.05 -0.08,0.05 -0.08,0.04 -0.09,0.04 -0.09,0.04 -0.09,0.03 -0.09,0.02 -0.1,0.02 -0.09,0.02 -0.1,0 -0.1,0.01 c -0.48,0 -0.91,-0.16 -1.27,-0.51 v 1.94 c 0.2,-0.06 0.53,-0.13 0.85,-0.13 1.22,0 1.92,0.9 1.92,1.03 0,0.06 -0.03,0.11 -0.1,0.11 -0.01,0 -0.03,0 -0.08,-0.03 -0.2,-0.09 -0.69,-0.29 -1.35,-0.29 -0.4,0 -0.86,0.07 -1.33,0.28 -0.07,0.03 -0.09,0.03 -0.11,0.03 -0.1,0 -0.1,-0.08 -0.1,-0.24 v -2.94 c 0,-0.18 0,-0.26 0.14,-0.26 0.06,0 0.09,0.03 0.12,0.09 0.12,0.16 0.48,0.7 1.29,0.7 0.52,0 0.77,-0.46 0.84,-0.64 0.16,-0.37 0.18,-0.75 0.18,-1.25 0,-0.35 0,-0.94 -0.24,-1.36 -0.23,-0.39 -0.6,-0.65 -1.06,-0.65 -0.73,0 -1.29,0.53 -1.46,1.12 0.03,-0.01 0.06,-0.02 0.17,-0.02 0.32,0 0.49,0.25 0.49,0.48 0,0.24 -0.17,0.49 -0.49,0.49 -0.14,0 -0.49,-0.07 -0.49,-0.53 0,-0.85 0.69,-1.81 1.8,-1.81 1.15,0 2.17,0.95 2.17,2.21 z" /><path
         style="fill:#000000;stroke-width:0"
         inkscape:connector-curvature="0"
         id="path11565"
         d="m 267.26,659.72 0,0.07 0,0.08 -0.01,0.08 0,0.08 -0.01,0.17 -0.01,0.17 -0.01,0.18 -0.03,0.19 -0.02,0.2 -0.03,0.2 -0.04,0.2 -0.05,0.21 -0.05,0.21 -0.06,0.21 -0.07,0.21 -0.08,0.21 -0.05,0.11 -0.04,0.11 -0.05,0.1 -0.05,0.11 c -0.59,1.22 -1.45,1.86 -1.55,1.86 -0.06,0 -0.1,-0.03 -0.1,-0.09 0,-0.03 0,-0.05 0.19,-0.23 0.97,-0.99 1.54,-2.57 1.54,-4.64 0,-1.7 -0.37,-3.45 -1.6,-4.7 -0.13,-0.12 -0.13,-0.14 -0.13,-0.17 0,-0.06 0.04,-0.1 0.1,-0.1 0.1,0 0.99,0.68 1.58,1.94 0.51,1.09 0.63,2.19 0.63,3.03 z" /></g>    <g
       id="g11707"
       transform="matrix(1.5396467,0,0,-1.5396467,204.08966,1282.6839)"
       xml:space="preserve"
       stroke-miterlimit="10.433"
       font-style="normal"
       font-variant="normal"
       font-weight="normal"
       font-stretch="normal"
       font-size-adjust="none"
       letter-spacing="normal"
       word-spacing="normal"
       ns0:text="$I_2$ (40/40) \\\\"
       ns0:preamble=""
       style="font-style:normal;font-variant:normal;font-weight:normal;font-stretch:normal;letter-spacing:normal;word-spacing:normal;text-anchor:start;fill:none;stroke:#000000;stroke-linecap:butt;stroke-linejoin:miter;stroke-miterlimit:10.43299961;stroke-opacity:1;stroke-dasharray:none;stroke-dashoffset:0"><path
         style="fill:#000000;stroke-width:0"
         inkscape:connector-curvature="0"
         d="m 227.15,663.26 0.01,0.03 0.01,0.03 0.01,0.03 0.01,0.03 0,0.02 0.01,0.03 0.01,0.02 0.01,0.03 0.01,0.02 0.01,0.02 0.02,0.02 0.01,0.02 0.02,0.01 0.01,0.02 0.02,0.01 0.02,0.02 0.03,0.01 0.02,0.01 0.03,0.01 0.03,0.01 0.03,0.01 0.02,0 0.02,0.01 0.02,0 0.02,0 0.02,0.01 0.02,0 0.02,0 0.02,0.01 0.03,0 0.02,0 0.03,0 0.02,0 0.03,0.01 0.03,0 0.03,0 0.03,0 0.03,0 0.03,0 0.03,0 0.04,0 0.03,0 0.04,0 c 0.24,0 0.32,0 0.32,0.19 0,0.12 -0.11,0.12 -0.15,0.12 -0.29,0 -1.03,-0.03 -1.32,-0.03 -0.29,0 -1.02,0.03 -1.32,0.03 -0.07,0 -0.2,0 -0.2,-0.2 0,-0.11 0.09,-0.11 0.28,-0.11 0.42,0 0.69,0 0.69,-0.19 0,-0.05 0,-0.07 -0.02,-0.16 l -1.35,-5.35 c -0.09,-0.37 -0.11,-0.47 -0.9,-0.47 -0.23,0 -0.32,0 -0.32,-0.2 0,-0.11 0.12,-0.11 0.15,-0.11 0.29,0 1.01,0.04 1.3,0.04 0.3,0 1.04,-0.04 1.34,-0.04 0.08,0 0.2,0 0.2,0.19 0,0.12 -0.08,0.12 -0.3,0.12 -0.18,0 -0.23,0 -0.43,0.02 -0.21,0.02 -0.25,0.06 -0.25,0.17 0,0.08 0.02,0.16 0.04,0.23 z"
         id="path11709" /><path
         style="fill:#000000;stroke-width:0"
         inkscape:connector-curvature="0"
         d="m 231.33,657.01 h -0.24 c -0.02,-0.16 -0.09,-0.57 -0.18,-0.64 -0.06,-0.04 -0.59,-0.04 -0.69,-0.04 h -1.28 c 0.73,0.65 0.97,0.84 1.39,1.17 0.52,0.41 1,0.84 1,1.5 0,0.84 -0.74,1.36 -1.63,1.36 -0.86,0 -1.45,-0.61 -1.45,-1.25 0,-0.35 0.3,-0.39 0.37,-0.39 0.17,0 0.37,0.12 0.37,0.37 0,0.13 -0.05,0.37 -0.41,0.37 0.21,0.5 0.69,0.65 1.02,0.65 0.69,0 1.05,-0.54 1.05,-1.11 0,-0.6 -0.43,-1.08 -0.65,-1.33 l -1.68,-1.66 c -0.07,-0.06 -0.07,-0.07 -0.07,-0.27 h 2.87 z"
         id="path11711" /><path
         style="fill:#000000;stroke-width:0"
         inkscape:connector-curvature="0"
         d="m 238.9,654.85 -0.01,0.01 0,0 0,0 0,0.01 0,0 0,0 0,0.01 0,0 0,0 0,0.01 -0.01,0 0,0.01 0,0 -0.01,0.01 0,0 -0.01,0.01 0,0.01 -0.01,0 0,0.01 0,0 -0.01,0.01 0,0 0,0 -0.01,0.01 0,0 -0.01,0.01 0,0 -0.01,0.01 0,0 -0.01,0.01 0,0 -0.01,0.01 0,0.01 -0.01,0 0,0.01 -0.01,0.01 -0.01,0 0,0.01 -0.01,0.01 -0.01,0 -0.01,0.01 0,0.01 c -1.25,1.25 -1.57,3.13 -1.57,4.65 0,1.73 0.38,3.45 1.61,4.7 0.13,0.12 0.13,0.14 0.13,0.17 0,0.07 -0.05,0.09 -0.1,0.09 -0.1,0 -1,-0.67 -1.59,-1.93 -0.5,-1.09 -0.62,-2.2 -0.62,-3.03 0,-0.78 0.11,-1.98 0.65,-3.1 0.6,-1.22 1.46,-1.87 1.56,-1.87 0.05,0 0.1,0.03 0.1,0.1 z"
         id="path11713" /><path
         style="fill:#000000;stroke-width:0"
         inkscape:connector-curvature="0"
         d="m 242.4,658.87 v -0.86 c 0,-0.36 -0.02,-0.47 -0.75,-0.47 h -0.21 v -0.31 c 0.4,0.04 0.92,0.04 1.34,0.04 0.42,0 0.95,0 1.35,-0.04 v 0.31 h -0.21 c -0.73,0 -0.75,0.11 -0.75,0.47 v 0.86 h 0.99 v 0.31 h -0.99 v 4.52 c 0,0.2 0,0.26 -0.16,0.26 -0.09,0 -0.12,0 -0.2,-0.12 l -3.05,-4.66 h 0.27 l 2.43,3.71 v -3.71 h -2.43 -0.27 v -0.31 z"
         id="path11715" /><path
         style="fill:#000000;stroke-width:0"
         inkscape:connector-curvature="0"
         d="m 249.03,660.41 0,0.15 0,0.15 0,0.15 -0.01,0.15 -0.01,0.15 -0.01,0.14 -0.02,0.15 -0.01,0.15 -0.03,0.14 -0.02,0.15 -0.04,0.14 -0.03,0.15 -0.05,0.14 -0.05,0.14 -0.05,0.14 -0.03,0.07 -0.03,0.07 c -0.46,0.95 -1.28,1.11 -1.69,1.11 -0.6,0 -1.33,-0.26 -1.74,-1.18 -0.31,-0.69 -0.36,-1.46 -0.36,-2.26 0,-0.74 0.04,-1.63 0.44,-2.39 0.43,-0.8 1.16,-1 1.64,-1 v 0.21 c -0.38,0 -0.97,0.25 -1.15,1.21 -0.11,0.59 -0.11,1.51 -0.11,2.09 0,0.64 0,1.29 0.08,1.83 0.19,1.18 0.94,1.27 1.18,1.27 0.33,0 0.99,-0.18 1.18,-1.16 0.1,-0.56 0.1,-1.31 0.1,-1.94 0,-0.74 0,-1.42 -0.11,-2.05 -0.15,-0.95 -0.72,-1.25 -1.17,-1.25 h 0 v -0.21 c 0.54,0 1.3,0.2 1.74,1.15 0.32,0.68 0.36,1.46 0.36,2.24 z"
         id="path11717" /><path
         style="fill:#000000;stroke-width:0"
         inkscape:connector-curvature="0"
         d="m 253.8,664.31 0,0 0,0.01 0,0.01 0.01,0 0,0.01 0,0 0,0.01 0,0 0.01,0.01 0,0 0,0.01 0,0.01 0.01,0.01 0,0.01 0,0 0,0.01 0,0.01 0.01,0 0,0.01 0,0 0,0.01 0,0 0,0.01 0,0 0,0.01 0,0 0.01,0 0,0.01 0,0 0,0 0,0 0,0.01 0,0 0,0 0,0.01 c 0,0.11 -0.09,0.19 -0.2,0.19 -0.14,0 -0.18,-0.09 -0.21,-0.19 l -3.39,-9.36 C 250,655 250,654.97 250,654.95 c 0,-0.11 0.09,-0.2 0.2,-0.2 0.13,0 0.17,0.1 0.2,0.2 z"
         id="path11719" /><path
         style="fill:#000000;stroke-width:0"
         inkscape:connector-curvature="0"
         d="m 257.35,658.87 v -0.86 c 0,-0.36 -0.02,-0.47 -0.76,-0.47 h -0.21 v -0.31 c 0.41,0.04 0.93,0.04 1.34,0.04 0.42,0 0.95,0 1.36,-0.04 v 0.31 h -0.21 c -0.74,0 -0.76,0.11 -0.76,0.47 v 0.86 h 1 v 0.31 h -1 v 4.52 c 0,0.2 0,0.26 -0.16,0.26 -0.09,0 -0.12,0 -0.2,-0.12 l -3.05,-4.66 h 0.28 l 2.42,3.71 v -3.71 h -2.42 -0.28 v -0.31 z"
         id="path11721" /><path
         style="fill:#000000;stroke-width:0"
         inkscape:connector-curvature="0"
         d="m 263.98,660.41 0,0.15 0,0.15 -0.01,0.15 -0.01,0.15 0,0.15 -0.02,0.14 -0.01,0.15 -0.02,0.15 -0.02,0.14 -0.03,0.15 -0.03,0.14 -0.04,0.15 -0.04,0.14 -0.05,0.14 -0.06,0.14 -0.03,0.07 -0.03,0.07 c -0.46,0.95 -1.27,1.11 -1.69,1.11 -0.6,0 -1.32,-0.26 -1.73,-1.18 -0.32,-0.69 -0.37,-1.46 -0.37,-2.26 0,-0.74 0.04,-1.63 0.45,-2.39 0.43,-0.8 1.15,-1 1.64,-1 v 0.21 c -0.39,0 -0.98,0.25 -1.15,1.21 -0.12,0.59 -0.12,1.51 -0.12,2.09 0,0.64 0,1.29 0.09,1.83 0.18,1.18 0.93,1.27 1.18,1.27 0.33,0 0.98,-0.18 1.17,-1.16 0.1,-0.56 0.1,-1.31 0.1,-1.94 0,-0.74 0,-1.42 -0.11,-2.05 -0.15,-0.95 -0.71,-1.25 -1.16,-1.25 h 0 v -0.21 c 0.54,0 1.29,0.2 1.73,1.15 0.32,0.68 0.37,1.46 0.37,2.24 z"
         id="path11723" /><path
         style="fill:#000000;stroke-width:0"
         inkscape:connector-curvature="0"
         d="m 267.26,659.72 0,0.07 0,0.08 -0.01,0.08 0,0.08 -0.01,0.17 -0.01,0.17 -0.01,0.18 -0.03,0.19 -0.02,0.2 -0.03,0.2 -0.04,0.2 -0.05,0.21 -0.05,0.21 -0.06,0.21 -0.07,0.21 -0.08,0.21 -0.05,0.11 -0.04,0.11 -0.05,0.1 -0.05,0.11 c -0.59,1.22 -1.45,1.86 -1.55,1.86 -0.06,0 -0.1,-0.03 -0.1,-0.09 0,-0.03 0,-0.05 0.19,-0.23 0.97,-0.99 1.54,-2.57 1.54,-4.64 0,-1.7 -0.37,-3.45 -1.6,-4.7 -0.13,-0.12 -0.13,-0.14 -0.13,-0.17 0,-0.06 0.04,-0.1 0.1,-0.1 0.1,0 0.99,0.68 1.58,1.94 0.51,1.09 0.63,2.19 0.63,3.03 z"
         id="path11725" /></g>    <g
       style="font-style:normal;font-variant:normal;font-weight:normal;font-stretch:normal;letter-spacing:normal;word-spacing:normal;text-anchor:start;fill:none;stroke:#000000;stroke-linecap:butt;stroke-linejoin:miter;stroke-miterlimit:10.43299961;stroke-opacity:1;stroke-dasharray:none;stroke-dashoffset:0"
       ns0:preamble=""
       ns0:text="$I_0$ (25/30) \\\\\n"
       word-spacing="normal"
       letter-spacing="normal"
       font-size-adjust="none"
       font-stretch="normal"
       font-weight="normal"
       font-variant="normal"
       font-style="normal"
       stroke-miterlimit="10.433"
       xml:space="preserve"
       transform="matrix(1.5396467,0,0,-1.5396467,-216.47102,1050.8353)"
       id="content"><path
         style="fill:#000000;stroke-width:0"
         inkscape:connector-curvature="0"
         id="path11887"
         d="m 227.15,663.26 0.01,0.03 0.01,0.03 0.01,0.03 0.01,0.03 0,0.02 0.01,0.03 0.01,0.02 0.01,0.03 0.01,0.02 0.01,0.02 0.02,0.02 0.01,0.02 0.02,0.01 0.01,0.02 0.02,0.01 0.02,0.02 0.03,0.01 0.02,0.01 0.03,0.01 0.03,0.01 0.03,0.01 0.02,0 0.02,0.01 0.02,0 0.02,0 0.02,0.01 0.02,0 0.02,0 0.02,0.01 0.03,0 0.02,0 0.03,0 0.02,0 0.03,0.01 0.03,0 0.03,0 0.03,0 0.03,0 0.03,0 0.03,0 0.04,0 0.03,0 0.04,0 c 0.24,0 0.32,0 0.32,0.19 0,0.12 -0.11,0.12 -0.15,0.12 -0.29,0 -1.03,-0.03 -1.32,-0.03 -0.29,0 -1.02,0.03 -1.32,0.03 -0.07,0 -0.2,0 -0.2,-0.2 0,-0.11 0.09,-0.11 0.28,-0.11 0.42,0 0.69,0 0.69,-0.19 0,-0.05 0,-0.07 -0.02,-0.16 l -1.35,-5.35 c -0.09,-0.37 -0.11,-0.47 -0.9,-0.47 -0.23,0 -0.32,0 -0.32,-0.2 0,-0.11 0.12,-0.11 0.15,-0.11 0.29,0 1.01,0.04 1.3,0.04 0.3,0 1.04,-0.04 1.34,-0.04 0.08,0 0.2,0 0.2,0.19 0,0.12 -0.08,0.12 -0.3,0.12 -0.18,0 -0.23,0 -0.43,0.02 -0.21,0.02 -0.25,0.06 -0.25,0.17 0,0.08 0.02,0.16 0.04,0.23 z" /><path
         style="fill:#000000;stroke-width:0"
         inkscape:connector-curvature="0"
         id="path11889"
         d="m 231.41,657.96 -0.01,0.14 0,0.14 0,0.13 -0.01,0.12 -0.01,0.13 -0.02,0.12 -0.02,0.11 -0.02,0.11 -0.02,0.11 -0.03,0.11 -0.04,0.1 -0.04,0.1 -0.04,0.1 -0.05,0.09 -0.05,0.1 -0.03,0.04 -0.03,0.05 c -0.21,0.32 -0.64,0.6 -1.2,0.6 v -0.2 c 0.38,0 0.74,-0.23 0.86,-0.63 0.11,-0.37 0.12,-0.87 0.12,-1.48 0,-0.52 0,-1.03 -0.09,-1.47 -0.14,-0.63 -0.61,-0.78 -0.89,-0.78 h 0 c -0.32,0 -0.75,0.18 -0.89,0.75 -0.09,0.42 -0.09,0.98 -0.09,1.5 0,0.51 0,1.04 0.1,1.42 0.15,0.55 0.59,0.69 0.88,0.69 v 0.2 c -1.62,0 -1.62,-1.9 -1.62,-2.4 0,-0.5 0,-2.36 1.62,-2.36 1.62,0 1.62,1.86 1.62,2.36 z" /><path
         style="fill:#000000;stroke-width:0"
         inkscape:connector-curvature="0"
         id="path11891"
         d="m 238.9,654.85 -0.01,0.01 0,0 0,0 0,0.01 0,0 0,0 0,0.01 0,0 0,0 0,0.01 -0.01,0 0,0.01 0,0 -0.01,0.01 0,0 -0.01,0.01 0,0.01 -0.01,0 0,0.01 0,0 -0.01,0.01 0,0 0,0 -0.01,0.01 0,0 -0.01,0.01 0,0 -0.01,0.01 0,0 -0.01,0.01 0,0 -0.01,0.01 0,0.01 -0.01,0 0,0.01 -0.01,0.01 -0.01,0 0,0.01 -0.01,0.01 -0.01,0 -0.01,0.01 0,0.01 c -1.25,1.25 -1.57,3.13 -1.57,4.65 0,1.73 0.38,3.45 1.61,4.7 0.13,0.12 0.13,0.14 0.13,0.17 0,0.07 -0.05,0.09 -0.1,0.09 -0.1,0 -1,-0.67 -1.59,-1.93 -0.5,-1.09 -0.62,-2.2 -0.62,-3.03 0,-0.78 0.11,-1.98 0.65,-3.1 0.6,-1.22 1.46,-1.87 1.56,-1.87 0.05,0 0.1,0.03 0.1,0.1 z" /><path
         style="fill:#000000;stroke-width:0"
         inkscape:connector-curvature="0"
         id="path11893"
         d="m 240.74,658 1.05,1.02 c 1.56,1.37 2.15,1.91 2.15,2.9 0,1.14 -0.89,1.93 -2.11,1.93 -1.12,0 -1.86,-0.91 -1.86,-1.8 0,-0.55 0.5,-0.55 0.53,-0.55 0.17,0 0.52,0.12 0.52,0.52 0,0.26 -0.18,0.52 -0.53,0.52 -0.08,0 -0.1,0 -0.13,-0.01 0.23,0.64 0.77,1.01 1.35,1.01 0.9,0 1.33,-0.8 1.33,-1.62 0,-0.79 -0.5,-1.58 -1.05,-2.19 l -1.91,-2.13 c -0.11,-0.11 -0.11,-0.13 -0.11,-0.37 h 3.69 l 0.28,1.73 h -0.24 c -0.05,-0.3 -0.12,-0.73 -0.22,-0.88 C 243.41,658 242.75,658 242.53,658 z" /><path
         style="fill:#000000;stroke-width:0"
         inkscape:connector-curvature="0"
         id="path11895"
         d="m 248.93,659.23 -0.01,0.11 0,0.11 -0.02,0.11 -0.01,0.1 -0.02,0.11 -0.03,0.1 -0.03,0.1 -0.03,0.1 -0.04,0.1 -0.04,0.09 -0.04,0.09 -0.05,0.09 -0.05,0.09 -0.06,0.08 -0.06,0.08 -0.06,0.07 -0.06,0.08 -0.07,0.06 -0.07,0.07 -0.08,0.06 -0.07,0.06 -0.08,0.05 -0.08,0.05 -0.09,0.04 -0.08,0.04 -0.09,0.04 -0.09,0.03 -0.1,0.02 -0.09,0.02 -0.1,0.02 -0.1,0 -0.09,0.01 c -0.48,0 -0.91,-0.16 -1.27,-0.51 v 1.94 c 0.2,-0.06 0.53,-0.13 0.85,-0.13 1.22,0 1.92,0.9 1.92,1.03 0,0.06 -0.03,0.11 -0.1,0.11 -0.01,0 -0.03,0 -0.08,-0.03 -0.2,-0.09 -0.69,-0.29 -1.35,-0.29 -0.4,0 -0.86,0.07 -1.33,0.28 -0.08,0.03 -0.1,0.03 -0.12,0.03 -0.1,0 -0.1,-0.08 -0.1,-0.24 v -2.94 c 0,-0.18 0,-0.26 0.14,-0.26 0.07,0 0.09,0.03 0.13,0.09 0.11,0.16 0.48,0.7 1.28,0.7 0.52,0 0.77,-0.46 0.85,-0.64 0.16,-0.37 0.18,-0.75 0.18,-1.25 0,-0.35 0,-0.94 -0.24,-1.36 -0.24,-0.39 -0.61,-0.65 -1.06,-0.65 -0.73,0 -1.3,0.53 -1.47,1.12 0.03,-0.01 0.06,-0.02 0.17,-0.02 0.33,0 0.5,0.25 0.5,0.48 0,0.24 -0.17,0.49 -0.5,0.49 -0.14,0 -0.48,-0.07 -0.48,-0.53 0,-0.85 0.68,-1.81 1.8,-1.81 1.15,0 2.17,0.95 2.17,2.21 z" /><path
         style="fill:#000000;stroke-width:0"
         inkscape:connector-curvature="0"
         id="path11897"
         d="m 253.8,664.31 0,0 0,0.01 0,0.01 0.01,0 0,0.01 0,0 0,0.01 0,0 0.01,0.01 0,0 0,0.01 0,0.01 0.01,0.01 0,0.01 0,0 0,0.01 0,0.01 0.01,0 0,0.01 0,0 0,0.01 0,0 0,0.01 0,0 0,0.01 0,0 0.01,0 0,0.01 0,0 0,0 0,0 0,0.01 0,0 0,0 0,0.01 c 0,0.11 -0.09,0.19 -0.2,0.19 -0.14,0 -0.18,-0.09 -0.21,-0.19 l -3.39,-9.36 C 250,655 250,654.97 250,654.95 c 0,-0.11 0.09,-0.2 0.2,-0.2 0.13,0 0.17,0.1 0.2,0.2 z" /><path
         style="fill:#000000;stroke-width:0"
         inkscape:connector-curvature="0"
         id="path11899"
         d="m 257.31,660.73 0.07,0.03 0.08,0.03 0.07,0.03 0.07,0.03 0.07,0.04 0.07,0.04 0.06,0.04 0.07,0.04 0.06,0.04 0.06,0.05 0.06,0.05 0.05,0.05 0.06,0.05 0.05,0.05 0.05,0.06 0.05,0.05 0.04,0.06 0.05,0.06 0.04,0.06 0.03,0.06 0.04,0.07 0.03,0.06 0.03,0.07 0.03,0.06 0.02,0.07 0.02,0.07 0.02,0.07 0.01,0.07 0.01,0.07 0.01,0.07 0.01,0.08 0,0.07 c 0,0.81 -0.88,1.37 -1.83,1.37 -1.01,0 -1.76,-0.59 -1.76,-1.35 0,-0.33 0.22,-0.52 0.5,-0.52 0.31,0 0.51,0.22 0.51,0.51 0,0.5 -0.47,0.5 -0.61,0.5 0.3,0.48 0.96,0.61 1.32,0.61 0.41,0 0.95,-0.22 0.95,-1.11 0,-0.12 -0.02,-0.7 -0.27,-1.13 -0.3,-0.48 -0.64,-0.51 -0.89,-0.52 -0.08,-0.01 -0.32,-0.03 -0.39,-0.03 -0.08,-0.01 -0.15,-0.02 -0.15,-0.12 0,-0.11 0.07,-0.11 0.24,-0.11 h 0.44 c 0.81,0 1.18,-0.67 1.18,-1.65 0,-1.35 -0.68,-1.64 -1.12,-1.64 -0.43,0 -1.18,0.17 -1.52,0.76 0.34,-0.05 0.65,0.17 0.65,0.55 0,0.35 -0.27,0.55 -0.55,0.55 -0.24,0 -0.56,-0.14 -0.56,-0.57 0,-0.91 0.92,-1.56 2.01,-1.56 1.21,0 2.12,0.9 2.12,1.91 0,0.82 -0.63,1.59 -1.66,1.8 z" /><path
         style="fill:#000000;stroke-width:0"
         inkscape:connector-curvature="0"
         id="path11901"
         d="m 263.98,660.41 0,0.15 0,0.15 -0.01,0.15 -0.01,0.15 0,0.15 -0.02,0.14 -0.01,0.15 -0.02,0.15 -0.02,0.14 -0.03,0.15 -0.03,0.14 -0.04,0.15 -0.04,0.14 -0.05,0.14 -0.06,0.14 -0.03,0.07 -0.03,0.07 c -0.46,0.95 -1.27,1.11 -1.69,1.11 -0.6,0 -1.32,-0.26 -1.73,-1.18 -0.32,-0.69 -0.37,-1.46 -0.37,-2.26 0,-0.74 0.04,-1.63 0.45,-2.39 0.43,-0.8 1.15,-1 1.64,-1 v 0.21 c -0.39,0 -0.98,0.25 -1.15,1.21 -0.12,0.59 -0.12,1.51 -0.12,2.09 0,0.64 0,1.29 0.09,1.83 0.18,1.18 0.93,1.27 1.18,1.27 0.33,0 0.98,-0.18 1.17,-1.16 0.1,-0.56 0.1,-1.31 0.1,-1.94 0,-0.74 0,-1.42 -0.11,-2.05 -0.15,-0.95 -0.71,-1.25 -1.16,-1.25 h 0 v -0.21 c 0.54,0 1.29,0.2 1.73,1.15 0.32,0.68 0.37,1.46 0.37,2.24 z" /><path
         style="fill:#000000;stroke-width:0"
         inkscape:connector-curvature="0"
         id="path11903"
         d="m 267.26,659.72 0,0.07 0,0.08 -0.01,0.08 0,0.08 -0.01,0.17 -0.01,0.17 -0.01,0.18 -0.03,0.19 -0.02,0.2 -0.03,0.2 -0.04,0.2 -0.05,0.21 -0.05,0.21 -0.06,0.21 -0.07,0.21 -0.08,0.21 -0.05,0.11 -0.04,0.11 -0.05,0.1 -0.05,0.11 c -0.59,1.22 -1.45,1.86 -1.55,1.86 -0.06,0 -0.1,-0.03 -0.1,-0.09 0,-0.03 0,-0.05 0.19,-0.23 0.97,-0.99 1.54,-2.57 1.54,-4.64 0,-1.7 -0.37,-3.45 -1.6,-4.7 -0.13,-0.12 -0.13,-0.14 -0.13,-0.17 0,-0.06 0.04,-0.1 0.1,-0.1 0.1,0 0.99,0.68 1.58,1.94 0.51,1.09 0.63,2.19 0.63,3.03 z" /></g>    <g
       id="g12631"
       transform="matrix(1.5396467,0,0,-1.5396467,-193.77008,1326.7645)"
       xml:space="preserve"
       stroke-miterlimit="10.433"
       font-style="normal"
       font-variant="normal"
       font-weight="normal"
       font-stretch="normal"
       font-size-adjust="none"
       letter-spacing="normal"
       word-spacing="normal"
       ns0:text="Notation: $I_i$ $(weight/value)$\n"
       ns0:preamble=""
       style="font-style:normal;font-variant:normal;font-weight:normal;font-stretch:normal;letter-spacing:normal;word-spacing:normal;text-anchor:start;fill:none;stroke:#000000;stroke-linecap:butt;stroke-linejoin:miter;stroke-miterlimit:10.43299961;stroke-opacity:1;stroke-dasharray:none;stroke-dashoffset:0"><path
         style="fill:#000000;stroke-width:0"
         inkscape:connector-curvature="0"
         d="m 225.74,663.89 -0.01,0.01 -0.01,0.01 0,0.01 -0.01,0.01 -0.01,0.01 0,0.01 -0.01,0 -0.01,0.01 0,0.01 -0.01,0 0,0.01 -0.01,0 -0.01,0.01 0,0 -0.01,0.01 -0.01,0 0,0 -0.01,0.01 -0.01,0 -0.01,0 -0.01,0 -0.01,0 -0.01,0.01 -0.01,0 -0.01,0 -0.01,0 -0.01,0 -0.02,0 -0.01,0 -0.01,0 0,0 -0.01,0 -0.01,0 -0.01,0 -0.01,0 h -1.69 v -0.31 h 0.29 c 0.15,0 0.35,-0.01 0.5,-0.02 0.22,-0.03 0.24,-0.04 0.24,-0.23 v -5.18 c 0,-0.27 0,-0.74 -1.03,-0.74 v -0.31 c 0.35,0.01 0.84,0.04 1.16,0.04 0.33,0 0.82,-0.03 1.17,-0.04 v 0.31 c -1.03,0 -1.03,0.47 -1.03,0.74 v 5.16 c 0.05,-0.05 0.06,-0.06 0.1,-0.12 l 4.06,-5.96 c 0.09,-0.12 0.1,-0.13 0.17,-0.13 0.14,0 0.14,0.07 0.14,0.26 v 5.49 c 0,0.26 0,0.73 1.03,0.73 v 0.31 c -0.35,-0.01 -0.84,-0.03 -1.17,-0.03 -0.33,0 -0.81,0.02 -1.16,0.03 v -0.31 c 1.02,0 1.02,-0.47 1.02,-0.73 v -4.25 z"
         id="path12633" /><path
         style="fill:#000000;stroke-width:0"
         inkscape:connector-curvature="0"
         d="m 235.59,659.36 0,0.12 -0.01,0.12 -0.02,0.11 -0.02,0.12 -0.02,0.11 -0.03,0.11 -0.03,0.11 -0.04,0.1 -0.05,0.1 -0.05,0.1 -0.05,0.1 -0.06,0.09 -0.06,0.1 -0.07,0.08 -0.06,0.09 -0.08,0.08 -0.07,0.08 -0.08,0.07 -0.09,0.07 -0.08,0.06 -0.09,0.07 -0.1,0.05 -0.09,0.05 -0.1,0.05 -0.1,0.04 -0.1,0.04 -0.1,0.03 -0.11,0.03 -0.11,0.02 -0.11,0.01 -0.11,0.01 -0.11,0 -0.01,-0.21 c 0.44,0 0.87,-0.22 1.13,-0.65 0.25,-0.43 0.25,-1 0.25,-1.38 0,-0.36 0,-0.89 -0.22,-1.33 -0.21,-0.45 -0.65,-0.74 -1.15,-0.74 h 0 c -0.43,0 -0.86,0.21 -1.13,0.67 -0.25,0.44 -0.25,1.04 -0.25,1.4 0,0.39 0,0.92 0.24,1.36 0.27,0.46 0.73,0.67 1.13,0.67 l 0.01,0.21 c -1.24,0 -2.21,-1.08 -2.21,-2.32 0,-1.28 1.04,-2.23 2.2,-2.23 1.21,0 2.21,0.97 2.21,2.23 z"
         id="path12635" /><path
         style="fill:#000000;stroke-width:0"
         inkscape:connector-curvature="0"
         d="m 237.61,661.21 h 1.42 v 0.31 h -1.42 v 1.82 h -0.25 c -0.01,-0.81 -0.31,-1.87 -1.29,-1.91 v -0.22 h 0.85 v -2.74 c 0,-1.23 0.93,-1.34 1.28,-1.34 0.71,0 0.99,0.7 0.99,1.34 v 0.56 h -0.25 v -0.54 c 0,-0.74 -0.3,-1.12 -0.67,-1.12 -0.66,0 -0.66,0.91 -0.66,1.08 z"
         id="path12637" /><path
         style="fill:#000000;stroke-width:0"
         inkscape:connector-curvature="0"
         d="m 243.07,657.99 0.01,-0.04 0,-0.03 0.01,-0.04 0.01,-0.04 0.01,-0.04 0.01,-0.03 0.01,-0.04 0.02,-0.03 0.01,-0.04 0.02,-0.03 0.01,-0.04 0.02,-0.03 0.02,-0.03 0.02,-0.04 0.03,-0.03 0.02,-0.03 0.03,-0.02 0.02,-0.03 0.03,-0.03 0.03,-0.02 0.03,-0.02 0.03,-0.03 0.03,-0.02 0.04,-0.01 0.03,-0.02 0.04,-0.01 0.03,-0.02 0.04,-0.01 0.04,0 0.04,-0.01 0.05,0 0.04,-0.01 c 0.21,0 0.81,0.14 0.81,0.95 v 0.55 h -0.24 v -0.55 c 0,-0.58 -0.25,-0.64 -0.36,-0.64 -0.33,0 -0.37,0.45 -0.37,0.5 v 1.99 c 0,0.41 0,0.8 -0.36,1.17 -0.39,0.39 -0.88,0.54 -1.36,0.54 -0.82,0 -1.5,-0.46 -1.5,-1.12 0,-0.29 0.19,-0.46 0.45,-0.46 0.28,0 0.46,0.19 0.46,0.45 0,0.12 -0.05,0.45 -0.51,0.46 0.27,0.35 0.76,0.46 1.08,0.46 0.49,0 1.05,-0.39 1.05,-1.27 v -0.37 -0.21 -0.99 c 0,-0.95 -0.71,-1.29 -1.16,-1.29 -0.49,0 -0.9,0.35 -0.9,0.85 0,0.54 0.42,1.37 2.06,1.43 h 0 v 0.21 c -0.5,-0.03 -1.2,-0.06 -1.83,-0.36 -0.74,-0.34 -0.99,-0.85 -0.99,-1.29 0,-0.81 0.96,-1.05 1.59,-1.05 0.66,0 1.11,0.39 1.3,0.86 z"
         id="path12639" /><path
         style="fill:#000000;stroke-width:0"
         inkscape:connector-curvature="0"
         d="m 246.46,661.21 h 1.42 v 0.31 h -1.42 v 1.82 h -0.25 c -0.01,-0.81 -0.31,-1.87 -1.28,-1.91 v -0.22 h 0.85 v -2.74 c 0,-1.23 0.92,-1.34 1.28,-1.34 0.71,0 0.98,0.7 0.98,1.34 v 0.56 h -0.25 v -0.54 c 0,-0.74 -0.29,-1.12 -0.66,-1.12 -0.67,0 -0.67,0.91 -0.67,1.08 z"
         id="path12641" /><path
         style="fill:#000000;stroke-width:0"
         inkscape:connector-curvature="0"
         d="m 250.38,661.63 -1.4,-0.11 v -0.31 c 0.65,0 0.74,-0.06 0.74,-0.55 v -2.67 c 0,-0.45 -0.11,-0.45 -0.78,-0.45 v -0.31 c 0.32,0.01 0.86,0.04 1.1,0.04 0.35,0 0.7,-0.03 1.03,-0.04 v 0.31 c -0.65,0 -0.69,0.05 -0.69,0.44 z"
         id="path12643" /><path
         style="fill:#000000;stroke-width:0"
         inkscape:connector-curvature="0"
         d="m 250.42,663.35 0,0.03 -0.01,0.03 0,0.03 -0.01,0.03 0,0.02 -0.01,0.03 -0.01,0.03 -0.01,0.02 -0.01,0.02 -0.01,0.03 -0.01,0.02 -0.02,0.02 -0.01,0.02 -0.02,0.02 -0.02,0.02 -0.01,0.02 -0.02,0.01 -0.02,0.02 -0.02,0.01 -0.02,0.02 -0.02,0.01 -0.03,0.01 -0.02,0.01 -0.02,0.01 -0.03,0.01 -0.02,0.01 -0.02,0.01 -0.03,0 -0.02,0.01 -0.03,0 -0.03,0 -0.02,0 c -0.31,0 -0.53,-0.27 -0.53,-0.53 0,-0.26 0.22,-0.52 0.53,-0.52 0.28,0 0.53,0.21 0.53,0.52 z"
         id="path12645" /><path
         style="fill:#000000;stroke-width:0"
         inkscape:connector-curvature="0"
         d="m 256.07,659.36 0,0.12 -0.01,0.12 -0.02,0.11 -0.02,0.12 -0.02,0.11 -0.03,0.11 -0.04,0.11 -0.04,0.1 -0.04,0.1 -0.05,0.1 -0.05,0.1 -0.06,0.09 -0.06,0.1 -0.07,0.08 -0.07,0.09 -0.07,0.08 -0.08,0.08 -0.08,0.07 -0.08,0.07 -0.09,0.06 -0.08,0.07 -0.1,0.05 -0.09,0.05 -0.1,0.05 -0.1,0.04 -0.1,0.04 -0.1,0.03 -0.11,0.03 -0.11,0.02 -0.11,0.01 -0.11,0.01 -0.11,0 -0.01,-0.21 c 0.44,0 0.87,-0.22 1.13,-0.65 0.25,-0.43 0.25,-1 0.25,-1.38 0,-0.36 0,-0.89 -0.22,-1.33 -0.21,-0.45 -0.65,-0.74 -1.15,-0.74 h 0 c -0.43,0 -0.86,0.21 -1.13,0.67 -0.25,0.44 -0.25,1.04 -0.25,1.4 0,0.39 0,0.92 0.24,1.36 0.26,0.46 0.73,0.67 1.13,0.67 l 0.01,0.21 c -1.24,0 -2.21,-1.08 -2.21,-2.32 0,-1.28 1.04,-2.23 2.2,-2.23 1.2,0 2.21,0.97 2.21,2.23 z"
         id="path12647" /><path
         style="fill:#000000;stroke-width:0"
         inkscape:connector-curvature="0"
         d="m 257.46,660.65 v -2.66 c 0,-0.45 -0.11,-0.45 -0.78,-0.45 v -0.31 c 0.35,0.01 0.86,0.04 1.13,0.04 0.26,0 0.77,-0.03 1.11,-0.04 v 0.31 c -0.66,0 -0.78,0 -0.78,0.45 v 1.83 c 0,1.03 0.71,1.59 1.35,1.59 0.62,0 0.74,-0.54 0.74,-1.11 v -2.31 c 0,-0.45 -0.12,-0.45 -0.78,-0.45 v -0.31 c 0.35,0.01 0.85,0.04 1.12,0.04 0.26,0 0.78,-0.03 1.12,-0.04 v 0.31 c -0.52,0 -0.77,0 -0.78,0.3 v 1.9 c 0,0.85 0,1.16 -0.31,1.52 -0.14,0.17 -0.46,0.37 -1.04,0.37 -0.73,0 -1.2,-0.43 -1.47,-1.05 v 1.05 l -1.41,-0.11 v -0.31 c 0.7,0 0.78,-0.07 0.78,-0.56 z"
         id="path12649" /><path
         style="fill:#000000;stroke-width:0"
         inkscape:connector-curvature="0"
         d="m 263.81,660.99 0,0.03 0,0.02 -0.01,0.03 0,0.03 -0.01,0.02 0,0.03 -0.01,0.02 -0.01,0.02 -0.01,0.03 -0.01,0.02 -0.02,0.02 -0.01,0.02 -0.02,0.02 -0.01,0.02 -0.02,0.02 -0.02,0.02 -0.01,0.02 -0.02,0.02 -0.02,0.01 -0.02,0.02 -0.03,0.01 -0.02,0.01 -0.02,0.01 -0.02,0.01 -0.03,0.01 -0.02,0.01 -0.03,0.01 -0.02,0.01 -0.03,0 -0.02,0 -0.03,0.01 -0.03,0 c -0.29,0 -0.52,-0.24 -0.52,-0.53 0,-0.29 0.23,-0.53 0.52,-0.53 0.29,0 0.53,0.24 0.53,0.53 z"
         id="path12651" /><path
         style="fill:#000000;stroke-width:0"
         inkscape:connector-curvature="0"
         d="m 263.81,657.76 0,0.03 0,0.03 -0.01,0.02 0,0.03 -0.01,0.02 0,0.03 -0.01,0.02 -0.01,0.03 -0.01,0.02 -0.01,0.02 -0.02,0.02 -0.01,0.03 -0.02,0.02 -0.01,0.02 -0.02,0.01 -0.02,0.02 -0.01,0.02 -0.02,0.02 -0.02,0.01 -0.02,0.02 -0.03,0.01 -0.02,0.01 -0.02,0.02 -0.02,0.01 -0.03,0.01 -0.02,0 -0.03,0.01 -0.02,0.01 -0.03,0 -0.02,0.01 -0.03,0 -0.03,0 c -0.29,0 -0.52,-0.24 -0.52,-0.53 0,-0.29 0.23,-0.53 0.52,-0.53 0.29,0 0.53,0.24 0.53,0.53 z"
         id="path12653" /><path
         style="fill:#000000;stroke-width:0"
         inkscape:connector-curvature="0"
         d="m 272.82,663.26 0,0.03 0.01,0.03 0.01,0.03 0.01,0.03 0.01,0.02 0,0.03 0.01,0.02 0.01,0.03 0.01,0.02 0.02,0.02 0.01,0.02 0.01,0.02 0.02,0.01 0.02,0.02 0.02,0.01 0.02,0.02 0.02,0.01 0.02,0.01 0.03,0.01 0.03,0.01 0.03,0.01 0.02,0 0.02,0.01 0.02,0 0.02,0 0.02,0.01 0.02,0 0.02,0 0.02,0.01 0.03,0 0.02,0 0.03,0 0.02,0 0.03,0.01 0.03,0 0.03,0 0.03,0 0.03,0 0.03,0 0.03,0 0.04,0 0.03,0 0.04,0 c 0.24,0 0.32,0 0.32,0.19 0,0.12 -0.11,0.12 -0.15,0.12 -0.29,0 -1.03,-0.03 -1.31,-0.03 -0.3,0 -1.03,0.03 -1.33,0.03 -0.07,0 -0.2,0 -0.2,-0.2 0,-0.11 0.09,-0.11 0.28,-0.11 0.42,0 0.69,0 0.69,-0.19 0,-0.05 0,-0.07 -0.02,-0.16 l -1.34,-5.35 c -0.09,-0.37 -0.12,-0.47 -0.91,-0.47 -0.23,0 -0.32,0 -0.32,-0.2 0,-0.11 0.12,-0.11 0.15,-0.11 0.29,0 1.02,0.04 1.31,0.04 0.29,0 1.03,-0.04 1.33,-0.04 0.08,0 0.2,0 0.2,0.19 0,0.12 -0.08,0.12 -0.3,0.12 -0.18,0 -0.23,0 -0.43,0.02 -0.21,0.02 -0.25,0.06 -0.25,0.17 0,0.08 0.02,0.16 0.04,0.23 z"
         id="path12655" /><path
         style="fill:#000000;stroke-width:0"
         inkscape:connector-curvature="0"
         d="m 275.73,660.09 0,0.01 0,0.01 0,0.01 0,0.01 -0.01,0.01 0,0.01 0,0.01 -0.01,0.02 0,0.01 -0.01,0.01 0,0.01 -0.01,0.01 0,0.01 -0.01,0.01 -0.01,0.01 -0.01,0.01 0,0.01 -0.01,0.01 -0.01,0.01 -0.01,0.01 -0.02,0 -0.01,0.01 -0.01,0.01 -0.01,0.01 -0.02,0 -0.01,0.01 -0.01,0 -0.02,0 -0.02,0.01 -0.01,0 -0.02,0 -0.02,0 c -0.19,0 -0.39,-0.18 -0.39,-0.38 0,-0.12 0.09,-0.26 0.28,-0.26 0.2,0 0.39,0.19 0.39,0.38 z"
         id="path12657" /><path
         style="fill:#000000;stroke-width:0"
         inkscape:connector-curvature="0"
         d="m 274.31,656.55 -0.01,-0.01 0,-0.02 -0.01,-0.03 -0.01,-0.02 0,-0.02 -0.01,-0.01 0,-0.02 -0.01,-0.02 0,-0.02 0,-0.02 -0.01,-0.01 0,-0.01 0,-0.01 0,-0.01 0,-0.01 0,-0.02 0,-0.01 0,-0.01 0,-0.01 c 0,-0.32 0.28,-0.59 0.66,-0.59 0.7,0 1,0.96 1,1.06 0,0.1 -0.09,0.1 -0.11,0.1 -0.1,0 -0.1,-0.05 -0.13,-0.12 -0.16,-0.56 -0.47,-0.84 -0.74,-0.84 -0.14,0 -0.17,0.09 -0.17,0.24 0,0.16 0.04,0.29 0.11,0.44 0.07,0.19 0.14,0.38 0.22,0.56 0.06,0.17 0.31,0.8 0.34,0.88 0.02,0.07 0.04,0.16 0.04,0.23 0,0.32 -0.28,0.59 -0.66,0.59 -0.69,0 -1.01,-0.95 -1.01,-1.07 0,-0.09 0.1,-0.09 0.12,-0.09 0.1,0 0.1,0.04 0.13,0.11 0.18,0.6 0.48,0.85 0.74,0.85 0.11,0 0.17,-0.05 0.17,-0.24 0,-0.16 -0.04,-0.27 -0.21,-0.7 z"
         id="path12659" /><path
         style="fill:#000000;stroke-width:0"
         inkscape:connector-curvature="0"
         d="m 283.4,654.85 0,0.01 0,0 0,0 0,0.01 0,0 0,0 0,0.01 0,0 0,0 0,0.01 -0.01,0 0,0.01 0,0 -0.01,0.01 0,0 -0.01,0.01 0,0.01 -0.01,0 0,0.01 0,0 -0.01,0.01 0,0 0,0 -0.01,0.01 0,0 -0.01,0.01 0,0 -0.01,0.01 0,0 -0.01,0.01 0,0 -0.01,0.01 0,0.01 -0.01,0 -0.01,0.01 0,0.01 -0.01,0 -0.01,0.01 0,0.01 -0.01,0 -0.01,0.01 -0.01,0.01 c -1.24,1.25 -1.56,3.13 -1.56,4.65 0,1.73 0.38,3.45 1.6,4.7 0.13,0.12 0.13,0.14 0.13,0.17 0,0.07 -0.04,0.09 -0.1,0.09 -0.1,0 -0.99,-0.67 -1.58,-1.93 -0.51,-1.09 -0.62,-2.2 -0.62,-3.03 0,-0.78 0.1,-1.98 0.65,-3.1 0.6,-1.22 1.45,-1.87 1.55,-1.87 0.06,0 0.1,0.03 0.1,0.1 z"
         id="path12661" /><path
         style="fill:#000000;stroke-width:0"
         inkscape:connector-curvature="0"
         d="m 288.58,660.6 0.01,0.02 0,0.03 0.01,0.02 0,0.02 0.01,0.02 0,0.03 0.02,0.05 0.01,0.05 0.01,0.05 0.01,0.05 0.02,0.05 0,0.02 0.01,0.02 0,0.02 0.01,0.03 0,0.02 0.01,0.02 0,0.02 0.01,0.01 0,0.02 0,0.02 0.01,0.01 0,0.01 0,0.01 0,0.01 0,0.01 0,0.01 c 0,0.18 -0.14,0.27 -0.29,0.27 -0.12,0 -0.3,-0.08 -0.36,-0.28 -0.03,-0.07 -0.5,-1.97 -0.57,-2.23 -0.07,-0.29 -0.09,-0.47 -0.09,-0.65 0,-0.11 0,-0.13 0.01,-0.18 -0.23,-0.53 -0.53,-0.84 -0.92,-0.84 -0.79,0 -0.79,0.74 -0.79,0.91 0,0.32 0.05,0.7 0.51,1.92 0.11,0.3 0.17,0.44 0.17,0.64 0,0.45 -0.32,0.82 -0.81,0.82 -0.95,0 -1.32,-1.45 -1.32,-1.53 0,-0.1 0.1,-0.1 0.12,-0.1 0.1,0 0.11,0.02 0.16,0.17 0.27,0.93 0.66,1.24 1.01,1.24 0.09,0 0.25,-0.01 0.25,-0.33 0,-0.25 -0.11,-0.53 -0.18,-0.7 -0.44,-1.17 -0.56,-1.62 -0.56,-2 0,-0.91 0.67,-1.25 1.41,-1.25 0.17,0 0.64,0 1.04,0.69 0.26,-0.64 0.94,-0.69 1.24,-0.69 0.75,0 1.19,0.62 1.44,1.22 0.34,0.77 0.66,2.1 0.66,2.58 0,0.55 -0.27,0.7 -0.44,0.7 -0.25,0 -0.49,-0.26 -0.49,-0.48 0,-0.13 0.05,-0.19 0.15,-0.27 0.1,-0.11 0.35,-0.37 0.35,-0.84 0,-0.34 -0.29,-1.32 -0.54,-1.82 -0.26,-0.53 -0.61,-0.88 -1.1,-0.88 -0.47,0 -0.74,0.3 -0.74,0.87 0,0.28 0.07,0.58 0.12,0.72 z"
         id="path12663" /><path
         style="fill:#000000;stroke-width:0"
         inkscape:connector-curvature="0"
         d="m 293.25,659.53 0.03,0 0.03,0 0.03,0 0.04,0 0.03,0 0.04,0 0.04,0 0.05,0.01 0.04,0 0.05,0 0.05,0 0.04,0.01 0.05,0 0.06,0.01 0.1,0.01 0.11,0.01 0.11,0.01 0.1,0.02 0.11,0.02 0.11,0.03 0.05,0.01 0.05,0.02 0.05,0.01 0.05,0.02 0.05,0.02 0.05,0.02 c 0.7,0.3 0.75,0.88 0.75,1.02 0,0.44 -0.38,0.85 -1.07,0.85 v -0.22 c 0.47,0 0.74,-0.29 0.74,-0.63 0,-1.03 -1.59,-1.03 -2,-1.03 h -0.41 c 0.39,1.51 1.41,1.66 1.67,1.66 v 0.22 c -1.1,0 -2.6,-0.97 -2.6,-2.71 0,-1.01 0.58,-1.79 1.56,-1.79 1.42,0 2.26,1.05 2.26,1.17 0,0.06 -0.06,0.13 -0.12,0.13 -0.05,0 -0.07,-0.02 -0.13,-0.1 -0.79,-0.99 -1.87,-0.99 -1.99,-0.99 -0.78,0 -0.87,0.84 -0.87,1.16 0,0.12 0.01,0.42 0.16,1.03 z"
         id="path12665" /><path
         style="fill:#000000;stroke-width:0"
         inkscape:connector-curvature="0"
         d="m 298.85,663.44 0,0.02 0,0.02 0,0.02 -0.01,0.02 0,0.01 0,0.02 -0.01,0.02 0,0.01 -0.01,0.02 -0.01,0.01 -0.01,0.02 -0.01,0.01 0,0.02 -0.01,0.01 -0.02,0.01 -0.01,0.02 -0.01,0.01 -0.01,0.01 -0.02,0.01 -0.01,0.01 -0.01,0.01 -0.02,0.01 -0.02,0.01 -0.01,0 -0.02,0.01 -0.02,0.01 -0.02,0 -0.02,0 -0.02,0.01 -0.02,0 -0.02,0 -0.02,0 c -0.27,0 -0.53,-0.26 -0.53,-0.52 0,-0.19 0.13,-0.36 0.37,-0.36 0.23,0 0.53,0.23 0.53,0.52 z"
         id="path12667" /><path
         style="fill:#000000;stroke-width:0"
         inkscape:connector-curvature="0"
         d="m 298.1,659.71 0.01,0.02 0.01,0.03 0.01,0.02 0,0.02 0.01,0.03 0.01,0.02 0.01,0.01 0.01,0.02 0,0.02 0.01,0.02 0.01,0.01 0,0.02 0.01,0.01 0,0.02 0.01,0.02 0.01,0.03 0.01,0.03 0.01,0.02 0,0.01 0.01,0.02 0,0.01 0.01,0.02 0.01,0.02 0,0.02 0.01,0.01 0.01,0.03 0.01,0.02 0,0.02 0.01,0.02 c 0.08,0.2 0.13,0.34 0.13,0.53 0,0.45 -0.32,0.82 -0.81,0.82 -0.94,0 -1.32,-1.45 -1.32,-1.53 0,-0.1 0.1,-0.1 0.12,-0.1 0.1,0 0.11,0.02 0.16,0.17 0.27,0.94 0.67,1.24 1.01,1.24 0.08,0 0.25,0 0.25,-0.32 0,-0.21 -0.07,-0.42 -0.11,-0.52 -0.08,-0.26 -0.53,-1.41 -0.69,-1.84 -0.1,-0.25 -0.23,-0.58 -0.23,-0.79 0,-0.47 0.34,-0.81 0.82,-0.81 0.93,0 1.3,1.44 1.3,1.53 0,0.1 -0.09,0.1 -0.12,0.1 -0.1,0 -0.1,-0.04 -0.15,-0.18 -0.18,-0.63 -0.5,-1.24 -1.01,-1.24 -0.17,0 -0.24,0.1 -0.24,0.33 0,0.25 0.06,0.39 0.29,0.99 z"
         id="path12669" /><path
         style="fill:#000000;stroke-width:0"
         inkscape:connector-curvature="0"
         d="m 304.14,660.98 0.01,0.01 0,0.01 0,0.01 0,0.01 0.01,0.02 0,0.02 0,0.01 0.01,0.01 0,0.01 0,0.01 0,0.01 0,0.01 0,0.01 0,0 0,0.01 0,0.01 0,0 0,0.01 c 0,0.17 -0.12,0.27 -0.28,0.27 -0.1,0 -0.37,-0.07 -0.41,-0.43 -0.18,0.37 -0.53,0.63 -0.93,0.63 l 0.01,-0.22 c 0.66,0 0.8,-0.81 0.8,-0.86 0,-0.05 -0.02,-0.11 -0.03,-0.15 l -0.48,-1.89 c -0.06,-0.26 -0.29,-0.51 -0.51,-0.7 -0.21,-0.18 -0.51,-0.36 -0.8,-0.36 -0.5,0 -0.65,0.52 -0.65,0.92 0,0.47 0.29,1.65 0.56,2.15 0.27,0.49 0.69,0.89 1.11,0.89 l -0.01,0.22 c -1.13,0 -2.37,-1.4 -2.37,-2.83 0,-0.98 0.61,-1.57 1.33,-1.57 0.58,0 1.05,0.47 1.15,0.58 l 0.01,-0.01 c -0.21,-0.88 -0.33,-1.29 -0.33,-1.31 -0.04,-0.09 -0.38,-1.07 -1.43,-1.07 -0.19,0 -0.52,0.01 -0.8,0.1 0.3,0.09 0.41,0.34 0.41,0.51 0,0.16 -0.11,0.35 -0.38,0.35 -0.22,0 -0.53,-0.18 -0.53,-0.58 0,-0.4 0.37,-0.6 1.32,-0.6 1.24,0 1.96,0.77 2.11,1.37 z"
         id="path12671" /><path
         style="fill:#000000;stroke-width:0"
         inkscape:connector-curvature="0"
         d="m 307.42,664.02 0,0 0,0 0,0 0,0.01 0,0 0,0 0,0 0,0.01 0,0 0,0.01 0,0 0,0 0,0.01 0,0 -0.01,0.01 0,0 0,0.01 -0.01,0 0,0.01 0,0 -0.01,0.01 0,0 0,0 -0.01,0 0,0.01 0,0 0,0 -0.01,0 0,0 0,0.01 -0.01,0 0,0 -0.01,0 0,0 0,0 -0.01,0 0,0 -0.01,0.01 0,0 -0.01,0 0,0 -0.01,0 0,0 -0.01,0 0,0 c -0.23,0 -0.96,-0.08 -1.22,-0.1 -0.08,-0.01 -0.19,-0.02 -0.19,-0.2 0,-0.12 0.09,-0.12 0.24,-0.12 0.48,0 0.5,-0.07 0.5,-0.17 l -0.03,-0.2 -1.44,-5.72 c -0.04,-0.14 -0.04,-0.16 -0.04,-0.22 0,-0.23 0.2,-0.27 0.28,-0.27 0.16,0 0.32,0.11 0.37,0.25 l 0.19,0.76 0.22,0.89 c 0.06,0.22 0.12,0.44 0.17,0.67 0.02,0.06 0.1,0.39 0.11,0.45 0.03,0.08 0.34,0.64 0.68,0.91 0.21,0.16 0.52,0.35 0.95,0.35 0.43,0 0.54,-0.34 0.54,-0.7 0,-0.54 -0.38,-1.62 -0.62,-2.22 -0.08,-0.23 -0.13,-0.35 -0.13,-0.55 0,-0.47 0.35,-0.81 0.82,-0.81 0.93,0 1.3,1.45 1.3,1.53 0,0.1 -0.09,0.1 -0.12,0.1 -0.1,0 -0.1,-0.04 -0.15,-0.18 -0.15,-0.53 -0.46,-1.24 -1.01,-1.24 -0.17,0 -0.24,0.1 -0.24,0.33 0,0.25 0.09,0.49 0.18,0.71 0.16,0.42 0.61,1.61 0.61,2.18 0,0.65 -0.4,1.07 -1.15,1.07 -0.63,0 -1.1,-0.31 -1.47,-0.77 z"
         id="path12673" /><path
         style="fill:#000000;stroke-width:0"
         inkscape:connector-curvature="0"
         d="m 312.36,661.21 h 0.93 c 0.2,0 0.3,0 0.3,0.2 0,0.11 -0.1,0.11 -0.28,0.11 h -0.87 c 0.36,1.41 0.41,1.61 0.41,1.66 0,0.17 -0.12,0.27 -0.29,0.27 -0.03,0 -0.31,-0.01 -0.4,-0.35 l -0.39,-1.58 h -0.93 c -0.2,0 -0.3,0 -0.3,-0.19 0,-0.12 0.08,-0.12 0.28,-0.12 h 0.87 c -0.71,-2.82 -0.75,-2.99 -0.75,-3.17 0,-0.54 0.37,-0.91 0.91,-0.91 1.02,0 1.58,1.45 1.58,1.53 0,0.1 -0.08,0.1 -0.12,0.1 -0.09,0 -0.1,-0.04 -0.15,-0.14 -0.42,-1.04 -0.95,-1.28 -1.29,-1.28 -0.21,0 -0.31,0.13 -0.31,0.46 0,0.24 0.02,0.31 0.06,0.48 z"
         id="path12675" /><path
         style="fill:#000000;stroke-width:0"
         inkscape:connector-curvature="0"
         d="m 318.27,664.31 0.01,0 0,0.01 0,0.01 0,0 0,0.01 0.01,0 0,0.01 0,0.01 0.01,0.01 0,0.01 0,0.01 0.01,0.01 0,0 0,0.01 0,0.01 0,0.01 0.01,0 0,0.01 0,0 0,0.01 0,0 0,0.01 0,0 0,0 0,0.01 0,0 0,0 0,0.01 0,0 0,0 0,0 0,0 0,0 0,0.01 0,0 c 0,0.11 -0.09,0.19 -0.2,0.19 -0.07,0 -0.13,-0.02 -0.16,-0.08 l -3.46,-9.47 c -0.05,-0.13 -0.05,-0.17 -0.05,-0.18 0,-0.11 0.09,-0.2 0.2,-0.2 0.13,0 0.16,0.07 0.22,0.24 z"
         id="path12677" /><path
         style="fill:#000000;stroke-width:0"
         inkscape:connector-curvature="0"
         d="m 323.54,660.93 0,0.02 0,0.03 0,0.02 0,0.03 0,0.02 0,0.02 0,0.02 -0.01,0.02 0,0.04 -0.01,0.04 -0.01,0.04 -0.01,0.04 -0.01,0.03 -0.01,0.03 -0.01,0.03 -0.02,0.03 -0.01,0.02 -0.02,0.03 -0.01,0.02 -0.02,0.02 -0.01,0.02 -0.02,0.02 -0.02,0.01 -0.02,0.02 -0.01,0.01 -0.02,0.01 -0.02,0.01 -0.02,0.01 -0.02,0.01 -0.02,0.01 -0.02,0 -0.01,0.01 -0.02,0 -0.02,0 -0.02,0.01 -0.01,0 c -0.25,0 -0.49,-0.26 -0.49,-0.48 0,-0.13 0.05,-0.19 0.16,-0.3 0.21,-0.2 0.34,-0.46 0.34,-0.81 0,-0.42 -0.61,-2.7 -1.77,-2.7 -0.51,0 -0.74,0.35 -0.74,0.87 0,0.56 0.27,1.28 0.58,2.1 0.07,0.17 0.12,0.31 0.12,0.5 0,0.45 -0.32,0.82 -0.82,0.82 -0.94,0 -1.31,-1.45 -1.31,-1.53 0,-0.1 0.1,-0.1 0.12,-0.1 0.09,0 0.1,0.02 0.15,0.17 0.29,1.01 0.72,1.24 1.01,1.24 0.08,0 0.25,0 0.25,-0.32 0,-0.25 -0.1,-0.52 -0.17,-0.7 -0.44,-1.15 -0.57,-1.61 -0.57,-2.03 0,-1.08 0.88,-1.23 1.34,-1.23 1.67,0 2.23,3.28 2.23,3.8 z"
         id="path12679" /><path
         style="fill:#000000;stroke-width:0"
         inkscape:connector-curvature="0"
         d="m 327.79,660.99 -0.02,0.03 -0.02,0.04 -0.02,0.03 -0.02,0.03 -0.02,0.03 -0.02,0.04 -0.02,0.03 -0.02,0.02 -0.02,0.03 -0.03,0.03 -0.02,0.03 -0.02,0.02 -0.03,0.03 -0.03,0.02 -0.02,0.02 -0.03,0.03 -0.03,0.02 -0.03,0.02 -0.03,0.01 -0.03,0.02 -0.03,0.02 -0.03,0.01 -0.04,0.02 -0.03,0.01 -0.04,0.01 -0.03,0.01 -0.04,0.01 -0.04,0 -0.04,0.01 -0.04,0 -0.04,0.01 -0.04,0 c -1.16,0 -2.4,-1.47 -2.4,-2.91 0,-0.94 0.55,-1.59 1.33,-1.59 l 0.02,0.21 c -0.5,0 -0.64,0.55 -0.64,0.94 0,0.5 0.32,1.72 0.55,2.17 0.31,0.59 0.75,0.96 1.15,0.96 0.65,0 0.79,-0.82 0.79,-0.88 0,-0.06 -0.02,-0.12 -0.03,-0.17 l -0.5,-1.94 c -0.05,-0.18 -0.05,-0.2 -0.2,-0.37 -0.44,-0.55 -0.84,-0.71 -1.12,-0.71 l -0.02,-0.21 c 0.2,0 0.69,0.03 1.29,0.74 0.08,-0.42 0.43,-0.74 0.9,-0.74 0.35,0 0.58,0.22 0.74,0.54 0.17,0.36 0.3,0.97 0.3,0.99 0,0.1 -0.09,0.1 -0.12,0.1 -0.1,0 -0.11,-0.04 -0.14,-0.18 -0.17,-0.65 -0.35,-1.24 -0.75,-1.24 -0.27,0 -0.3,0.26 -0.3,0.46 0,0.22 0.02,0.3 0.13,0.74 0.11,0.41 0.13,0.51 0.22,0.89 l 0.35,1.39 c 0.07,0.28 0.07,0.3 0.07,0.34 0,0.17 -0.12,0.27 -0.29,0.27 -0.23,0 -0.38,-0.22 -0.41,-0.44 z"
         id="path12681" /><path
         style="fill:#000000;stroke-width:0"
         inkscape:connector-curvature="0"
         d="m 331.91,664.02 0,0 0,0 0,0 0,0.01 0,0 0,0 0,0 0,0.01 0,0 0,0.01 -0.01,0 0,0 0,0.01 0,0 0,0.01 -0.01,0 0,0.01 0,0 0,0.01 -0.01,0 0,0.01 -0.01,0 0,0 0,0 0,0.01 -0.01,0 0,0 0,0 -0.01,0 0,0.01 0,0 -0.01,0 0,0 -0.01,0 0,0 0,0 -0.01,0 0,0.01 -0.01,0 0,0 -0.01,0 0,0 -0.01,0 -0.01,0 0,0 c -0.23,0 -0.96,-0.08 -1.21,-0.1 -0.08,-0.01 -0.19,-0.02 -0.19,-0.21 0,-0.11 0.1,-0.11 0.24,-0.11 0.48,0 0.49,-0.09 0.49,-0.17 l -0.03,-0.2 -1.25,-4.96 c -0.03,-0.11 -0.05,-0.18 -0.05,-0.34 0,-0.57 0.44,-0.91 0.9,-0.91 0.33,0 0.58,0.19 0.75,0.55 0.18,0.38 0.3,0.96 0.3,0.98 0,0.1 -0.09,0.1 -0.12,0.1 -0.1,0 -0.11,-0.04 -0.14,-0.18 -0.17,-0.65 -0.36,-1.24 -0.76,-1.24 -0.29,0 -0.29,0.32 -0.29,0.46 0,0.24 0.01,0.29 0.06,0.48 z"
         id="path12683" /><path
         style="fill:#000000;stroke-width:0"
         inkscape:connector-curvature="0"
         d="m 335.99,657.79 0.01,-0.04 0.01,-0.03 0.01,-0.04 0.02,-0.03 0.01,-0.04 0.02,-0.03 0.02,-0.03 0.02,-0.03 0.02,-0.03 0.02,-0.03 0.03,-0.03 0.02,-0.03 0.03,-0.02 0.02,-0.03 0.03,-0.02 0.03,-0.02 0.03,-0.03 0.03,-0.02 0.03,-0.01 0.03,-0.02 0.03,-0.02 0.04,-0.01 0.03,-0.02 0.04,-0.01 0.03,-0.01 0.04,-0.01 0.04,-0.01 0.03,0 0.04,-0.01 0.04,0 0.04,0 0.04,0 c 0.35,0 0.58,0.22 0.74,0.54 0.17,0.36 0.3,0.97 0.3,0.99 0,0.1 -0.09,0.1 -0.12,0.1 -0.1,0 -0.11,-0.04 -0.14,-0.18 -0.14,-0.56 -0.33,-1.24 -0.75,-1.24 -0.21,0 -0.31,0.13 -0.31,0.46 0,0.22 0.12,0.69 0.2,1.03 l 0.28,1.08 c 0.03,0.15 0.13,0.52 0.17,0.67 0.05,0.23 0.15,0.61 0.15,0.67 0,0.18 -0.14,0.27 -0.29,0.27 -0.05,0 -0.31,-0.01 -0.39,-0.35 -0.19,-0.73 -0.63,-2.46 -0.74,-2.99 -0.01,-0.04 -0.41,-0.84 -1.14,-0.84 -0.52,0 -0.62,0.45 -0.62,0.82 0,0.56 0.28,1.34 0.54,2.02 0.12,0.3 0.17,0.44 0.17,0.63 0,0.45 -0.32,0.82 -0.81,0.82 -0.95,0 -1.32,-1.45 -1.32,-1.53 0,-0.1 0.1,-0.1 0.12,-0.1 0.1,0 0.11,0.02 0.16,0.17 0.25,0.87 0.63,1.24 1.01,1.24 0.09,0 0.24,-0.01 0.24,-0.33 0,-0.24 -0.11,-0.53 -0.17,-0.68 -0.36,-0.98 -0.57,-1.6 -0.57,-2.08 0,-0.95 0.69,-1.19 1.22,-1.19 0.66,0 1.02,0.44 1.19,0.66 z"
         id="path12685" /><path
         style="fill:#000000;stroke-width:0"
         inkscape:connector-curvature="0"
         d="m 340.07,659.53 0.03,0 0.03,0 0.03,0 0.04,0 0.03,0 0.04,0 0.04,0 0.05,0.01 0.04,0 0.05,0 0.05,0 0.05,0.01 0.05,0 0.05,0.01 0.1,0.01 0.11,0.01 0.11,0.01 0.1,0.02 0.11,0.02 0.11,0.03 0.05,0.01 0.05,0.02 0.05,0.01 0.05,0.02 0.05,0.02 0.05,0.02 c 0.7,0.3 0.75,0.88 0.75,1.02 0,0.44 -0.38,0.85 -1.07,0.85 v -0.22 c 0.47,0 0.74,-0.29 0.74,-0.63 0,-1.03 -1.59,-1.03 -2,-1.03 h -0.41 c 0.39,1.51 1.41,1.66 1.67,1.66 v 0.22 c -1.1,0 -2.6,-0.97 -2.6,-2.71 0,-1.01 0.58,-1.79 1.56,-1.79 1.42,0 2.25,1.05 2.25,1.17 0,0.06 -0.05,0.13 -0.11,0.13 -0.05,0 -0.07,-0.02 -0.13,-0.1 -0.79,-0.99 -1.87,-0.99 -1.99,-0.99 -0.78,0 -0.87,0.84 -0.87,1.16 0,0.12 0.01,0.42 0.16,1.03 z"
         id="path12687" /><path
         style="fill:#000000;stroke-width:0"
         inkscape:connector-curvature="0"
         d="m 345.72,659.72 0,0.07 0,0.08 0,0.08 0,0.08 -0.01,0.17 -0.01,0.17 -0.02,0.18 -0.02,0.19 -0.03,0.2 -0.03,0.2 -0.04,0.2 -0.04,0.21 -0.06,0.21 -0.06,0.21 -0.07,0.21 -0.08,0.21 -0.04,0.11 -0.04,0.11 -0.05,0.1 -0.05,0.11 c -0.6,1.22 -1.46,1.86 -1.55,1.86 -0.06,0 -0.1,-0.03 -0.1,-0.09 0,-0.03 0,-0.05 0.19,-0.23 0.97,-0.99 1.54,-2.57 1.54,-4.64 0,-1.7 -0.37,-3.45 -1.6,-4.7 -0.13,-0.12 -0.13,-0.14 -0.13,-0.17 0,-0.06 0.04,-0.1 0.1,-0.1 0.09,0 0.99,0.68 1.58,1.94 0.51,1.09 0.62,2.19 0.62,3.03 z"
         id="path12689" /></g>    <g
       style="font-style:normal;font-variant:normal;font-weight:normal;font-stretch:normal;letter-spacing:normal;word-spacing:normal;text-anchor:start;fill:none;stroke:#000000;stroke-linecap:butt;stroke-linejoin:miter;stroke-miterlimit:10.43299961;stroke-opacity:1;stroke-dasharray:none;stroke-dashoffset:0"
       ns0:preamble=""
       ns0:text="\\textbf{0}"
       word-spacing="normal"
       letter-spacing="normal"
       font-size-adjust="none"
       font-stretch="normal"
       font-weight="normal"
       font-variant="normal"
       font-style="normal"
       stroke-miterlimit="10.433"
       xml:space="preserve"
       transform="matrix(1.4245383,0,0,-1.4245383,-167.92307,1000.7485)"
       id="g9801"><path
         style="fill:#000000;stroke-width:0"
         inkscape:connector-curvature="0"
         id="path9803"
         d="m 228.7,660.4 -0.01,0.1 0,0.1 0,0.11 0,0.11 0,0.12 -0.01,0.13 -0.01,0.13 -0.01,0.13 -0.02,0.14 -0.02,0.13 -0.03,0.14 -0.02,0.14 -0.04,0.14 -0.04,0.14 -0.05,0.14 -0.05,0.13 -0.06,0.14 -0.07,0.13 -0.07,0.12 -0.09,0.12 -0.09,0.11 -0.1,0.11 -0.06,0.05 -0.05,0.05 -0.06,0.05 -0.07,0.05 -0.06,0.04 -0.07,0.04 -0.07,0.04 -0.07,0.04 -0.08,0.03 -0.07,0.03 -0.09,0.03 -0.08,0.03 -0.09,0.02 -0.09,0.02 -0.09,0.02 -0.1,0.02 -0.1,0.01 -0.11,0.01 -0.1,0 -0.11,0 c -2.4,0 -2.41,-2.36 -2.41,-3.34 0,-0.98 0.01,-3.27 2.41,-3.27 v 0.35 c -0.36,0 -0.92,0.22 -1.05,0.95 -0.09,0.51 -0.09,1.55 -0.09,2.09 0,0.72 0,1.36 0.08,1.88 0.12,0.88 0.82,0.98 1.06,0.98 0.37,0 0.77,-0.18 0.96,-0.62 0.17,-0.37 0.17,-1.42 0.17,-2.24 0,-0.55 0,-1.46 -0.07,-1.97 -0.14,-0.93 -0.76,-1.07 -1.06,-1.07 h 0 v -0.35 c 2.39,0 2.41,2.28 2.41,3.27 z" /></g>    <g
       id="g10079"
       transform="matrix(1.4245383,0,0,-1.4245383,78.418549,998.6975)"
       xml:space="preserve"
       stroke-miterlimit="10.433"
       font-style="normal"
       font-variant="normal"
       font-weight="normal"
       font-stretch="normal"
       font-size-adjust="none"
       letter-spacing="normal"
       word-spacing="normal"
       ns0:text="\\textbf{1}"
       ns0:preamble=""
       style="font-style:normal;font-variant:normal;font-weight:normal;font-stretch:normal;letter-spacing:normal;word-spacing:normal;text-anchor:start;fill:none;stroke:#000000;stroke-linecap:butt;stroke-linejoin:miter;stroke-miterlimit:10.43299961;stroke-opacity:1;stroke-dasharray:none;stroke-dashoffset:0"><path
         style="fill:#000000;stroke-width:0"
         inkscape:connector-curvature="0"
         d="m 226.95,663.42 0,0.02 0,0.02 0,0.02 0,0.02 0,0.02 0,0.01 0,0.02 0,0.02 0,0.01 0,0.01 -0.01,0.02 0,0.01 0,0.01 -0.01,0.01 0,0.01 -0.01,0.01 0,0.01 -0.01,0.01 -0.01,0.01 -0.01,0.01 -0.01,0.01 -0.01,0 -0.01,0.01 0,0 -0.01,0 -0.01,0 0,0.01 -0.01,0 -0.01,0 0,0 -0.01,0 -0.01,0 -0.01,0.01 -0.01,0 -0.01,0 -0.01,0 -0.01,0 -0.01,0 -0.01,0 -0.01,0 -0.01,0 -0.01,0 c -0.11,0 -0.13,0 -0.22,-0.07 -0.77,-0.56 -1.79,-0.56 -2,-0.56 h -0.2 v -0.47 h 0.2 c 0.16,0 0.7,0.01 1.29,0.2 v -5.14 h -1.38 v -0.47 c 0.43,0.04 1.49,0.04 1.98,0.04 0.48,0 1.54,0 1.98,-0.04 v 0.47 h -1.4 z"
         id="path10081" /></g>    <g
       style="font-style:normal;font-variant:normal;font-weight:normal;font-stretch:normal;letter-spacing:normal;word-spacing:normal;text-anchor:start;fill:none;stroke:#000000;stroke-linecap:butt;stroke-linejoin:miter;stroke-miterlimit:10.43299961;stroke-opacity:1;stroke-dasharray:none;stroke-dashoffset:0"
       ns0:preamble=""
       ns0:text="\\textbf{2}"
       word-spacing="normal"
       letter-spacing="normal"
       font-size-adjust="none"
       font-stretch="normal"
       font-weight="normal"
       font-variant="normal"
       font-style="normal"
       stroke-miterlimit="10.433"
       xml:space="preserve"
       transform="matrix(1.4245383,0,0,-1.4245383,252.5313,1179.612)"
       id="g10357"><path
         style="fill:#000000;stroke-width:0"
         inkscape:connector-curvature="0"
         id="path10359"
         d="m 228.58,659.44 h -0.47 c -0.03,-0.2 -0.12,-0.83 -0.26,-0.9 -0.11,-0.06 -0.86,-0.06 -1.01,-0.06 h -1.47 c 0.47,0.38 0.99,0.81 1.43,1.14 1.14,0.83 1.78,1.3 1.78,2.24 0,1.15 -1.04,1.88 -2.44,1.88 -1.21,0 -2.14,-0.61 -2.14,-1.51 0,-0.58 0.48,-0.73 0.71,-0.73 0.32,0 0.72,0.22 0.72,0.71 0,0.52 -0.42,0.68 -0.56,0.72 0.28,0.23 0.66,0.35 1.02,0.35 0.85,0 1.31,-0.68 1.31,-1.43 0,-0.68 -0.38,-1.36 -1.07,-2.06 l -2,-2.04 C 224,657.63 224,657.61 224,657.41 v -0.18 h 4.27 z" /></g>    <g
       fill="none"
       fill-opacity="1"
       fill-rule="evenodd"
       stroke="black"
       stroke-linecap="butt"
       stroke-linejoin="miter"
       stroke-opacity="1"
       stroke-dasharray="none"
       stroke-dashoffset="0"
       text-anchor="start"
       id="g10635"
       transform="matrix(1.4245383,0,0,-1.4245383,-167.02508,1184.9049)"
       xml:space="preserve"
       stroke-miterlimit="10.433"
       font-style="normal"
       font-variant="normal"
       font-weight="normal"
       font-stretch="normal"
       font-size-adjust="none"
       letter-spacing="normal"
       word-spacing="normal"
       ns0:text="\\textbf{3}"
       ns0:preamble=""
       style="font-style:normal;font-variant:normal;font-weight:normal;font-stretch:normal;letter-spacing:normal;word-spacing:normal;text-anchor:start;fill:none;stroke:#000000;stroke-linecap:butt;stroke-linejoin:miter;stroke-miterlimit:10.43299961;stroke-opacity:1;stroke-dasharray:none;stroke-dashoffset:0"><path
         fill="black"
         stroke-width="0"
         d="M226.93,660.73 L227,660.75 L227.06,660.78 L227.13,660.8 L227.19,660.83 L227.26,660.86 L227.32,660.89 L227.38,660.92 L227.44,660.95 L227.51,660.99 L227.57,661.03 L227.63,661.07 L227.68,661.11 L227.74,661.16 L227.79,661.21 L227.85,661.25 L227.9,661.3 L227.95,661.36 L227.99,661.41 L228.04,661.47 L228.08,661.53 L228.12,661.58 L228.16,661.65 L228.19,661.71 L228.22,661.78 L228.25,661.84 L228.28,661.91 L228.3,661.98 L228.31,662.05 L228.33,662.13 L228.34,662.2 L228.34,662.28 L228.35,662.36 C228.35,663.13,227.59,663.74,226.19,663.74 C225,663.74,224.23,663.11,224.23,662.31 C224.23,661.88,224.54,661.62,224.91,661.62 C225.36,661.62,225.61,661.93,225.61,662.3 C225.61,662.88,225.07,662.99,225.03,663 C225.38,663.28,225.82,663.35,226.13,663.35 C226.95,663.35,226.98,662.72,226.98,662.39 C226.98,662.26,226.97,660.96,225.94,660.9 C225.53,660.88,225.51,660.87,225.46,660.86 C225.36,660.85,225.34,660.75,225.34,660.69 C225.34,660.51,225.44,660.51,225.62,660.51 H226.06 C227.14,660.51,227.14,659.54,227.14,659.03 C227.14,658.57,227.14,657.55,226.11,657.55 C225.85,657.55,225.33,657.59,224.85,657.89 C225.18,657.98,225.43,658.23,225.43,658.64 C225.43,659.08,225.11,659.39,224.68,659.39 C224.26,659.39,223.91,659.12,223.91,658.62 C223.91,657.72,224.88,657.13,226.16,657.13 C227.94,657.13,228.66,658.12,228.66,659.02 C228.66,659.57,228.38,660.42,226.93,660.73 Z "
         id="path10637" /></g>    <g
       style="font-style:normal;font-variant:normal;font-weight:normal;font-stretch:normal;letter-spacing:normal;word-spacing:normal;text-anchor:start;fill:none;stroke:#000000;stroke-linecap:butt;stroke-linejoin:miter;stroke-miterlimit:10.43299961;stroke-opacity:1;stroke-dasharray:none;stroke-dashoffset:0"
       ns0:preamble=""
       ns0:text="3"
       word-spacing="normal"
       letter-spacing="normal"
       font-size-adjust="none"
       font-stretch="normal"
       font-weight="normal"
       font-variant="normal"
       font-style="normal"
       stroke-miterlimit="10.433"
       xml:space="preserve"
       transform="matrix(1.4245383,0,0,-1.4245383,-173.92308,1090.1771)"
       id="g10913"><path
         style="fill:#000000;stroke-width:0"
         inkscape:connector-curvature="0"
         id="path10915"
         d="m 226.32,660.73 0.07,0.03 0.08,0.03 0.07,0.03 0.07,0.03 0.07,0.04 0.07,0.04 0.06,0.04 0.07,0.04 0.06,0.04 0.06,0.05 0.06,0.05 0.06,0.05 0.05,0.05 0.05,0.05 0.05,0.06 0.05,0.05 0.04,0.06 0.05,0.06 0.04,0.06 0.03,0.06 0.04,0.07 0.03,0.06 0.03,0.07 0.03,0.06 0.02,0.07 0.02,0.07 0.02,0.07 0.01,0.07 0.02,0.07 0,0.07 0.01,0.08 0,0.07 c 0,0.81 -0.87,1.37 -1.83,1.37 -1,0 -1.76,-0.59 -1.76,-1.35 0,-0.33 0.22,-0.52 0.51,-0.52 0.3,0 0.5,0.22 0.5,0.51 0,0.5 -0.46,0.5 -0.61,0.5 0.3,0.48 0.96,0.61 1.32,0.61 0.41,0 0.95,-0.22 0.95,-1.11 0,-0.12 -0.02,-0.7 -0.27,-1.13 -0.3,-0.48 -0.64,-0.51 -0.89,-0.52 -0.08,-0.01 -0.32,-0.03 -0.39,-0.03 -0.08,-0.01 -0.15,-0.02 -0.15,-0.12 0,-0.11 0.07,-0.11 0.24,-0.11 h 0.44 c 0.82,0 1.18,-0.67 1.18,-1.65 0,-1.35 -0.68,-1.64 -1.12,-1.64 -0.43,0 -1.17,0.17 -1.52,0.76 0.35,-0.05 0.65,0.17 0.65,0.55 0,0.35 -0.26,0.55 -0.55,0.55 -0.24,0 -0.56,-0.14 -0.56,-0.57 0,-0.91 0.92,-1.56 2.01,-1.56 1.21,0 2.12,0.9 2.12,1.91 0,0.82 -0.63,1.59 -1.66,1.8 z" /></g>    <g
       id="g11191"
       transform="matrix(1.4245383,0,0,-1.4245383,-81.780223,1098.8914)"
       xml:space="preserve"
       stroke-miterlimit="10.433"
       font-style="normal"
       font-variant="normal"
       font-weight="normal"
       font-stretch="normal"
       font-size-adjust="none"
       letter-spacing="normal"
       word-spacing="normal"
       ns0:text="5"
       ns0:preamble=""
       style="font-style:normal;font-variant:normal;font-weight:normal;font-stretch:normal;letter-spacing:normal;word-spacing:normal;text-anchor:start;fill:none;stroke:#000000;stroke-linecap:butt;stroke-linejoin:miter;stroke-miterlimit:10.43299961;stroke-opacity:1;stroke-dasharray:none;stroke-dashoffset:0"><path
         style="fill:#000000;stroke-width:0"
         inkscape:connector-curvature="0"
         d="m 227.9,659.23 0,0.11 -0.01,0.11 -0.01,0.11 -0.02,0.1 -0.02,0.11 -0.02,0.1 -0.03,0.1 -0.04,0.1 -0.03,0.1 -0.04,0.09 -0.05,0.09 -0.05,0.09 -0.05,0.09 -0.05,0.08 -0.06,0.08 -0.06,0.07 -0.07,0.08 -0.07,0.06 -0.07,0.07 -0.07,0.06 -0.08,0.06 -0.08,0.05 -0.08,0.05 -0.08,0.04 -0.09,0.04 -0.09,0.04 -0.09,0.03 -0.09,0.02 -0.1,0.02 -0.09,0.02 -0.1,0 -0.1,0.01 c -0.48,0 -0.91,-0.16 -1.27,-0.51 v 1.94 c 0.2,-0.06 0.53,-0.13 0.85,-0.13 1.23,0 1.92,0.9 1.92,1.03 0,0.06 -0.03,0.11 -0.1,0.11 -0.01,0 -0.03,0 -0.08,-0.03 -0.2,-0.09 -0.68,-0.29 -1.35,-0.29 -0.4,0 -0.86,0.07 -1.32,0.28 -0.08,0.03 -0.1,0.03 -0.12,0.03 -0.1,0 -0.1,-0.08 -0.1,-0.24 v -2.94 c 0,-0.18 0,-0.26 0.14,-0.26 0.07,0 0.09,0.03 0.13,0.09 0.11,0.16 0.47,0.7 1.28,0.7 0.52,0 0.77,-0.46 0.85,-0.64 0.15,-0.37 0.17,-0.75 0.17,-1.25 0,-0.35 0,-0.94 -0.24,-1.36 -0.23,-0.39 -0.6,-0.65 -1.06,-0.65 -0.73,0 -1.29,0.53 -1.46,1.12 0.03,-0.01 0.06,-0.02 0.17,-0.02 0.32,0 0.49,0.25 0.49,0.48 0,0.24 -0.17,0.49 -0.49,0.49 -0.14,0 -0.49,-0.07 -0.49,-0.53 0,-0.85 0.69,-1.81 1.8,-1.81 1.15,0 2.17,0.95 2.17,2.21 z"
         id="path11193" /></g>    <g
       style="font-style:normal;font-variant:normal;font-weight:normal;font-stretch:normal;letter-spacing:normal;word-spacing:normal;text-anchor:start;fill:none;stroke:#000000;stroke-linecap:butt;stroke-linejoin:miter;stroke-miterlimit:10.43299961;stroke-opacity:1;stroke-dasharray:none;stroke-dashoffset:0"
       ns0:preamble=""
       ns0:text="8"
       word-spacing="normal"
       letter-spacing="normal"
       font-size-adjust="none"
       font-stretch="normal"
       font-weight="normal"
       font-variant="normal"
       font-style="normal"
       stroke-miterlimit="10.433"
       xml:space="preserve"
       transform="matrix(1.4245383,0,0,-1.4245383,28.934065,1154.5411)"
       id="g11469"><path
         style="fill:#000000;stroke-width:0"
         inkscape:connector-curvature="0"
         id="path11471"
         d="m 226.51,660.83 0.06,0.04 0.07,0.03 0.06,0.04 0.06,0.04 0.06,0.03 0.06,0.04 0.06,0.04 0.06,0.04 0.05,0.05 0.05,0.04 0.05,0.04 0.05,0.05 0.05,0.04 0.04,0.05 0.05,0.05 0.04,0.04 0.04,0.05 0.03,0.05 0.04,0.05 0.03,0.05 0.03,0.05 0.03,0.06 0.02,0.05 0.02,0.06 0.02,0.05 0.02,0.06 0.02,0.05 0.01,0.06 0.01,0.06 0,0.06 0.01,0.06 0,0.06 c 0,0.91 -0.89,1.48 -1.79,1.48 l -0.01,-0.25 c 0.73,0 1.36,-0.51 1.36,-1.23 0,-0.57 -0.39,-1.04 -0.98,-1.39 l -1.24,0.8 c -0.45,0.29 -0.49,0.63 -0.49,0.8 0,0.6 0.64,1.02 1.35,1.02 l 0.01,0.25 c -1,0 -1.8,-0.73 -1.8,-1.66 0,-0.18 0.02,-0.62 0.44,-1.09 0.11,-0.12 0.47,-0.37 0.72,-0.54 l 0.23,-0.15 1.23,-0.77 c 0.27,-0.19 0.74,-0.49 0.74,-1.09 0,-0.74 -0.74,-1.26 -1.56,-1.26 -0.86,0 -1.57,0.62 -1.57,1.44 0,0.58 0.32,1.22 1.16,1.68 h 0 l -0.23,0.15 c -0.57,-0.28 -1.43,-0.84 -1.43,-1.83 0,-1.05 1.02,-1.71 2.06,-1.71 1.12,0 2.07,0.82 2.07,1.88 0,0.36 -0.11,0.81 -0.49,1.23 -0.19,0.2 -0.35,0.3 -0.98,0.7 z" /></g>    <g
       id="g11746"
       transform="matrix(1.4245383,0,0,-1.4245383,47.648347,1083.1771)"
       xml:space="preserve"
       stroke="black"
       stroke-linecap="butt"
       stroke-linejoin="miter"
       stroke-miterlimit="10.433"
       stroke-dasharray="none"
       stroke-dashoffset="0"
       stroke-opacity="1"
       fill="none"
       fill-rule="evenodd"
       fill-opacity="1"
       font-style="normal"
       font-variant="normal"
       font-weight="normal"
       font-stretch="normal"
       font-size-adjust="none"
       letter-spacing="normal"
       word-spacing="normal"
       text-anchor="start"
       ns0:text="9"
       ns0:preamble=""
       style="font-style:normal;font-variant:normal;font-weight:normal;font-stretch:normal;letter-spacing:normal;word-spacing:normal;text-anchor:start;fill:none;stroke:#000000;stroke-linecap:butt;stroke-linejoin:miter;stroke-miterlimit:10.43299961;stroke-opacity:1;stroke-dasharray:none;stroke-dashoffset:0"><path
         d="M227.08,660.39 V660.08 C227.08,657.75,226.05,657.29,225.47,657.29 C225.3,657.29,224.76,657.31,224.5,657.65 C224.93,657.65,225.01,657.94,225.01,658.11 C225.01,658.42,224.77,658.57,224.56,658.57 C224.4,658.57,224.1,658.48,224.1,658.09 C224.1,657.42,224.64,657.02,225.48,657.02 C226.76,657.02,227.98,658.37,227.98,660.5 C227.98,663.17,226.84,663.85,225.95,663.85 C225.4,663.85,224.91,663.67,224.49,663.22 C224.08,662.78,223.85,662.36,223.85,661.62 C223.85,660.37,224.73,659.4,225.84,659.4 L225.85,659.63 C225.69,659.63,225.23,659.63,224.92,660.26 C224.74,660.62,224.74,661.12,224.74,661.61 C224.74,662.14,224.74,662.61,224.95,662.98 C225.22,663.47,225.6,663.6,225.95,663.6 C226.41,663.6,226.74,663.27,226.9,662.82 C227.02,662.5,227.06,661.87,227.06,661.42 C227.06,660.59,226.73,659.63,225.85,659.63 H225.85 L225.84,659.4 C226.45,659.4,226.85,659.82,227.08,660.39 Z "
         stroke-width="0"
         fill="black"
         id="path11748" /></g>    <g
       style="font-style:normal;font-variant:normal;font-weight:normal;font-stretch:normal;letter-spacing:normal;word-spacing:normal;text-anchor:start;fill:none;stroke:#000000;stroke-linecap:butt;stroke-linejoin:miter;stroke-miterlimit:10.43299961;stroke-opacity:1;stroke-dasharray:none;stroke-dashoffset:0"
       ns0:preamble=""
       ns0:text="5"
       word-spacing="normal"
       letter-spacing="normal"
       font-size-adjust="none"
       font-stretch="normal"
       font-weight="normal"
       font-variant="normal"
       font-style="normal"
       stroke-miterlimit="10.433"
       xml:space="preserve"
       transform="matrix(1.4245383,0,0,-1.4245383,166.36264,1076.6056)"
       id="g12022"><path
         style="fill:#000000;stroke-width:0"
         inkscape:connector-curvature="0"
         id="path12024"
         d="m 227.9,659.23 0,0.11 -0.01,0.11 -0.01,0.11 -0.02,0.1 -0.02,0.11 -0.02,0.1 -0.03,0.1 -0.04,0.1 -0.03,0.1 -0.04,0.09 -0.05,0.09 -0.05,0.09 -0.05,0.09 -0.05,0.08 -0.06,0.08 -0.06,0.07 -0.07,0.08 -0.07,0.06 -0.07,0.07 -0.07,0.06 -0.08,0.06 -0.08,0.05 -0.08,0.05 -0.08,0.04 -0.09,0.04 -0.09,0.04 -0.09,0.03 -0.09,0.02 -0.1,0.02 -0.09,0.02 -0.1,0 -0.1,0.01 c -0.48,0 -0.91,-0.16 -1.27,-0.51 v 1.94 c 0.2,-0.06 0.53,-0.13 0.85,-0.13 1.23,0 1.92,0.9 1.92,1.03 0,0.06 -0.03,0.11 -0.1,0.11 -0.01,0 -0.03,0 -0.08,-0.03 -0.2,-0.09 -0.68,-0.29 -1.35,-0.29 -0.4,0 -0.86,0.07 -1.32,0.28 -0.08,0.03 -0.1,0.03 -0.12,0.03 -0.1,0 -0.1,-0.08 -0.1,-0.24 v -2.94 c 0,-0.18 0,-0.26 0.14,-0.26 0.07,0 0.09,0.03 0.13,0.09 0.11,0.16 0.47,0.7 1.28,0.7 0.52,0 0.77,-0.46 0.85,-0.64 0.15,-0.37 0.17,-0.75 0.17,-1.25 0,-0.35 0,-0.94 -0.24,-1.36 -0.23,-0.39 -0.6,-0.65 -1.06,-0.65 -0.73,0 -1.29,0.53 -1.46,1.12 0.03,-0.01 0.06,-0.02 0.17,-0.02 0.32,0 0.49,0.25 0.49,0.48 0,0.24 -0.17,0.49 -0.49,0.49 -0.14,0 -0.49,-0.07 -0.49,-0.53 0,-0.85 0.69,-1.81 1.8,-1.81 1.15,0 2.17,0.95 2.17,2.21 z" /></g>    <g
       id="g12298"
       transform="matrix(1.4245383,0,0,-1.4245383,-43.544895,1002.4479)"
       xml:space="preserve"
       stroke-miterlimit="10.433"
       font-style="normal"
       font-variant="normal"
       font-weight="normal"
       font-stretch="normal"
       font-size-adjust="none"
       letter-spacing="normal"
       word-spacing="normal"
       ns0:text="4"
       ns0:preamble=""
       style="font-style:normal;font-variant:normal;font-weight:normal;font-stretch:normal;letter-spacing:normal;word-spacing:normal;text-anchor:start;fill:none;stroke:#000000;stroke-linecap:butt;stroke-linejoin:miter;stroke-miterlimit:10.43299961;stroke-opacity:1;stroke-dasharray:none;stroke-dashoffset:0"><path
         style="fill:#000000;stroke-width:0"
         inkscape:connector-curvature="0"
         d="m 226.36,658.87 v -0.86 c 0,-0.36 -0.02,-0.47 -0.76,-0.47 h -0.21 v -0.31 c 0.41,0.04 0.93,0.04 1.35,0.04 0.41,0 0.94,0 1.35,-0.04 v 0.31 h -0.21 c -0.74,0 -0.76,0.11 -0.76,0.47 v 0.86 h 1 v 0.31 h -1 v 4.52 c 0,0.2 0,0.26 -0.16,0.26 -0.09,0 -0.11,0 -0.2,-0.12 l -3.05,-4.66 h 0.28 l 2.43,3.71 v -3.71 h -2.43 -0.28 v -0.31 z"
         id="path12300" /></g>    <g
       style="font-style:normal;font-variant:normal;font-weight:normal;font-stretch:normal;letter-spacing:normal;word-spacing:normal;text-anchor:start;fill:none;stroke:#000000;stroke-linecap:butt;stroke-linejoin:miter;stroke-miterlimit:10.43299961;stroke-opacity:1;stroke-dasharray:none;stroke-dashoffset:0"
       ns0:preamble=""
       ns0:text="\\textbf{Maximal Capacity: 80} \\\\"
       text-anchor="start"
       word-spacing="normal"
       letter-spacing="normal"
       font-size-adjust="none"
       font-stretch="normal"
       font-weight="normal"
       font-variant="normal"
       font-style="normal"
       fill-opacity="1"
       fill-rule="evenodd"
       fill="none"
       stroke-opacity="1"
       stroke-dashoffset="0"
       stroke-dasharray="none"
       stroke-miterlimit="10.433"
       stroke-linejoin="miter"
       stroke-linecap="butt"
       stroke="black"
       xml:space="preserve"
       transform="matrix(1.5396467,0,0,-1.5396467,-192.80778,1348.8997)"
       id="g12543"><path
         id="path12545"
         fill="black"
         stroke-width="0"
         d="M228.86,658.55 L226.48,663.8 C226.37,664.05,226.26,664.05,226.04,664.05 H223.83 V663.58 H224.9 V657.99 C224.9,657.77,224.9,657.76,224.62,657.73 C224.38,657.7,224.36,657.7,224.08,657.7 H223.83 V657.23 C224.21,657.27,224.77,657.27,225.16,657.27 C225.58,657.27,226.1,657.27,226.51,657.23 V657.7 H226.26 C226.08,657.7,225.91,657.71,225.73,657.73 C225.44,657.76,225.43,657.77,225.43,657.99 V663.45 H225.44 L228.15,657.48 C228.24,657.28,228.36,657.23,228.47,657.23 C228.66,657.23,228.74,657.38,228.79,657.47 L231.56,663.58 H231.57 V657.7 H230.5 V657.23 C230.85,657.27,231.78,657.27,232.19,657.27 C232.6,657.27,233.53,657.27,233.89,657.23 V657.7 H232.81 V663.58 H233.89 V664.05 H231.69 C231.47,664.05,231.36,664.05,231.25,663.8 Z " /><path
         id="path12547"
         fill="black"
         stroke-width="0"
         d="M238.03,658 L238.03,657.94 L238.03,657.88 L238.03,657.85 L238.04,657.82 L238.04,657.78 L238.05,657.75 L238.05,657.72 L238.06,657.69 L238.07,657.65 L238.08,657.62 L238.1,657.59 L238.12,657.56 L238.14,657.53 L238.16,657.5 L238.18,657.47 L238.21,657.45 L238.25,657.42 L238.26,657.41 L238.28,657.4 L238.3,657.38 L238.32,657.37 L238.34,657.36 L238.37,657.35 L238.39,657.34 L238.41,657.33 L238.44,657.32 L238.47,657.31 L238.49,657.3 L238.52,657.29 L238.55,657.29 L238.58,657.28 L238.62,657.27 L238.65,657.27 L238.69,657.26 L238.72,657.26 L238.76,657.25 L238.8,657.25 L238.84,657.24 L238.88,657.24 L238.93,657.24 L238.97,657.24 L239.02,657.24 L239.06,657.23 H239.54 C239.74,657.23,239.86,657.23,239.86,657.47 C239.86,657.7,239.73,657.7,239.6,657.7 C238.99,657.71,238.99,657.84,238.99,658.07 V660.21 C238.99,661.09,238.29,661.73,236.8,661.73 C236.24,661.73,235.02,661.7,235.02,660.82 C235.02,660.38,235.37,660.2,235.64,660.2 C235.95,660.2,236.27,660.4,236.27,660.82 C236.27,661.12,236.08,661.29,236.05,661.31 C236.33,661.37,236.65,661.38,236.77,661.38 C237.51,661.38,237.86,660.96,237.86,660.21 V659.87 V659.56 V658.62 C237.86,657.66,236.95,657.53,236.7,657.53 C236.19,657.53,235.79,657.88,235.79,658.32 C235.79,659.39,237.36,659.53,237.86,659.56 H237.86 V659.87 C237.15,659.84,234.63,659.75,234.63,658.31 C234.63,657.35,235.86,657.17,236.55,657.17 C237.34,657.17,237.81,657.58,238.03,658 Z " /><path
         id="path12549"
         fill="black"
         stroke-width="0"
         d="M243.32,659.68 L244.48,660.97 C244.61,661.11,244.67,661.18,245.5,661.18 V661.65 C245.15,661.63,244.63,661.62,244.58,661.62 C244.33,661.62,243.84,661.64,243.56,661.65 V661.18 C243.7,661.18,243.82,661.16,243.94,661.09 C243.9,661.03,243.9,661.01,243.86,660.97 L243.02,660.04 L242.05,661.18 H242.44 V661.65 C242.18,661.64,241.56,661.62,241.24,661.62 C240.92,661.62,240.47,661.64,240.15,661.65 V661.18 H240.85 L242.4,659.35 L241.1,657.89 C240.93,657.7,240.57,657.7,240.1,657.7 V657.23 C240.44,657.26,240.96,657.27,241.01,657.27 C241.26,657.27,241.84,657.24,242.04,657.23 V657.7 C241.86,657.7,241.67,657.75,241.67,657.81 C241.67,657.82,241.67,657.83,241.74,657.91 L242.7,658.99 L243.8,657.7 H243.41 V657.23 C243.67,657.24,244.27,657.27,244.6,657.27 C244.92,657.27,245.37,657.24,245.7,657.23 V657.7 H244.99 Z " /><path
         id="path12551"
         fill="black"
         stroke-width="0"
         d="M248.15,661.71 L246.42,661.63 V661.16 C247.01,661.16,247.08,661.16,247.08,660.77 V657.7 H246.39 V657.23 C246.7,657.24,247.19,657.27,247.6,657.27 C247.9,657.27,248.41,657.24,248.77,657.23 V657.7 H248.15 Z " /><path
         id="path12553"
         fill="black"
         stroke-width="0"
         d="M248.25,663.36 L248.25,663.4 L248.25,663.44 L248.24,663.48 L248.24,663.52 L248.23,663.56 L248.22,663.6 L248.2,663.63 L248.19,663.67 L248.17,663.7 L248.16,663.74 L248.14,663.77 L248.12,663.8 L248.09,663.83 L248.07,663.86 L248.05,663.89 L248.02,663.92 L247.99,663.94 L247.96,663.96 L247.94,663.99 L247.9,664.01 L247.87,664.03 L247.84,664.05 L247.81,664.06 L247.77,664.08 L247.74,664.09 L247.7,664.1 L247.67,664.12 L247.63,664.12 L247.59,664.13 L247.55,664.14 L247.51,664.14 L247.48,664.14 C247.05,664.14,246.7,663.79,246.7,663.36 C246.7,662.94,247.05,662.59,247.48,662.59 C247.89,662.59,248.25,662.93,248.25,663.36 Z " /><path
         id="path12555"
         fill="black"
         stroke-width="0"
         d="M250.24,660.77 V657.7 H249.55 V657.23 C249.83,657.24,250.43,657.27,250.81,657.27 C251.2,657.27,251.78,657.24,252.06,657.23 V657.7 H251.37 V659.78 C251.37,660.86,252.24,661.35,252.86,661.35 C253.2,661.35,253.41,661.15,253.41,660.38 V657.7 H252.73 V657.23 C253.01,657.24,253.6,657.27,253.98,657.27 C254.37,657.27,254.96,657.24,255.23,657.23 V657.7 H254.55 V659.78 C254.55,660.86,255.41,661.35,256.03,661.35 C256.37,661.35,256.59,661.15,256.59,660.38 V657.7 H255.9 V657.23 C256.18,657.24,256.78,657.27,257.15,657.27 C257.54,657.27,258.13,657.24,258.41,657.23 V657.7 H257.72 V660.28 C257.72,661.3,257.21,661.71,256.19,661.71 C255.28,661.71,254.77,661.21,254.51,660.75 C254.31,661.67,253.39,661.71,253.02,661.71 C252.15,661.71,251.58,661.26,251.26,660.63 V661.71 L249.55,661.63 V661.16 C250.17,661.16,250.24,661.16,250.24,660.77 Z " /><path
         id="path12557"
         fill="black"
         stroke-width="0"
         d="M262.37,658 L262.37,657.94 L262.38,657.88 L262.38,657.85 L262.38,657.82 L262.38,657.78 L262.39,657.75 L262.4,657.72 L262.41,657.69 L262.42,657.65 L262.43,657.62 L262.44,657.59 L262.46,657.56 L262.48,657.53 L262.5,657.5 L262.53,657.47 L262.56,657.45 L262.59,657.42 L262.61,657.41 L262.63,657.4 L262.65,657.38 L262.67,657.37 L262.69,657.36 L262.71,657.35 L262.73,657.34 L262.76,657.33 L262.78,657.32 L262.81,657.31 L262.84,657.3 L262.87,657.29 L262.9,657.29 L262.93,657.28 L262.96,657.27 L263,657.27 L263.03,657.26 L263.07,657.26 L263.1,657.25 L263.14,657.25 L263.18,657.24 L263.23,657.24 L263.27,657.24 L263.31,657.24 L263.36,657.24 L263.41,657.23 H263.89 C264.08,657.23,264.2,657.23,264.2,657.47 C264.2,657.7,264.08,657.7,263.95,657.7 C263.34,657.71,263.34,657.84,263.34,658.07 V660.21 C263.34,661.09,262.63,661.73,261.15,661.73 C260.58,661.73,259.37,661.7,259.37,660.82 C259.37,660.38,259.72,660.2,259.99,660.2 C260.29,660.2,260.61,660.4,260.61,660.82 C260.61,661.12,260.42,661.29,260.39,661.31 C260.67,661.37,260.99,661.38,261.11,661.38 C261.86,661.38,262.2,660.96,262.2,660.21 V659.87 V659.56 V658.62 C262.2,657.66,261.29,657.53,261.04,657.53 C260.53,657.53,260.14,657.88,260.14,658.32 C260.14,659.39,261.71,659.53,262.2,659.56 H262.2 V659.87 C261.5,659.84,258.97,659.75,258.97,658.31 C258.97,657.35,260.2,657.17,260.89,657.17 C261.69,657.17,262.15,657.58,262.37,658 Z " /><path
         id="path12559"
         fill="black"
         stroke-width="0"
         d="M266.45,664.13 L264.69,664.05 V663.58 C265.31,663.58,265.38,663.58,265.38,663.2 V657.7 H264.69 V657.23 C265.01,657.24,265.48,657.27,265.91,657.27 C266.34,657.27,266.8,657.24,267.14,657.23 V657.7 H266.45 Z " /><path
         id="path12561"
         fill="black"
         stroke-width="0"
         d="M278.85,663.88 L278.85,663.9 L278.85,663.92 L278.85,663.93 L278.85,663.95 L278.85,663.96 L278.85,663.98 L278.85,663.99 L278.85,664 L278.85,664.02 L278.85,664.03 L278.84,664.04 L278.84,664.05 L278.84,664.06 L278.84,664.07 L278.83,664.08 L278.83,664.09 L278.82,664.1 L278.82,664.11 L278.81,664.11 L278.81,664.12 L278.8,664.13 L278.79,664.13 L278.78,664.14 L278.78,664.14 L278.77,664.15 L278.76,664.15 L278.75,664.15 L278.75,664.15 L278.74,664.15 L278.74,664.15 L278.73,664.15 L278.72,664.16 L278.72,664.16 L278.71,664.16 L278.7,664.16 L278.7,664.16 L278.69,664.16 L278.68,664.16 L278.67,664.16 C278.58,664.16,278.56,664.14,278.48,664.07 L277.83,663.48 C277.21,663.98,276.54,664.16,275.87,664.16 C273.39,664.16,271.87,662.68,271.87,660.64 C271.87,658.61,273.39,657.13,275.87,657.13 C277.73,657.13,278.85,658.35,278.85,659.49 C278.85,659.69,278.78,659.7,278.61,659.7 C278.48,659.7,278.39,659.7,278.38,659.53 C278.31,658.2,277.11,657.59,276.11,657.59 C275.33,657.59,274.49,657.83,273.98,658.44 C273.51,659,273.39,659.75,273.39,660.64 C273.39,661.2,273.42,662.27,274.05,662.93 C274.69,663.58,275.56,663.69,276.08,663.69 C277.15,663.69,278.09,662.94,278.31,661.67 C278.34,661.49,278.35,661.47,278.58,661.47 C278.84,661.47,278.85,661.49,278.85,661.74 Z " /><path
         id="path12563"
         fill="black"
         stroke-width="0"
         d="M283.22,658 L283.22,657.94 L283.22,657.88 L283.22,657.85 L283.22,657.82 L283.23,657.78 L283.23,657.75 L283.24,657.72 L283.25,657.69 L283.26,657.65 L283.27,657.62 L283.29,657.59 L283.3,657.56 L283.32,657.53 L283.35,657.5 L283.37,657.47 L283.4,657.45 L283.43,657.42 L283.45,657.41 L283.47,657.4 L283.49,657.38 L283.51,657.37 L283.53,657.36 L283.55,657.35 L283.58,657.34 L283.6,657.33 L283.63,657.32 L283.65,657.31 L283.68,657.3 L283.71,657.29 L283.74,657.29 L283.77,657.28 L283.8,657.27 L283.84,657.27 L283.87,657.26 L283.91,657.26 L283.95,657.25 L283.99,657.25 L284.03,657.24 L284.07,657.24 L284.11,657.24 L284.16,657.24 L284.2,657.24 L284.25,657.23 H284.73 C284.93,657.23,285.05,657.23,285.05,657.47 C285.05,657.7,284.92,657.7,284.79,657.7 C284.18,657.71,284.18,657.84,284.18,658.07 V660.21 C284.18,661.09,283.47,661.73,281.99,661.73 C281.42,661.73,280.21,661.7,280.21,660.82 C280.21,660.38,280.56,660.2,280.83,660.2 C281.14,660.2,281.45,660.4,281.45,660.82 C281.45,661.12,281.27,661.29,281.24,661.31 C281.51,661.37,281.83,661.38,281.95,661.38 C282.7,661.38,283.05,660.96,283.05,660.21 V659.87 V659.56 V658.62 C283.05,657.66,282.13,657.53,281.88,657.53 C281.38,657.53,280.98,657.88,280.98,658.32 C280.98,659.39,282.55,659.53,283.05,659.56 H283.05 V659.87 C282.34,659.84,279.81,659.75,279.81,658.31 C279.81,657.35,281.05,657.17,281.73,657.17 C282.53,657.17,283,657.58,283.22,658 Z " /><path
         id="path12565"
         fill="black"
         stroke-width="0"
         d="M287.25,657.62 L287.29,657.59 L287.33,657.56 L287.37,657.53 L287.41,657.5 L287.45,657.48 L287.49,657.45 L287.53,657.43 L287.57,657.41 L287.61,657.38 L287.65,657.36 L287.7,657.35 L287.74,657.33 L287.78,657.31 L287.82,657.3 L287.86,657.28 L287.9,657.27 L287.94,657.26 L287.98,657.24 L288.06,657.22 L288.14,657.21 L288.22,657.2 L288.29,657.19 L288.37,657.18 L288.45,657.18 L288.53,657.17 L288.42,657.53 C288.28,657.53,287.81,657.53,287.36,658.07 C287.25,658.2,287.25,658.21,287.25,658.4 V660.5 C287.25,660.69,287.26,660.7,287.4,660.84 C287.8,661.25,288.32,661.31,288.54,661.31 C289.2,661.31,289.76,660.7,289.76,659.45 C289.76,658.05,289.06,657.53,288.42,657.53 L288.53,657.17 C290.02,657.17,291.03,658.07,291.03,659.45 C291.03,660.77,290.13,661.71,288.7,661.71 C287.95,661.71,287.42,661.4,287.19,661.22 V661.71 L285.43,661.63 V661.16 C286.05,661.16,286.12,661.16,286.12,660.78 V655.78 H285.43 V655.31 C285.71,655.32,286.31,655.34,286.68,655.34 C287.07,655.34,287.66,655.32,287.94,655.31 V655.78 H287.25 Z " /><path
         id="path12567"
         fill="black"
         stroke-width="0"
         d="M295.15,658 L295.15,657.94 L295.15,657.88 L295.15,657.85 L295.16,657.82 L295.16,657.78 L295.17,657.75 L295.17,657.72 L295.18,657.69 L295.19,657.65 L295.2,657.62 L295.22,657.59 L295.24,657.56 L295.26,657.53 L295.28,657.5 L295.31,657.47 L295.33,657.45 L295.37,657.42 L295.38,657.41 L295.4,657.4 L295.42,657.38 L295.44,657.37 L295.46,657.36 L295.49,657.35 L295.51,657.34 L295.53,657.33 L295.56,657.32 L295.59,657.31 L295.61,657.3 L295.64,657.29 L295.67,657.29 L295.7,657.28 L295.74,657.27 L295.77,657.27 L295.81,657.26 L295.84,657.26 L295.88,657.25 L295.92,657.25 L295.96,657.24 L296,657.24 L296.05,657.24 L296.09,657.24 L296.14,657.24 L296.18,657.23 H296.66 C296.86,657.23,296.98,657.23,296.98,657.47 C296.98,657.7,296.85,657.7,296.72,657.7 C296.11,657.71,296.11,657.84,296.11,658.07 V660.21 C296.11,661.09,295.41,661.73,293.93,661.73 C293.36,661.73,292.14,661.7,292.14,660.82 C292.14,660.38,292.49,660.2,292.76,660.2 C293.07,660.2,293.39,660.4,293.39,660.82 C293.39,661.12,293.2,661.29,293.17,661.31 C293.45,661.37,293.77,661.38,293.89,661.38 C294.63,661.38,294.98,660.96,294.98,660.21 V659.87 V659.56 V658.62 C294.98,657.66,294.07,657.53,293.82,657.53 C293.31,657.53,292.91,657.88,292.91,658.32 C292.91,659.39,294.48,659.53,294.98,659.56 H294.98 V659.87 C294.27,659.84,291.75,659.75,291.75,658.31 C291.75,657.35,292.98,657.17,293.67,657.17 C294.46,657.17,294.93,657.58,295.15,658 Z " /><path
         id="path12569"
         fill="black"
         stroke-width="0"
         d="M300.59,661.28 L300.57,661.26 L300.56,661.25 L300.54,661.23 L300.53,661.22 L300.52,661.2 L300.5,661.18 L300.49,661.17 L300.48,661.15 L300.47,661.14 L300.46,661.12 L300.46,661.1 L300.45,661.09 L300.44,661.07 L300.43,661.06 L300.43,661.04 L300.42,661.02 L300.42,661.01 L300.41,660.99 L300.41,660.98 L300.41,660.96 L300.4,660.95 L300.4,660.93 L300.4,660.92 L300.4,660.91 L300.39,660.9 L300.39,660.88 L300.39,660.87 L300.39,660.86 L300.39,660.85 L300.39,660.84 L300.39,660.83 L300.39,660.82 C300.39,660.38,300.74,660.2,301.01,660.2 C301.32,660.2,301.63,660.4,301.63,660.82 C301.63,661.67,300.48,661.73,299.9,661.73 C298.12,661.73,297.39,660.59,297.39,659.44 C297.39,658.12,298.32,657.17,299.85,657.17 C301.46,657.17,301.76,658.33,301.76,658.4 C301.76,658.54,301.62,658.54,301.52,658.54 C301.35,658.54,301.34,658.52,301.29,658.39 C301.03,657.76,300.55,657.57,300.04,657.57 C298.66,657.57,298.66,659.03,298.66,659.49 C298.66,660.05,298.66,661.34,299.94,661.34 C300.29,661.34,300.46,661.31,300.59,661.28 Z " /><path
         id="path12571"
         fill="black"
         stroke-width="0"
         d="M304.33,661.71 L302.6,661.63 V661.16 C303.18,661.16,303.25,661.16,303.25,660.77 V657.7 H302.57 V657.23 C302.88,657.24,303.36,657.27,303.78,657.27 C304.08,657.27,304.59,657.24,304.95,657.23 V657.7 H304.33 Z " /><path
         id="path12573"
         fill="black"
         stroke-width="0"
         d="M304.43,663.36 L304.43,663.4 L304.42,663.44 L304.42,663.48 L304.41,663.52 L304.4,663.56 L304.39,663.6 L304.38,663.63 L304.37,663.67 L304.35,663.7 L304.33,663.74 L304.31,663.77 L304.29,663.8 L304.27,663.83 L304.25,663.86 L304.22,663.89 L304.2,663.92 L304.17,663.94 L304.14,663.96 L304.11,663.99 L304.08,664.01 L304.05,664.03 L304.02,664.05 L303.98,664.06 L303.95,664.08 L303.91,664.09 L303.88,664.1 L303.84,664.12 L303.81,664.12 L303.77,664.13 L303.73,664.14 L303.69,664.14 L303.65,664.14 C303.22,664.14,302.88,663.79,302.88,663.36 C302.88,662.94,303.22,662.59,303.65,662.59 C304.07,662.59,304.43,662.93,304.43,663.36 Z " /><path
         id="path12575"
         fill="black"
         stroke-width="0"
         d="M306.31,661.18 V658.46 C306.31,657.39,307.17,657.17,307.88,657.17 C308.63,657.17,309.08,657.74,309.08,658.47 V658.99 H308.61 V658.49 C308.61,657.81,308.3,657.57,308.02,657.57 C307.44,657.57,307.44,658.21,307.44,658.44 V661.18 H308.89 V661.65 H307.44 V663.54 H306.97 C306.96,662.55,306.48,661.57,305.49,661.54 V661.18 Z " /><path
         id="path12577"
         fill="black"
         stroke-width="0"
         d="M314.45,660.97 L314.46,661 L314.48,661.02 L314.48,661.03 L314.49,661.04 L314.5,661.05 L314.51,661.06 L314.52,661.07 L314.53,661.08 L314.54,661.09 L314.55,661.1 L314.56,661.11 L314.58,661.11 L314.59,661.12 L314.61,661.13 L314.63,661.13 L314.65,661.14 L314.67,661.14 L314.69,661.15 L314.72,661.15 L314.74,661.16 L314.75,661.16 L314.77,661.16 L314.78,661.16 L314.8,661.16 L314.81,661.17 L314.83,661.17 L314.85,661.17 L314.87,661.17 L314.89,661.17 L314.91,661.17 L314.93,661.17 L314.95,661.17 L314.98,661.18 L315,661.18 L315.03,661.18 L315.05,661.18 L315.08,661.18 L315.1,661.18 L315.13,661.18 L315.16,661.18 L315.19,661.18 V661.65 C314.95,661.63,314.65,661.62,314.4,661.62 C314.15,661.62,313.71,661.64,313.5,661.65 V661.18 C313.52,661.18,313.96,661.18,313.96,661.06 C313.96,661.05,313.92,660.95,313.92,660.94 L312.77,658.5 L311.51,661.18 H312.05 V661.65 C311.72,661.63,310.82,661.62,310.81,661.62 C310.53,661.62,310.08,661.64,309.68,661.65 V661.18 H310.31 L312.17,657.23 L311.95,656.76 C311.73,656.28,311.41,655.61,310.7,655.61 C310.56,655.61,310.54,655.62,310.46,655.65 C310.55,655.68,310.78,655.82,310.78,656.17 C310.78,656.5,310.54,656.74,310.2,656.74 C309.92,656.74,309.64,656.55,309.64,656.16 C309.64,655.66,310.11,655.25,310.7,655.25 C311.47,655.25,312.05,655.86,312.31,656.43 Z " /><path
         id="path12579"
         fill="black"
         stroke-width="0"
         d="M317.82,660.87 L317.82,660.91 L317.82,660.95 L317.81,660.99 L317.81,661.03 L317.8,661.06 L317.79,661.1 L317.77,661.14 L317.76,661.17 L317.75,661.21 L317.73,661.24 L317.71,661.27 L317.69,661.3 L317.67,661.33 L317.64,661.36 L317.62,661.39 L317.59,661.42 L317.57,661.44 L317.54,661.47 L317.51,661.49 L317.48,661.51 L317.45,661.53 L317.42,661.55 L317.38,661.57 L317.35,661.58 L317.31,661.6 L317.28,661.61 L317.24,661.62 L317.2,661.63 L317.16,661.64 L317.13,661.64 L317.09,661.64 L317.05,661.65 C316.62,661.65,316.27,661.3,316.27,660.87 C316.27,660.44,316.62,660.1,317.05,660.1 C317.47,660.1,317.82,660.44,317.82,660.87 Z " /><path
         id="path12581"
         fill="black"
         stroke-width="0"
         d="M317.82,658.01 L317.82,658.05 L317.82,658.09 L317.81,658.13 L317.81,658.17 L317.8,658.2 L317.79,658.24 L317.77,658.28 L317.76,658.31 L317.75,658.35 L317.73,658.38 L317.71,658.41 L317.69,658.44 L317.67,658.47 L317.64,658.5 L317.62,658.53 L317.59,658.56 L317.57,658.58 L317.54,658.61 L317.51,658.63 L317.48,658.65 L317.45,658.67 L317.42,658.69 L317.38,658.71 L317.35,658.72 L317.31,658.74 L317.28,658.75 L317.24,658.76 L317.2,658.77 L317.16,658.78 L317.13,658.78 L317.09,658.78 L317.05,658.78 C316.62,658.78,316.27,658.44,316.27,658.01 C316.27,657.58,316.62,657.23,317.05,657.23 C317.47,657.23,317.82,657.58,317.82,658.01 Z " /><path
         id="path12583"
         fill="black"
         stroke-width="0"
         d="M327.65,660.91 L327.71,660.94 L327.77,660.98 L327.83,661.01 L327.89,661.05 L327.95,661.08 L328,661.12 L328.05,661.16 L328.1,661.19 L328.14,661.23 L328.19,661.27 L328.23,661.31 L328.27,661.35 L328.31,661.39 L328.35,661.43 L328.38,661.47 L328.41,661.51 L328.44,661.56 L328.47,661.6 L328.49,661.64 L328.52,661.69 L328.54,661.73 L328.56,661.78 L328.58,661.83 L328.59,661.87 L328.61,661.92 L328.62,661.97 L328.63,662.02 L328.64,662.07 L328.64,662.12 L328.65,662.17 L328.65,662.23 L328.65,662.28 C328.65,663.29,327.75,663.74,326.61,663.74 L326.57,663.35 C327.41,663.35,327.91,662.95,327.91,662.27 C327.91,661.78,327.65,661.45,327.21,661.16 L325.72,661.99 C325.56,662.08,325.28,662.25,325.28,662.59 C325.28,663.28,326.17,663.35,326.57,663.35 L326.61,663.74 C325.23,663.74,324.53,662.96,324.53,662 C324.53,661.57,324.71,660.94,325.49,660.5 C324.65,660.14,324.21,659.57,324.21,658.83 C324.21,657.63,325.29,657.13,326.57,657.13 L326.61,657.55 C325.64,657.55,325.07,658.06,325.07,658.83 C325.07,659.61,325.6,660.04,325.95,660.23 H325.95 C326.29,660.06,326.76,659.79,327.31,659.48 C327.75,659.23,328.11,659.02,328.11,658.55 C328.11,657.71,327.18,657.55,326.61,657.55 L326.57,657.13 C328.17,657.13,328.97,658,328.97,659.09 C328.97,660.16,328.14,660.63,327.65,660.91 Z " /><path
         id="path12585"
         fill="black"
         stroke-width="0"
         d="M334.73,660.4 L334.73,660.5 L334.73,660.6 L334.73,660.71 L334.72,660.82 L334.72,660.94 L334.71,661.07 L334.7,661.2 L334.69,661.33 L334.67,661.47 L334.65,661.6 L334.63,661.74 L334.6,661.88 L334.56,662.02 L334.52,662.16 L334.48,662.3 L334.42,662.43 L334.36,662.57 L334.3,662.7 L334.22,662.82 L334.14,662.94 L334.04,663.05 L333.94,663.16 L333.89,663.21 L333.83,663.26 L333.77,663.31 L333.71,663.36 L333.64,663.4 L333.58,663.44 L333.51,663.48 L333.43,663.52 L333.36,663.55 L333.28,663.58 L333.2,663.61 L333.11,663.64 L333.03,663.66 L332.93,663.68 L332.84,663.7 L332.74,663.72 L332.64,663.73 L332.54,663.74 L332.43,663.74 L332.32,663.74 C329.92,663.74,329.91,661.38,329.91,660.4 C329.91,659.42,329.92,657.13,332.32,657.13 V657.48 C331.96,657.48,331.41,657.7,331.28,658.43 C331.19,658.94,331.19,659.98,331.19,660.52 C331.19,661.24,331.19,661.88,331.27,662.4 C331.39,663.28,332.08,663.38,332.32,663.38 C332.69,663.38,333.1,663.2,333.29,662.76 C333.45,662.39,333.45,661.34,333.45,660.52 C333.45,659.97,333.45,659.06,333.39,658.55 C333.25,657.62,332.62,657.48,332.32,657.48 H332.32 V657.13 C334.71,657.13,334.73,659.41,334.73,660.4 Z " /></g>  </g>
</svg>
